<?xml version="1.0" standalone="no"?>
<!DOCTYPE svg PUBLIC "-//W3C//DTD SVG 1.1//EN" "http://www.w3.org/Graphics/SVG/1.1/DTD/svg11.dtd" >
<svg xmlns="http://www.w3.org/2000/svg" xmlns:xlink="http://www.w3.org/1999/xlink" version="1.1">
<metadata>
Created by FontForge 20170731 at Tue Jul 20 00:55:30 2021
 By Aleksey,,,
copyright missing
</metadata>
<defs>
<font id="IndigoOutlineFont-Regular" horiz-adv-x="1228" >
  <font-face 
    font-family="Indigo Outline Font"
    font-weight="400"
    font-stretch="normal"
    units-per-em="2048"
    panose-1="0 0 5 0 0 0 0 0 0 0"
    ascent="1638"
    descent="-410"
    x-height="1198"
    cap-height="1763"
    bbox="-471 -11606 4909.14 2296"
    underline-thickness="102"
    underline-position="-307"
    unicode-range="U+0020-25CA"
  />
<missing-glyph horiz-adv-x="1024" 
d="M840 1638v-2048h-650v2048h650zM682 242h-340v-232h340v232zM614 174v-96h-204v96h204zM682 596h-205v-115h70v47h67v-96h-204v164h-68v-231h340v231zM682 846h-68v-135h-272v-70h340v205zM682 969h-340v-68h135v-76h-135v-67h205v143h135v68zM477 1167v-73h-67v73h67z
M547 1237h-205v-213h340v70h-135v143zM682 1501h-338v-67h133v-76h-135v-68h340v68h-135v76h135v67zM682 -37h-340v-67h143l-143 -97v-67h340v67h-209l143 97h66v67z" />
    <glyph glyph-name=".notdef" horiz-adv-x="1024" 
d="M840 1638v-2048h-650v2048h650zM682 242h-340v-232h340v232zM614 174v-96h-204v96h204zM682 596h-205v-115h70v47h67v-96h-204v164h-68v-231h340v231zM682 846h-68v-135h-272v-70h340v205zM682 969h-340v-68h135v-76h-135v-67h205v143h135v68zM477 1167v-73h-67v73h67z
M547 1237h-205v-213h340v70h-135v143zM682 1501h-338v-67h133v-76h-135v-68h340v68h-135v76h135v67zM682 -37h-340v-67h143l-143 -97v-67h340v67h-209l143 97h66v67z" />
    <glyph glyph-name=".null" horiz-adv-x="0" 
 />
    <glyph glyph-name="nonmarkingreturn" horiz-adv-x="682" 
 />
    <glyph glyph-name="space" unicode=" " horiz-adv-x="614" 
 />
    <glyph glyph-name="exclam" unicode="!" horiz-adv-x="1269" 
d="M459 4q0 -14 -10.5 -19.5t-20.5 0t-10 19.5v47v307q0 21 20 21h72h305q9 0 15 -6t6 -15v-47v-307q0 -9 -6 -15.5t-15 -6.5h-72h-305q-20 0 -20 21.5t20 21.5h72h305q-1 -1 -8 -9t-12 -12v47v307l20 -20h-72h-305q17 17 21 20v-47v-307zM518 555q0 -7 -6 -13.5t-14 -6.5
q-9 0 -15 6t-6 14q-1 9 -3 27.5t-3 27.5q-4 52 -15 174t-16 187q-15 163 -22 256q-3 1 -2 37l2 36v187v274q0 21 20 21h76h305q9 0 15 -6t6 -15v-65v-373v-96q0 -24 -4 -64q-5 -61 -15.5 -182.5t-15.5 -183.5q-11 -114 -21 -242q-4 -20 -20 -20h-266q-13 0 -18 10t0 20
t18 10h266q-14 -10 -21 -20q0 10 5 55q10 119 30 361q3 41 10.5 126.5t10.5 129.5q1 1 1 37l-1 36v187v274q4 -3 7.5 -6.5t7 -7.5t5.5 -6h-76h-305q17 17 21 20v-65v-373v-96q0 -24 4 -64q19 -199 33 -366q4 -40 11 -121t11 -121z" />
    <glyph glyph-name="quotedbl" unicode="&#x22;" horiz-adv-x="1374" 
d="M647 1708q20 8 29 -8q3 -6 1 -15t-9 -12q-20 -10 -60 -26q-26 -11 -39 -27q-14 -17 -18 -49q-12 12 -21 24h88q21 0 21 -20v-8v-295q0 -9 -6 -15t-15 -6h-10h-295q-8 0 -14 6t-6 15v223q0 147 49 231q41 68 109 109q39 22 86 41q19 9 28 -6q19 -29 56 -85.5t55 -84.5
q7 -9 0 -18.5t-18 -10.5t-19 8q-24 39 -109 170q7 -4 29 -8q-92 -38 -135 -76q-73 -70 -86 -182q-4 -37 -4 -170v-141q-3 3 -10 9.5t-11 10.5h11h294q-9 -11 -20 -20v8v295q10 -7 20 -21h-88q-10 0 -16 8.5t-4 18.5q12 44 29 66q18 21 47 34q10 4 30.5 13.5t30.5 13.5z
M1051 1704q17 7 26 -8q5 -6 3 -15t-9 -12q-34 -17 -59 -27q-27 -12 -39 -28q-14 -14 -21 -47l-18 24h88q8 0 14 -5.5t6 -14.5v-10v-293q0 -9 -6 -15t-14 -6h-10h-295q-8 0 -14.5 6t-6.5 15v223q0 148 47 231q40 66 111 109q39 22 86 41q19 11 29 -6q67 -103 108 -170
q8 -11 1.5 -21t-17.5 -10t-19 10q-19 28 -54.5 84.5t-53.5 85.5q5 -3 27 -8q-98 -42 -134 -76q-73 -70 -86 -182q-4 -37 -4 -170v-141l-20 20h10h295q-4 -5 -12 -12t-9 -8v8v295l21 -21h-88q-10 0 -16.5 9t-4.5 18q6 37 29 65q20 23 47 35q10 4 31 13.5t31 13.5z" />
    <glyph glyph-name="numbersign" unicode="#" horiz-adv-x="1269" 
d="M207 -20q-3 -13 -14 -15t-19.5 5.5t-5.5 19.5q6 26 17.5 77t17.5 76q10 43 32.5 139.5t34.5 147.5q9 -12 21 -24h-248q5 2 12 7.5t8 6.5q-6 -25 -18 -76.5t-18 -77.5q-12 -48 -34.5 -143t-33.5 -143q-2 -6 -7 -11.5t-11 -5.5h-13h-297q-9 0 -15 9t-3 18q30 127 35 153
q14 55 38 157t31 130q3 -4 9.5 -12t9.5 -12h-187q-20 0 -20 20v8v295q0 21 20 21h248q-3 -2 -9 -7.5t-9 -7.5q0 2 1 7t1 8q11 54 31 154.5t28 137.5q3 -6 11 -15t10 -11h-221q-9 0 -15 6t-6 14v8v295q0 9 6 15t15 6h282q-18 -12 -20 -14q5 23 16 67t16 66q13 48 36.5 144
t35.5 144q4 15 19 15h12h297q9 0 15 -8t3 -17q-12 -55 -33 -133q-12 -48 -35 -144.5t-34 -144.5q-9 9 -21 25h248q-12 -6 -20 -14q5 23 16 67t16 66q13 48 36.5 144t35.5 144q4 15 19 15h12h297q10 0 16 -8t4 -17q-15 -55 -32 -133q-13 -48 -36 -144.5t-36 -144.5
q-12 16 -21 25h193q20 0 20 -21v-8v-295q0 -8 -5.5 -14t-14.5 -6h-254q5 2 12 7.5t8 6.5q0 -2 -1 -6.5t-1 -7.5q-59 -283 -61 -293q-9 15 -21 27h228q20 0 20 -21v-8v-295q0 -20 -20 -20h-2h-287q5 2 12 7.5t8 6.5q-6 -25 -18 -76.5t-18 -77.5q-12 -48 -34 -143t-34 -143
q-2 -6 -7 -11.5t-11 -5.5h-13h-297q-19 0 -19 21.5t19 21.5h13h297q-20 -15 -21 -16q6 26 18.5 77t18.5 76q9 37 32 135.5t36 151.5q3 16 18 16h4h285q-7 -10 -21 -20v8v295q4 -3 21 -20h-228q-9 0 -15 8t-3 18q0 2 1 7t1 8q8 40 29.5 139t32.5 153q4 15 18 15h254
q-2 -2 -6 -6.5t-7.5 -8t-7.5 -6.5v8v295q14 -10 21 -20h-193q-9 0 -15 9t-3 18q12 55 33 133q46 192 71 288q17 -23 19 -26h-12h-297q16 12 20 16q-5 -22 -16.5 -66t-16.5 -67q-12 -48 -35 -144.5t-36 -144.5q-3 -16 -19 -16h-248q-10 0 -16 8.5t-4 18.5q21 78 33 133
q12 48 35.5 144t35.5 144q3 -5 10.5 -14t10.5 -12h-12h-297q16 12 20 16q-5 -22 -16.5 -66t-16.5 -67q-49 -205 -71 -289q-3 -16 -19 -16h-2h-280q9 11 20 20v-8v-295q-5 4 -12 12t-8 9h221q10 0 15.5 -8t2.5 -19q0 -2 -1 -6.5t-1 -7.5q-11 -53 -31 -153.5t-28 -139.5
q-4 -14 -21 -14h-248q17 17 21 20v-8v-295q-14 10 -21 20h187q10 0 16 -8t4 -18q-6 -25 -18.5 -76.5t-18.5 -77.5q-11 -48 -33 -143t-34 -143q-3 5 -10.5 14t-10.5 12h13h297q-20 -15 -21 -16q6 26 18.5 76.5t18.5 76.5q9 37 32 135.5t36 151.5q3 16 18 16h248q9 0 15 -8.5
t3 -17.5q-6 -26 -17.5 -77t-17.5 -77q-12 -48 -34 -143t-33 -143zM371 723q-1 -7 -9 -11.5t-16 -2.5q-17 6 -14 26q0 2 1 7t1 8q4 21 26.5 127.5t34.5 164.5q8 -12 21 -26h-248q1 1 8 6.5t12 7.5q-1 -2 -2 -7t-2 -7q-11 -53 -31 -153.5t-28 -139.5q-9 15 -21 27h248
q19 0 19 -20.5t-19 -20.5h-248q-9 0 -14.5 7.5t-3.5 18.5q0 2 1 7t1 8q45 218 59 292q4 15 21 15h248q9 0 14.5 -8t3.5 -19q0 -2 -1 -6.5t-1 -7.5q-59 -283 -61 -293z" />
    <glyph glyph-name="dollar" unicode="$" horiz-adv-x="1392" 
d="M1169 948q13 -13 0 -30q-11 -11 -30 0q-129 114 -375 174q-14 4 -14 20v195q0 11 8 17t18 3q119 -34 191 -98q3 -3 35.5 -32.5t48.5 -45.5q-11 0 -31 -4q40 61 96 137q28 40 84.5 120t85.5 120q0 -4 1 -12.5t1 -12.5l-4 4q-108 92 -172 131q-163 94 -348 121
q-14 3 -14 21v96q3 -3 10 -10.5t10 -10.5h-242l21 21v-90q0 -17 -21 -21q-172 -16 -301 -98q-150 -94 -202 -248q-31 -95 -31 -174q0 -94 26 -176q22 -80 74 -141q52 -64 125 -109q65 -41 138.5 -67.5t177.5 -53.5q14 -4 14 -20v-205q0 -11 -8.5 -17t-18.5 -3
q-143 41 -274 155q-6 5 -90 78h28q-98 -119 -112 -137q-163 -192 -189 -223v28q48 -44 74 -65q127 -111 258 -174q150 -73 311 -91q21 -4 21 -20v-86q-3 3 -10.5 10t-10.5 10h242l-20 -20v84q0 9 6 14.5t14 5.5q158 19 283 99q137 90 196 225q67 153 29 334
q-32 151 -139 242q-13 13 0 30q15 12 30 0q0 -4 5 -4q105 -94 143 -252q41 -180 -21 -344q-62 -161 -213 -260q-131 -88 -313 -111q3 4 6.5 7.5t8 7.5t6.5 6v-84q0 -7 -6.5 -13.5t-14.5 -6.5h-242q-8 0 -14 6t-6 14v86q3 -4 6.5 -7.5t7.5 -7t6 -5.5q-134 17 -237 55
q-160 62 -297 166q-47 39 -137 121q-16 12 0 28q19 22 56.5 68t55.5 69q137 161 189 224q10 13 28 0q15 -12 44 -38t44 -38q124 -107 261 -148q-15 -9 -27 -18v205q2 -3 7 -9.5t7 -9.5q-243 62 -368 156q-77 60 -117 123q-52 78 -68 153q-45 194 21 359q65 161 217 252
q139 88 321 104q-2 -2 -6 -5.5t-7.5 -7t-6.5 -7.5v90q0 8 6 14t14 6h242q8 0 14.5 -6.5t6.5 -13.5v-96q-2 3 -7.5 9t-7.5 9q18 -2 58 -10q193 -41 335 -137q69 -50 148 -119q6 -4 6.5 -12.5t-2.5 -12.5q-27 -37 -96 -137q-143 -200 -170 -240q-6 -8 -15.5 -9t-17.5 5
q-14 13 -41.5 38t-40.5 38q-63 56 -176 90q8 5 27 19v-195q-2 3 -7.5 9t-7.5 9q250 -63 393 -182zM496 1223q8 -5 10 -13t-2 -16q-14 -18 -29 -6q-26 18 -31 39q-8 35 0 59q14 38 78 55q10 3 18.5 -3t8.5 -17v-137q0 -9 -9 -16.5t-18 -4.5q-25 9 -47 25q-9 7 -7.5 18.5
t10 16.5t18.5 0q18 -12 39 -21q-15 -9 -27 -18v137q12 -9 27 -18q-22 -6 -41 -19l-5 -2l-2 -2l-2 -2l-2 -4q-3 -16 0 -33q3 -10 13 -18zM786 500q6 5 15 2t12 -10q9 -16 -6 -27q-9 -7 -27 -14q-10 -5 -20 -0.5t-10 16.5v135q0 12 10 17t20 -1q60 -26 64 -63q4 -30 -4 -51
t-33 -39q-6 -5 -15 -3t-14 9q-4 8 -2 16t10 13q27 20 17 49q-2 8 -12 18q-23 14 -31 17q5 3 15.5 9t15.5 9v-135q-5 3 -15.5 9t-15.5 9q13 5 26 15z" />
    <glyph glyph-name="percent" unicode="%" horiz-adv-x="2076" 
d="M1554 20q13 0 18 -10t0 -20t-18 -10q-106 0 -194 49q-84 47 -139 131q-75 119 -78 297q-7 190 76 327q47 74 98 113q56 41 129 61q76 19 158.5 9.5t150.5 -47.5q131 -73 187 -226q51 -145 24 -332q-23 -162 -127 -266q-119 -116 -285 -116q-13 0 -18 10t0 20t18 10
q130 0 224 76q60 50 94 109q32 56 49 137q15 83 12 168t-26 158q-47 147 -172 217q-66 35 -144.5 42.5t-150.5 -14.5q-66 -19 -117 -63q-51 -48 -88 -121q-68 -138 -47 -328q15 -167 98 -260q55 -61 123 -90q61 -31 145 -31zM1559 721q20 0 20 -20.5t-20 -20.5
q-27 0 -41 -14q-4 -2 -13 -11l-4 -6q-4 -4 -4 -6l-6 -12q-1 0 -1 -1l1 3l-2 -4l-4 -8q-7 -30 -10 -50q-12 -74 -5 -161q4 -38 11 -62q4 -16 6 -22q-1 0 0 -2q2 -2 2 -5l4 -8q13 -22 35 -35l12 -4q1 0 3 -1t3 -1h2q19 0 27 2q13 3 27 13q3 3 8.5 9.5t7.5 8.5t6 10q0 1 1 3
t1 3q2 2 2 5q15 45 19 110q7 92 -9 160q-20 84 -79 86q-20 0 -20 20.5t20 20.5q33 0 60.5 -19.5t41.5 -50.5q23 -45 27 -127q6 -76 -7 -157q-7 -48 -26 -80q-15 -28 -44 -44.5t-61 -13.5q-65 6 -94 66q-22 43 -26 111q-7 95 4 169q8 55 24 84q34 62 101 62zM461 -10
q-7 -10 -17 -10t-17 9.5t-1 20.5q4 8 6 10q12 25 37 73.5t37 72.5l141 270q30 57 89 170.5t89 171.5q29 58 187 361q28 55 84 163l84 162q62 117 120 234q5 10 22.5 41t25.5 49q7 10 18 10h2h285q12 0 17.5 -11t0.5 -20q-4 -8 -6 -10q-13 -25 -37 -73t-37 -72
q-23 -45 -69.5 -135.5t-69.5 -135.5q-146 -280 -178 -342q-28 -54 -187 -360q-110 -218 -167 -324q-32 -66 -121 -235q-8 -15 -23.5 -45t-23.5 -45q-3 -10 -17 -10h-4h-287q-13 0 -18 10t0 20t18 10h2h289q-3 -2 -9 -5t-9 -5q4 8 6 10q61 120 74 144q23 45 69.5 135
t69.5 135q29 58 89 172t89 172q125 243 186 361q25 50 168 323q20 39 60 118t61 118q9 15 47 90q14 -23 17 -31h-2h-285q6 2 18 10q-4 -8 -6 -10q-50 -98 -75 -145q-23 -45 -69.5 -135.5t-70.5 -135.5q-32 -62 -178 -342q-95 -181 -186 -360q-28 -54 -85 -162.5t-85 -163.5
q-29 -58 -121 -233q-8 -16 -23.5 -45t-23.5 -45zM535 848q20 0 20 -20.5t-20 -20.5q-108 0 -193 49q-84 47 -139 131q-73 114 -80 295q-7 187 74 326q48 76 98 114q57 45 131 64q169 41 309 -39q133 -76 185 -223q52 -150 26 -334q-23 -162 -127 -266q-120 -117 -284 -117
q-20 0 -20 20.5t20 20.5q129 0 223 76q58 48 94 108q33 62 49 137q16 87 10 168q-3 93 -24 158q-46 147 -172 217q-65 36 -144.5 43.5t-150.5 -14.5q-65 -18 -119 -66q-56 -53 -86 -121q-67 -140 -47 -327q18 -167 100 -258q51 -60 121 -90q70 -31 146 -31zM539 1548
q20 0 20 -20.5t-20 -20.5t-33 -8q-6 -2 -14 -10q-6 -6 -7 -8l-4 -4q-3 -3 -6 -9q0 -1 -1 -3t-1 -3q-1 -1 -3 -4l1 2q-4 -12 -6 -16q-12 -41 -16 -127q0 -105 16 -154q10 -32 34 -51.5t56 -11.5q16 3 27 14q3 2 6 5t6 6.5t4 4.5q1 2 3 5.5t3 5.5q0 1 1 3t1 3t1 2t1 2
q15 45 19 111q4 104 -9 159q-21 86 -79 86q-20 0 -20 20.5t20 20.5q54 0 84 -41q26 -29 36 -80q15 -83 9 -165q-4 -72 -19 -119q-17 -50 -57 -72q-34 -20 -73 -12t-64 39q-37 44 -45 141q-6 76 4 162q7 54 24 86q33 61 101 61z" />
    <glyph glyph-name="ampersand" unicode="&#x26;" horiz-adv-x="1814" 
d="M1178 158q6 4 14.5 2t13.5 -8q7 -18 -8 -29q-1 -1 -3 -2t-3 -2q-140 -95 -303 -125q-192 -33 -348 4q-168 43 -289 149q-135 122 -162 297q-16 95 -2 179q12 82 57 159q76 134 252 250q-5 -12 -8 -28q-43 57 -65 102q-25 52 -37 106q-24 136 8 244q21 81 76 152
q50 61 129 108q141 87 321 90q187 0 324 -77q77 -42 132 -106.5t79 -145.5q25 -85 15.5 -172.5t-52.5 -163.5q-74 -130 -252 -250q0 9 4 33q31 -38 113 -133q-25 -5 -31 -5q49 82 66 150q5 20 16 59.5t16 59.5q3 9 12.5 13.5t18.5 -1.5q19 -14 59 -42l60 -42
q41 -29 122 -86.5t122 -85.5q15 -10 8 -23q-9 -29 -41 -108q-33 -76 -125 -227q-1 4 -2 12t-2 12q85 -98 166 -176q13 -12 38.5 -36t38.5 -36q6 -6 6 -15t-6 -15q-83 -78 -100 -95q-37 -34 -109.5 -102t-109.5 -102q-5 -6 -14 -6t-15 6l-6 6q-33 37 -99 110.5t-99 110.5
q-8 8 -4.5 19.5t13 14t19.5 -4.5q3 -6 6 -9q66 -70 199 -219h-29q2 2 103 97q17 16 96 89.5t121 114.5v-30q-13 13 -38.5 36.5t-39.5 36.5q-64 60 -166 177q-11 11 -2 24q89 142 123 225q16 37 39 101q2 -3 5 -11.5t5 -11.5q-33 21 -121 84q-40 28 -120.5 86t-120.5 86
q20 8 28 12q-5 -20 -16.5 -61t-16.5 -61q-23 -78 -69 -156q-4 -9 -15 -10.5t-18 6.5q-5 6 -113 131q-16 19 5 33q181 125 245 252q38 75 40.5 160t-29.5 163q-60 145 -226 215q-149 66 -329 43q-171 -19 -295 -125q-62 -56 -99 -131q-35 -78 -35 -164q-3 -99 23 -172
q17 -54 82 -143q6 -6 3 -15t-9 -12q-150 -100 -225 -215q-43 -69 -60 -137q-17 -70 -8 -149q12 -176 137 -301q115 -112 277 -152q163 -40 338 -8q164 30 301 123zM659 715q8 4 16 2t13 -10q10 -16 -8 -27q-29 -21 -42.5 -32t-33.5 -33t-29 -44q-12 -32 -4 -55q9 -26 33 -43
q47 -31 123 -35q49 0 74 6q31 9 73 31q-1 -5 -2 -15.5t-2 -15.5q-87 92 -215 238q-12 17 0 29q6 6 15 6.5t14 -6.5q85 -98 215 -238q8 -7 6.5 -18t-10.5 -15l-16 -8q-56 -27 -86 -31q-50 -7 -86 -2q-90 7 -142 54q-29 27 -35.5 65.5t11.5 73.5q29 62 118 123zM831 1407
q20 0 20 -20.5t-20 -20.5q-29 0 -51 -16q-3 -2 -16 -15v0v-1l2 3v-8q1 -14 7 -28.5t11 -23t17.5 -25t15.5 -21.5q-4 1 -13 3t-13 3q19 11 77 53q13 13 19 21q6 6 5 6l-1 -2l4 4l2 3v1v-2q0 8 -2 10q0 6 -2 10v2l-2 3l-2 2l2 -2q-3 4 -6 4q-2 1 -5.5 3t-5.5 3q-18 10 -43 10
q-20 0 -20 20.5t20 20.5q69 0 95 -41q12 -18 12 -45q0 -9 -6 -18q-10 -18 -33 -37q-37 -35 -88 -64q-8 -4 -16 -2t-13 10q-20 25 -30 39.5t-19.5 39.5t-7.5 48q0 11 7 21t12 14t18 14q30 21 69 21z" />
    <glyph glyph-name="quotesingle" unicode="'" horiz-adv-x="1271" 
d="M424 1421q-19 -8 -29 9q-3 6 -1 14.5t9 11.5q30 15 60 27q27 12 39 28q14 14 18 48q9 -9 21 -25h-88q-21 0 -21 20v9v295q0 20 21 20h10h295q8 0 14 -5.5t6 -14.5v-224q0 -151 -49 -231q-37 -66 -108 -109q-39 -22 -86 -41q-19 -10 -29 7q-18 28 -55 85t-56 85
q-7 11 0 20.5t18 9.5t19 -10q19 -29 54.5 -85.5t54.5 -84.5q-5 2 -27 8q92 39 133 76q73 70 86 182q4 37 4 170v142l21 -21h-10h-295q3 4 20 21v-9v-295q-17 17 -20 21h88q10 0 16 -8.5t4 -18.5q-11 -43 -29 -65q-20 -23 -47 -35q-10 -4 -30.5 -13.5t-30.5 -13.5z" />
    <glyph glyph-name="parenleft" unicode="(" horiz-adv-x="1271" 
d="M702 -90q4 -6 1 -15t-9 -14q-15 -9 -28 8q-71 100 -129 238q-77 189 -111 352q-43 205 -35 387q6 186 58 387q52 183 129 342q32 68 71 125q2 2 6.5 9t8 11.5t9 8.5t11.5 4h14h297q11 0 18.5 -11t0.5 -20q-73 -99 -121 -192q-76 -146 -127 -336q-53 -194 -53 -371
q0 -188 49 -368q49 -189 127 -346q51 -95 80 -136q8 -14 25 -36.5t20 -26.5q7 -9 -0.5 -20t-18.5 -11h-12h-299q-20 0 -20 20.5t20 20.5h14h297q-5 -13 -16 -31l-2 2q-45 64 -49 72q-40 56 -80 137q-81 163 -129 351q-47 199 -47 372q3 186 51 373q51 186 131 348
q37 75 80 135q20 32 45 64q11 -18 16 -31h-12h-299q3 2 9 5t9 5q-119 -163 -198 -430q-118 -386 -45 -768q32 -178 110 -370q56 -138 133 -244z" />
    <glyph glyph-name="parenright" unicode=")" horiz-adv-x="1269" 
d="M604 -111q-12 -16 -26 -8q-8 5 -10.5 14t1.5 15q117 163 199 430q118 386 45 768q-37 189 -111 371q-55 135 -133 243q3 -2 9.5 -5t9.5 -5h-15h-299q3 5 9.5 15.5t9.5 15.5q33 -45 51 -74q34 -50 80 -137q81 -169 127 -350q49 -191 49 -373q-3 -190 -53 -373
q-47 -182 -129 -348q-41 -78 -80 -135q-6 -10 -14 -21t-17 -23.5t-14 -19.5q-3 5 -9.5 15.5t-9.5 15.5h15h299q20 0 20 -20.5t-20 -20.5h-15h-299q-11 0 -17 11t1 20q82 117 121 192q76 146 127 336q50 183 53 371q0 178 -49 369q-50 192 -129 346q-35 70 -78 135
q-9 12 -24 33t-21 30q-7 9 -1 20t17 11h293h19q4 0 7.5 -1t6.5 -4t4.5 -5t5 -6t4.5 -6q46 -68 70 -115q73 -140 129 -336q113 -385 39 -774q-37 -184 -113 -369q-62 -147 -135 -248z" />
    <glyph glyph-name="asterisk" unicode="*" horiz-adv-x="1069" 
d="M573 1475q5 -6 3 -15t-9 -14q-15 -9 -28 8q-7 10 -21.5 32t-21.5 32h34q-24 -43 -63 -93q-5 -7 -13 -9.5t-16 1.5q-20 16 -62 45.5t-63 44.5q-18 12 -4 33q12 14 35.5 43t36.5 43q3 -7 8 -33q-57 13 -106 27q-9 1 -13.5 9t-1.5 16q8 26 23.5 76t23.5 75q7 17 27 14
q63 -22 104 -38q-12 -12 -24 -21q-6 55 -6 111q0 9 6 14.5t14 5.5h154q9 0 15 -5.5t5 -14.5q0 -56 -6 -111q-12 9 -24 21q15 6 33 12t39.5 13t33.5 11q19 6 27 -14q7 -24 47 -147q3 -7 -2 -14.5t-13 -10.5q-64 -22 -106 -31q2 5 5 16.5t5 16.5q24 -25 70 -84q16 -20 -4 -33
q-23 -18 -67.5 -48.5t-59.5 -41.5q-16 -10 -27 8q-5 5 -12 15.5t-10 13.5q-5 6 -2 15.5t10 13.5q14 8 26 -8q3 -3 7.5 -9.5t8 -11t7.5 -8.5q-5 1 -14.5 3t-14.5 3q13 9 127 90q0 -11 -4 -31q-34 43 -72 84q-7 9 -3.5 20.5t14.5 14.5q20 4 55.5 15.5t50.5 15.5q-5 -6 -14 -25
q-8 25 -24.5 74.5l-24.5 73.5q3 -1 11.5 -7t14.5 -8q-69 -22 -108 -38q-9 -3 -18 4t-9 16q6 55 6 111l21 -21h-154l21 21q0 -56 6 -111q0 -9 -9 -16t-18 -4q-48 19 -106 38q8 6 26 15q-8 -25 -24.5 -75.5t-24.5 -74.5q-2 4 -7 12.5t-7 12.5q53 -15 108 -27q12 -3 14.5 -15.5
t-5.5 -19.5q-12 -15 -35.5 -43.5t-36.5 -42.5q0 11 -4 31q55 -37 125 -90q-4 -1 -13.5 -3t-13.5 -3q52 70 64 92q6 10 17 10t17 -10q7 -10 21.5 -31.5t21.5 -31.5z" />
    <glyph glyph-name="plus" unicode="+" horiz-adv-x="1452" 
d="M610 209q0 -20 -20.5 -20t-20.5 20v151v297q4 -5 12 -12t9 -8h-150h-297q-8 0 -14 5.5t-6 14.5v45v306q0 8 6.5 14t13.5 6h150h297q-3 -3 -10.5 -10t-10.5 -10v153v295q0 9 6.5 15t14.5 6h47h307q8 0 14.5 -6t6.5 -15v-153v-295q-3 3 -10.5 10t-10.5 10h150h297
q7 0 13.5 -6t6.5 -14v-45v-306q0 -9 -6 -14.5t-14 -5.5h-150h-297q1 1 9 8t12 12v-153v-295q0 -9 -6.5 -15t-14.5 -6h-47h-307q-20 0 -20 20.5t20 20.5h47h307l-20 -20v151v297q0 8 5.5 14.5t14.5 6.5h150h297l-21 -21v45v306l21 -21h-150h-297q-20 0 -20 21v153v295l20 -20
h-47h-307l20 20v-153v-295q0 -9 -6 -15t-14 -6h-150h-297l21 21v-45v-306q-2 2 -6.5 6t-8 7.5t-6.5 7.5h150h297q7 0 13.5 -6.5t6.5 -14.5v-153v-295z" />
    <glyph glyph-name="comma" unicode="," horiz-adv-x="960" 
d="M197 -131q-20 -8 -29 8q-3 6 -1 15t9 12q20 10 60 26q25 11 38 29q16 15 19 47q8 -8 20 -24h-88q-20 0 -20 20v8v295q0 21 20 21h11h294q8 0 14.5 -6t6.5 -15v-223q0 -148 -49 -232q-40 -68 -111 -108q-38 -22 -86 -41q-16 -10 -26 6q-18 29 -55 85.5t-56 84.5
q-7 11 0 21t18 10t19 -10q41 -67 108 -170q-12 5 -28 8q92 38 135 76q73 70 86 182q4 37 4 170v141l20 -20h-10h-295q7 10 21 20v-8v-295q-12 9 -21 21h88q10 0 16.5 -9t4.5 -18q-12 -44 -29 -66q-18 -21 -47 -34q-10 -4 -30.5 -13.5t-30.5 -13.5z" />
    <glyph glyph-name="hyphen" unicode="-" horiz-adv-x="1024" 
d="M840 539q0 -20 -20.5 -20t-20.5 20v147q9 -11 20 -20q-8 -2 -22 -2q-225 0 -338 -2h-254l20 20v-147q-11 9 -20 20h20q225 0 338 2q170 0 256 2q19 0 19 -20.5t-19 -20.5q-8 -2 -22 -2q-225 0 -338 -2h-254q-9 -1 -15 5.5t-6 15.5v147q0 16 21 20h20q168 0 338 3
q170 0 256 2q7 0 14 -6.5t7 -14.5v-147z" />
    <glyph glyph-name="period" unicode="." horiz-adv-x="1269" 
d="M113 184q0 -20 -20.5 -20t-20.5 20q2 75 55.5 130t128.5 55t130 -55t54 -130q0 -75 -54 -129.5t-130 -54.5q-75 0 -128.5 54.5t-55.5 129.5q0 20 20.5 20t20.5 -20q2 -50 32.5 -89.5t79.5 -49.5q50 -11 95 11.5t67 68.5q29 61 -2.5 123t-97.5 76q-66 15 -119 -28.5
t-55 -111.5z" />
    <glyph glyph-name="slash" unicode="/" horiz-adv-x="1269" 
d="M1171 1898q10 -7 10 -17t-9.5 -16.5t-20.5 -0.5q-45 20 -133 65q5 1 14.5 3t14.5 3q-13 -21 -17 -34q-1 -1 -92 -181q-71 -144 -145 -293q-25 -51 -84.5 -169.5t-90.5 -182.5q-92 -179 -180 -360q-71 -145 -159 -322q-69 -133 -115 -229q-39 -75 -45 -88q-2 8 -6 28
q58 -31 131 -65q-11 -4 -29 -8q3 6 9 17.5t9 17.5q52 106 91 180q35 73 145 293q24 49 83.5 168t90.5 184q151 300 182 360q35 73 160 322q31 65 115 229q8 18 23.5 49.5t19.5 38.5q7 11 17 11.5t17 -9.5t1 -22q-3 -6 -9 -19t-8 -16q-16 -30 -45.5 -90.5t-44.5 -89.5
q-110 -219 -145 -293q-88 -175 -176 -352q-23 -47 -85.5 -170.5t-95.5 -190.5q-53 -109 -159 -321l-36.5 -73l-42.5 -85l-36 -72q-8 -18 -24 -49.5t-19 -38.5q-4 -7 -13.5 -9t-15.5 1q-110 56 -131 66q-16 8 -8 28q13 26 16 35q24 45 90 180q134 269 146 293
q147 293 176 352q62 122 180 361q18 36 160 321q13 26 37 73t43 85t35 72q8 17 23.5 46.5t21.5 41.5q3 7 11.5 9t14.5 -1q23 -12 66.5 -33.5t66.5 -32.5z" />
    <glyph glyph-name="zero" unicode="0" horiz-adv-x="1525" 
d="M1376 -7199q148 -264 127 -647q-17 -366 -200 -590q-98 -125 -236 -186q-138 -66 -303 -66q-153 0 -281 54q-146 64 -243 178q-96 107 -148 256q-54 141 -67 323q-13 187 16 357q28 161 98.5 299.5t184.5 232.5q122 96 270 131q156 35 315 4q153 -28 275 -118
q118 -90 192 -228zM764 -6887q-14 0 -86 -5q-156 -19 -277 -100q-116 -78 -198 -213q-152 -256 -131 -637q18 -361 196 -573q98 -119 236 -174q137 -57 301 -47q163 10 285 82q127 69 210 198q163 243 156 617q-4 370 -176 600q-88 120 -223 186t-293 66zM616 -7496
q27 83 76 117q26 20 61.5 22.5t65.5 -12.5q56 -28 86 -110q23 -59 33 -144q9 -92 6 -184q-4 -100 -18 -166q-9 -49 -26 -89t-52.5 -73t-83.5 -34q-60 0 -100 49q-38 46 -60 131q-17 74 -20 164q-6 86 4 184q7 83 28 145zM764 -7406q-55 0 -84 -63q-21 -44 -35 -107
q-11 -65 -14 -147q0 -109 6 -164q6 -68 31 -139q25 -78 73 -90q31 -9 52 2q25 10 47 43q29 53 41 119q14 74 14 163q3 98 -8 181q-10 79 -37 133q-20 40 -39 55q-20 14 -47 14zM1376 1489q148 -265 127 -647q-17 -365 -200 -592q-100 -123 -236 -187q-138 -63 -303 -63
q-155 0 -281 53q-141 58 -243 176q-96 110 -148 256q-54 143 -67 324q-13 188 16 356q28 161 98.5 300t184.5 233q130 102 270 131q154 38 315 6q153 -28 275 -121q121 -92 192 -225zM764 1800q-42 0 -86 -6q-151 -15 -277 -100q-113 -73 -198 -213q-152 -253 -131 -635
q18 -364 196 -576q100 -117 236 -172q137 -57 301 -47q156 6 285 80q127 72 210 201q163 243 156 616q-4 371 -176 598q-87 123 -223 189q-133 65 -293 65zM616 1192q26 80 76 117q25 20 61 22t66 -12q55 -28 86 -111q22 -59 33 -145q9 -89 6 -184q-4 -101 -18 -164
q-9 -50 -26 -90.5t-52.5 -73.5t-83.5 -33q-62 0 -100 47t-60 131q-17 74 -20 164q-6 88 4 187q7 83 28 145zM764 1282q-54 0 -84 -65q-21 -41 -35 -105q-11 -65 -14 -147q0 -111 6 -164q6 -72 31 -142q27 -78 73 -90q28 -8 52 4q25 10 47 43q29 53 41 119q14 74 14 164
q3 95 -8 178q-11 82 -37 133q-21 42 -39 56q-22 16 -47 16z" />
    <glyph glyph-name="one" unicode="1" horiz-adv-x="948" 
d="M907 1823q8 0 14.5 -6t6.5 -15v-33v-213v-348v-405v-383v-287v-113q0 -8 -6 -14t-15 -6h-245h-279q-8 0 -14.5 6.5t-6.5 13.5v13v231v389v367v135q-29 -7 -182 -47q-19 -3 -26 14q-19 66 -52 172q-13 46 -40.5 139.5t-41.5 139.5q-4 15 9 24q12 4 49 23q55 27 166 80.5
t166 79.5q14 7 43 20.5t43 20.5q5 2 34 2h72h305zM387 1212q9 3 17 -3.5t8 -16.5v-12v-234v-389v-367v-141h204h263v6v205v344v404v385v288v93h-66h-301q-25 -12 -93 -45t-106 -50q-40 -20 -119.5 -58.5t-119.5 -57.5q32 -103 41 -138q8 -25 36 -118.5t44 -143.5
q12 3 82.5 21.5t109.5 27.5z" />
    <glyph glyph-name="two" unicode="2" horiz-adv-x="1318" 
d="M1278 317q0 -192 2 -288q0 -8 -6.5 -14.5t-13.5 -6.5h-29q-43 0 -128 -1t-128 -1q-65 0 -196 -1t-197 -1q-121 -2 -363 -2q-53 -2 -158 -2q-10 0 -16 6q-4 8 -4 14v80q-2 102 -2 312q0 12 16 24q4 5 10 11t13 12.5t10 9.5q78 78 117 115q45 44 134 131t134 131
q35 35 53 51q4 4 58 64q8 10 24.5 30.5t24.5 30.5q22 30 35 55q11 17 22 47q8 30 10 50q2 4 2 6v6v10q3 16 0 31q-6 39 -34 61t-64 19q-23 0 -49 -13q-21 -13 -47 -39q-23 -23 -84 -102q-14 -18 -27 -8q-136 98 -151 110q-96 68 -236 170q-15 11 -6 27q40 72 76 115
q56 65 123 114q135 102 307 127q194 30 348 -18q177 -60 275 -180q116 -136 122 -328q3 -184 -57 -315q-54 -115 -174 -246q-44 -51 -193 -193q89 0 134 2q194 0 290 2q9 0 15 -6t6 -14q0 -132 2 -195zM88 334q0 -47 1 -142t1 -143q41 0 123 1t123 1q64 0 194.5 1t196.5 1
q61 1 182.5 2t182.5 2h139q-2 51 -2 154q0 45 -1 135t-1 135h-183q-96 -2 -286 -2q-12 0 -18 13t3 22q12 10 34.5 32t33.5 32q19 20 59 57.5t60 56.5q15 13 28.5 27.5t34 38.5t25.5 30q43 48 92 121q81 132 92 260q11 106 -2 181q-16 93 -59 163q-82 140 -242 209
q-145 62 -334 45q-177 -19 -311 -108q-72 -50 -121 -107q-49 -56 -74 -102q50 -38 119 -86q28 -20 104 -76t119 -86q3 6 7 10q11 14 18 22.5t18 22.5t20 23t21 20.5t22 19t23 15.5t25.5 12.5t26.5 7.5t29 2.5t30 -3.5q41 -9 71 -40.5t38 -72.5q8 -53 -9 -117
q-14 -43 -41.5 -88.5t-51 -74.5t-62.5 -72q-23 -25 -68 -70q-132 -126 -262 -256q-25 -24 -53.5 -51t-62 -60t-52.5 -51v-67z" />
    <glyph glyph-name="three" unicode="3" horiz-adv-x="1437" 
d="M1409 666q17 -85 0 -187q-13 -92 -51 -160q-88 -155 -244 -233q-168 -86 -369 -86q-198 0 -358 72q-170 75 -268 221q-46 69 -74 156q-4 13 -12.5 40t-12.5 41q-2 8 3 16t12 11q29 7 88 22.5t88 22.5q35 9 132 34.5t149 39.5q18 6 26 -14q17 -66 29 -89q39 -74 108 -94
q92 -29 164 8q36 19 51 54q15 36 9 73q-12 66 -109 95q-55 14 -141 14h-150q-9 0 -14.5 6t-5.5 14v80v305q0 21 20 21h133q47 0 70 2q100 4 137 41q25 25 25 61q0 47 -15 64q-23 27 -61.5 38t-75.5 3t-64.5 -31.5t-39.5 -58.5q-8 -22 -21 -80q-3 -18 -24 -14q-29 7 -88.5 20
t-89.5 20q-47 12 -141.5 33t-141.5 33q-9 1 -13 9t-1 16q26 92 41 127q70 169 221 266q153 103 350 119q93 8 184.5 -5t177 -45.5t158 -91t119.5 -137.5q42 -74 55.5 -163t-4.5 -173q-27 -150 -158 -250q76 -51 128 -125t69 -161zM928 616q7 -45 -8 -84q-15 -42 -51 -70
t-79 -37.5t-88.5 -5.5t-83.5 21q-70 29 -114 111q-10 20 -27 72q-14 -4 -62 -17t-75 -20q-44 -12 -132 -35t-132 -35q20 -76 47 -131q75 -157 227 -242q156 -84 355 -94q91 -3 179 12.5t169.5 50t150 94t111.5 138.5q36 71 49 156q13 103 -8 182q-23 80 -77.5 144.5
t-129.5 105.5q-11 6 -11 18.5t11 18.5q26 13 63 47q65 58 91 129q28 71 28 162q-4 98 -33 163q-37 79 -94 136q-118 118 -311 151q-199 37 -381 -24q-178 -58 -287 -197q-49 -60 -82 -145q-9 -29 -20 -70q23 -5 68.5 -16.5t68.5 -16.5q51 -11 143 -32.5t123 -28.5
q10 53 31 92q49 76 129 88q96 13 162 -41q31 -25 41 -66.5t0 -78.5q-25 -121 -252 -121h-129v-41v-287h14q13 0 53 0.5t58.5 0t50 -2.5t57.5 -6q105 -15 156 -74q26 -37 31 -74z" />
    <glyph glyph-name="four" unicode="4" horiz-adv-x="1462" 
d="M1421 748q9 0 15 -6t6 -15v-197v-288q0 -8 -6 -14.5t-15 -6.5h-172v-201q0 -2 -6 -14q-6 -6 -14 -6h-240h-280q-8 0 -14.5 6.5t-6.5 13.5v201h-39h-364h-244q-9 0 -15 6.5t-6 14.5v4v317q0 22 5 29l6 12q18 26 41 64q55 86 161 254q36 56 108 167t108 168q34 53 101 160
t101 160q21 34 64 101.5t65 101.5q1 2 6.5 10.5t8.5 13t8.5 9t11.5 4.5h111h303q8 0 14 -6t6 -15v-147v-369v-379v-153h172zM1200 250q0 20 21 20h172v158v270h-172q-9 0 -15 6.5t-6 14.5v147v371v377v153h-76h-293q-97 -152 -104 -163q-33 -51 -97.5 -153t-97.5 -153
q-180 -282 -217 -340q-29 -46 -176 -276l-69 -111v-18v-283h39h366h242q20 0 20 -20v-201h199h264v201zM811 1083q7 12 22 8.5t15 -18.5v-43v-305q0 -10 -6 -16q-4 -4 -15 -4h-219q-11 0 -17.5 10t-0.5 20q10 15 29.5 45.5t29.5 46.5q127 201 162 256zM799 754v219
q-40 -66 -140 -219h140z" />
    <glyph glyph-name="five" unicode="5" horiz-adv-x="1374" 
d="M1315 854q55 -146 33 -309q-22 -161 -119 -285q-96 -125 -246 -192q-145 -68 -319 -68q-51 0 -76 4q-179 12 -338 102q-77 49 -139 105q-27 26 -84 86q-10 15 -2 25q12 17 35 49t34 49q30 41 88 122t88 122q6 8 15.5 9.5t17.5 -5.5l35 -35q6 -6 18.5 -17.5t18.5 -17.5
q6 -5 17 -15t16 -14q24 -16 59 -37q79 -41 84 -43q96 -36 170 -20q84 18 117 80q31 63 6 139q-23 64 -94.5 90t-149.5 19q-44 -4 -94 -21t-82.5 -33t-85.5 -45q-15 -9 -29 9q-8 12 -16 20q-37 49 -111 143q-15 21 -49 64q-16 21 -16 29v229v395v209q0 8 6.5 14.5t13.5 6.5
h174h377h375h170q7 0 13.5 -6.5t6.5 -14.5v-131v-299q0 -8 -6.5 -14t-13.5 -6h-53h-361h-225v-117q129 16 244 -4q160 -29 291 -127t186 -244zM881 727q33 -68 16 -156q-17 -74 -84 -116q-72 -45 -164 -39q-91 8 -182 61q-84 47 -119 80q-20 16 -57 53q-7 -10 -21.5 -30.5
t-21.5 -30.5q-96 -135 -170 -236q75 -76 92 -90q135 -111 301 -151q179 -43 346 -9q154 32 279 131.5t176 241.5q52 137 25 296t-130 265q-112 116 -273 162.5t-323 16.5q-11 -2 -18.5 4t-7.5 16v178q0 21 20 21h51h363h225v90v282h-137h-371h-379h-151v-196v-395v-205h2
q58 -78 168 -217q168 88 276 92q82 6 158 -25q79 -32 111 -94z" />
    <glyph glyph-name="six" unicode="6" horiz-adv-x="1472" 
d="M1364 987q94 -155 88 -344q-7 -194 -100 -336q-93 -144 -254 -225q-168 -82 -361 -82q-171 0 -307 57q-172 70 -274 201q-113 143 -131 324q-19 196 49 358q43 102 84 170q9 17 51 84q2 2 10 14q27 33 80.5 99.5t79.5 99.5q41 50 122 150.5t122 150.5q12 15 36.5 46
t36.5 46q7 7 11 15q6 6 32 6h332h258q13 0 17.5 -13t-3.5 -22q-13 -14 -37 -41.5t-36 -42.5q-42 -48 -125 -144.5t-125 -144.5l-123 -141q140 -12 260 -80q128 -75 207 -205zM256 1174q-46 -67 -94 -158q-44 -87 -64 -152q-50 -172 -16 -334q36 -173 160 -294
q121 -118 299 -164q87 -21 178.5 -23t180.5 15.5t172.5 58.5t148.5 102q123 114 165 287q44 188 -16 354q-66 167 -205 262q-144 97 -329 97q-14 0 -19 12.5t4 22.5q6 7 72 83q42 48 126 144.5t126 144.5q21 24 60.5 70.5t60.5 69.5h-277h-254q-16 -21 -48.5 -62t-49.5 -61
l-246 -306q-22 -29 -67 -85t-68 -84zM719 469q-88 7 -133 66q-55 64 -49 153q7 89 63 137q58 52 150 49q88 -3 137 -61q52 -58 49 -149q-3 -90 -55 -142q-53 -53 -144 -53h-18zM659 817q-67 -36 -79 -108q-15 -89 32 -144q20 -26 54 -43q28 -12 71 -12q67 0 105 33
q42 36 51 92q10 60 -13 113.5t-77 74.5q-77 25 -144 -6z" />
    <glyph glyph-name="seven" unicode="7" horiz-adv-x="1396" 
d="M1356 1808q8 0 14 -5.5t6 -14.5v-315v-60q0 -12 -4 -20q-3 -7 -10 -21.5t-10 -21.5q-91 -191 -109 -232q-28 -58 -82.5 -172.5t-81.5 -171.5q-15 -32 -170 -362q-23 -47 -68 -142.5t-67 -142.5q-9 -20 -27.5 -59t-27.5 -58q-3 -5 -8 -8q-2 -2 -9 -2h-8h-313h-264
q-11 0 -17 10.5t0 20.5l11 22q85 166 104 201q28 57 166 330q23 46 86 168.5t96 189.5q25 48 74.5 144.5t73.5 144.5q6 13 45 88h-101h-389h-225q-8 0 -14.5 5.5t-6.5 14.5v154v295q0 9 6.5 14.5t14.5 5.5h100h320h403h344h148zM1327 1473v286h-67h-312h-403h-348h-127v-114
v-277h118h390h225q11 0 16.5 -11t-0.5 -20q-4 -10 -12 -26q-40 -76 -100 -199q-71 -136 -168 -328q-30 -59 -91 -179t-92 -179q-25 -48 -74 -144.5t-73 -144.5q-25 -51 -45 -88h264h256q1 3 6.5 14.5t7.5 18.5q19 38 55 113.5t54 113.5q79 173 162 342q27 61 170 363
q90 192 135 286q17 34 53 113v60z" />
    <glyph glyph-name="eight" unicode="8" horiz-adv-x="1425" 
d="M4835 -10725q81 -140 73.5 -314.5t-105.5 -304.5q-97 -131 -254 -196.5t-334 -65.5q-77 0 -150 12q-188 32 -325 140q-133 105 -185 253q-57 159 -14 326q39 170 164 283q-73 95 -94 207q-26 134 10 251q50 173 199 279q146 102 342 115q174 10 331.5 -50.5t249.5 -193.5
q90 -134 90 -299q0 -172 -104 -307q63 -57 106 -135zM4338 -11549q177 27 303 115q132 92 184 231q60 154 21 314q-37 166 -170 280q-12 12 0 29q94 115 106 252q13 137 -43 254q-68 139 -209 213q-136 72 -315 72q-128 0 -244 -41.5t-197 -126.5q-121 -127 -124 -312
q-3 -179 108 -311q6 -6 6.5 -15t-6.5 -14q-73 -64 -119 -145q-82 -148 -63 -320q19 -158 121 -272q112 -128 286.5 -178.5t354.5 -24.5zM4301 -10797q88 -24 125 -86q48 -70 28 -160q-18 -71 -82 -115q-68 -45 -157 -45q-92 0 -154 45q-68 51 -82 115q-18 95 27 160
q29 45 81.5 70t106.5 26.5t107 -10.5zM4344 -11119q62 44 65 109q3 85 -51 131q-51 43 -143 43q-82 0 -135 -37q-53 -41 -56 -112q-3 -69 43 -115q49 -46 125 -53q88 -7 152 34zM4090 -10385q-52 43 -49 112q0 62 35 103q28 41 86 55q71 16 137.5 -12t87.5 -95
q12 -36 5 -77.5t-32 -69.5q-50 -55 -145 -55q-78 0 -125 39zM4215 -10158q-69 0 -105 -45q-12 -15 -20 -49q-4 -38 6 -64q12 -31 45.5 -45t71.5 -14q95 0 123 53q13 28 8 64t-25 59q-38 41 -104 41zM1331 881q81 -141 73 -315t-106 -304q-97 -130 -254 -196t-333 -66
q-77 0 -150 12q-188 32 -325 140q-133 104 -185 254q-56 159 -14 325q39 170 164 283q-75 97 -95 207q-25 133 11 252q50 173 198 278q146 102 342 115q174 10 332 -51t250 -193q90 -134 90 -299q0 -172 -104 -307q63 -57 106 -135zM834 57q177 27 303 115q132 92 184 231
q60 153 20 314q-37 166 -170 280q-12 12 0 29q95 116 107 252q13 137 -43 254q-68 139 -209 213q-136 72 -315 72q-128 0 -244 -41.5t-197 -126.5q-122 -128 -125 -312q-3 -178 109 -311q6 -6 6.5 -15t-6.5 -14q-73 -64 -119 -145q-82 -148 -63 -320q19 -158 121 -272
q112 -128 286.5 -178.5t354.5 -24.5zM797 809q88 -24 125 -86q48 -70 28 -160q-18 -70 -82 -114q-70 -46 -157 -46q-90 0 -154 46q-69 51 -82 114q-18 95 27 160q29 45 81.5 70t106.5 26.5t107 -10.5zM840 487q62 44 65 109q3 85 -51 131q-51 43 -143 43q-83 0 -136 -37
q-52 -40 -55 -112q-3 -69 43 -115q49 -46 125 -53q88 -7 152 34zM586 1221q-52 43 -49 112q0 64 34 103q28 41 86 55q71 16 138 -12t88 -95q12 -36 5 -77.5t-32 -69.5q-50 -55 -145 -55q-78 0 -125 39zM711 1448q-69 0 -105 -45q-12 -15 -20 -49q-4 -38 6 -64
q12 -31 45.5 -45t71.5 -14q94 0 122 53q14 28 9 64t-25 59q-38 41 -104 41z" />
    <glyph glyph-name="nine" unicode="9" horiz-adv-x="1474" 
d="M1411 1403q63 -161 33 -365q-22 -146 -133 -336q-35 -61 -60 -92l-18 -24q-15 -17 -43.5 -52t-42.5 -53q-41 -51 -124 -152.5t-124 -152.5q-22 -28 -67 -84.5t-68 -83.5l-4 -4q-8 -4 -12 -4h-19q-55 0 -166 1t-166 1q-172 0 -258 2q-13 0 -17.5 12t3.5 23q13 14 37 41.5
t37 40.5q42 48 126 144.5t126 144.5q21 23 62.5 70.5t61.5 70.5q-185 16 -317 119q-145 114 -203 278q-60 169 -16 365q39 175 162 301q126 127 309 176t369 18q191 -29 325 -135q141 -107 207 -270zM733 49q15 18 43 53t43 52q41 50 122 150.5t122 150.5q26 32 78.5 95.5
t77.5 94.5q3 4 11.5 19t12.5 20q39 65 49 84q56 102 76 164q62 184 25 358q-36 174 -160 295q-120 117 -299 164q-87 21 -178.5 22.5t-180.5 -15.5t-172.5 -57.5t-148.5 -101.5q-125 -119 -166 -288q-44 -189 16 -355q66 -167 205 -262q146 -94 328 -94q13 0 17.5 -13
t-3.5 -22q-64 -75 -73 -84q-42 -48 -126 -144.5t-126 -144.5q-41 -45 -123 -139h276q86 -2 254 -2zM938 1145q-3 -90 -57 -144q-55 -55 -144 -55q-12 0 -18 2q-89 7 -135 64q-51 66 -45 153q7 91 61 140q55 49 141 49q90 -3 142 -58q58 -67 55 -151zM844 1022q45 42 51 96
q7 70 -21 121q-36 55 -83 66q-82 22 -142 -15q-59 -38 -69 -110q-7 -96 36 -144q43 -49 121 -49q66 0 107 35z" />
    <glyph glyph-name="colon" unicode=":" horiz-adv-x="1085" 
d="M672 1049q20 0 20 -20.5t-20 -20.5h-10h-297q-9 0 -15 6t-6 14v10v297q0 9 6 15t15 6h10h297q8 0 14 -6t6 -15v-10v-297q0 -20 -20.5 -20t-20.5 20v10v297q3 -3 10.5 -10t10.5 -10h-10h-297l20 20v-10v-297q-3 3 -10 10.5t-10 10.5h10h297zM672 250q20 0 20 -20.5
t-20 -20.5h-10h-297q-8 0 -14.5 6.5t-6.5 13.5v11v297q0 7 6.5 13.5t14.5 6.5h10h297q9 0 14.5 -6t5.5 -14v-11v-297q0 -20 -20.5 -20t-20.5 20v11v297q4 -3 7.5 -6.5t7.5 -8t6 -6.5h-10h-297q5 4 12 12t8 9v-11v-297q-1 1 -8 9t-12 12h10h297z" />
    <glyph glyph-name="semicolon" unicode=";" horiz-adv-x="1126" 
d="M717 1190q20 0 20 -20.5t-20 -20.5h-10h-297q-8 0 -14.5 6.5t-6.5 13.5v13v295q0 9 6.5 14.5t14.5 5.5h12h295q20 0 20 -20v-11v-297q0 -19 -20.5 -19t-20.5 19v13v295q12 -9 21 -21h-10h-297q4 4 10.5 11t9.5 10v-11v-297q-10 14 -20 21h12h295zM383 233q-18 -11 -29 7
q-3 6 -1 15.5t9 12.5q30 12 60 27q26 11 39 27q14 17 18 49q3 -3 21 -27h-88q-9 0 -15 6.5t-6 14.5v10v295q0 8 6 14t15 6h10h295q7 0 13.5 -6t6.5 -14v-224q0 -147 -49 -231q-41 -71 -110 -111q-38 -22 -86 -41q-17 -7 -27 9q-19 28 -56 84.5t-55 83.5q-7 11 0 20.5t18 9.5
t19 -10q70 -111 109 -168q-5 1 -14.5 3t-14.5 3q5 3 27.5 13t31 14.5t25 13.5t28.5 17.5t23 19.5q73 67 86 180q4 38 4 172v142q2 -2 6 -6.5t7.5 -8t7.5 -6.5h-10h-295q1 1 8 9t12 12v-11v-294l-20 20h88q10 0 16 -8t4 -17q-11 -46 -28 -65q-15 -21 -48 -35q-26 -13 -61 -27
z" />
    <glyph glyph-name="less" unicode="&#x3c;" 
 />
    <glyph glyph-name="equal" unicode="=" horiz-adv-x="1452" 
d="M1391 934q20 0 20 -20.5t-20 -20.5h-54h-286h-400h-354h-154q-8 0 -14 5.5t-6 14.5v45v306q0 8 6.5 14t13.5 6h54h286h400h354h154q7 0 13.5 -6t6.5 -14v-45v-306q0 -20 -20.5 -20t-20.5 20v45v306l21 -21h-54h-286h-400h-354h-154l21 21v-45v-306l-21 21h54h286h400h354
h154zM1391 455q20 0 20 -20.5t-20 -20.5h-54h-286h-400h-354h-154q-8 0 -14 5.5t-6 14.5v45v305q0 8 6.5 14.5t13.5 6.5h54h286h400h354h154q7 0 13.5 -6.5t6.5 -14.5v-45v-305q0 -20 -20.5 -20t-20.5 20v45v305q3 -3 10.5 -10t10.5 -10h-54h-286h-400h-354h-154
q3 3 10.5 10t10.5 10v-45v-305q-2 2 -6.5 6t-8 7.5t-6.5 7.5h54h286h400h354h154z" />
    <glyph glyph-name="greater" unicode="&#x3e;" 
 />
    <glyph glyph-name="question" unicode="?" horiz-adv-x="1296" 
d="M426 -2q0 -19 -20.5 -19t-20.5 19v80v305q0 20 21 20h69h305q21 0 21 -20v-78v-307q0 -8 -6 -14.5t-15 -6.5h-69h-305q-20 0 -20 21.5t20 21.5h69h305q-6 -8 -20 -22v80v305q10 -7 20 -21h-69h-305q3 4 20 21v-78v-307zM430 481q0 -20 -20.5 -20t-20.5 20v60
q0 176 35 278q43 127 184 260l15.5 15.5t19.5 19t16 16.5q49 43 64 64q31 44 35 76q6 36 -8 76q-12 37 -35 53q-16 12 -56 20q-49 7 -84 2q-41 -3 -69 -20q-25 -17 -41 -49l-3 -6l1 2q-1 -2 -2 -5.5t-2 -5.5q-2 -6 -6 -22q-15 -58 -19 -197q0 -8 -5.5 -14t-14.5 -6h-45h-308
q-7 0 -13.5 6t-6.5 14q0 139 10 209q25 160 123 279q91 113 246 163q158 47 328 15q162 -29 270 -137q116 -113 141 -271q29 -195 -55 -321l-18 -26t-21 -27.5t-19.5 -23.5t-23 -25.5t-21.5 -22.5t-25 -24.5t-22.5 -21.5t-25.5 -24t-23 -22q-63 -63 -88 -101q-2 -3 -5 -8
t-5 -8q0 -1 -1 -3t-1 -3l-2 -2q-8 -29 -10 -41q-9 -46 -9 -191q0 -9 -6 -14.5t-14 -5.5h-47h-307q-20 0 -20 20.5t20 20.5h47h307l-21 -21q0 120 5 164q3 47 20 88q10 22 43 64q17 19 36 39t46.5 46.5t38.5 37.5q59 56 102 110q46 54 64 103q29 75 26 163q-3 166 -98 281
q-96 119 -246 158q-157 45 -319 2q-147 -35 -246 -146q-97 -109 -123 -270q-10 -55 -10 -203q-9 12 -21 21h48h305l-21 -21q1 16 2 48t2 48q4 83 26 143.5t81 88.5q68 31 170 12q40 -8 61 -22q25 -19 45 -58q41 -87 0 -168q-16 -33 -71 -92q-112 -104 -160 -162
q-54 -68 -78 -122q-26 -70 -35 -140q-6 -53 -6 -213z" />
    <glyph glyph-name="at" unicode="@" horiz-adv-x="1961" 
d="M1100 -201q16 0 22 -12.5t0 -25.5t-22 -13q-262 0 -469 76q-176 66 -295 174q-137 121 -205 274q-74 167 -86.5 358t35.5 369q44 169 134.5 316t219.5 248q122 99 283 153q156 53 342 56q182 3 351.5 -50.5t297.5 -165.5q131 -114 205.5 -274.5t77.5 -333.5
q3 -171 -60 -321q-65 -160 -190 -285q-17 40 -19 45h33h305q15 0 22 -13.5t1 -25.5l-2 -2q-6 -12 -31.5 -66t-42.5 -83q-84 -143 -244 -256q-139 -102 -309 -150q-160 -43 -354 -43q-16 0 -22 13t0 25.5t22 12.5q201 0 348 43q174 54 301 150q74 55 131 121q54 57 96 133
q7 14 19.5 39.5t23 47t19.5 40.5q4 -6 11 -18.5t11 -18.5h-32h-306q-17 0 -23 15.5t5 27.5q110 110 168 235q69 151 68 323t-72 323q-74 154 -193 256q-113 102 -278 155q-162 52 -353 49q-182 -6 -333 -59q-146 -53 -265.5 -154.5t-199.5 -238.5q-92 -158 -130 -339
t-16 -362q22 -177 105 -329q85 -148 221 -248q261 -191 674 -191zM1071 1470q17 0 23.5 -13t0 -25.5t-23.5 -12.5q-108 0 -213 -30q-165 -53 -272 -166q-109 -112 -160 -287q-49 -166 -20 -352q31 -175 126 -281q98 -106 265 -158q161 -51 360 -41q184 7 307 70
q88 45 140 92q40 35 77 88q6 -5 41 -30q-6 -5 -18 -15.5t-18 -15.5q-138 -119 -302 -139q-98 -10 -170 8q-85 22 -137 92l16 -4t19 -4q-77 -58 -162 -82q-90 -23 -181 -5t-165 72q-135 103 -182 283q-50 183 8 369q58 190 174 315q128 138 293 178q91 21 183 2t165 -75
q-6 -3 -18.5 -8.5t-18.5 -8.5q2 9 6.5 27.5t6.5 27.5q1 7 8.5 13t15.5 6h205q-10 -40 -12 -47q-160 106 -367 106q-16 0 -22 12.5t0 25.5t22 13q222 0 393 -114q15 -10 10.5 -28.5t-24.5 -18.5h-205q4 3 12.5 9t12.5 9q-2 -9 -6.5 -26.5t-6.5 -26.5q-2 -11 -14.5 -17
t-21.5 0q-32 24 -52 33q-79 45 -168 45q-82 3 -163 -32q-153 -66 -248 -203q-70 -101 -106.5 -214.5t-31.5 -237.5t60 -230q88 -159 242 -203q84 -25 168 -4q75 15 163 78q17 14 35 -8q30 -40 80.5 -60.5t101.5 -20t103 8.5q152 29 281 151q20 16 36 0q13 -18 2 -32
q-32 -50 -73 -88q-59 -56 -129 -93q-138 -76 -314 -92q-198 -16 -370 25q-187 46 -299 145q-116 102 -164 267q-49 174 -21 360q28 182 129 328q96 135 242 209q161 81 346 81zM1008 1083q16 0 22 -12.5t0 -25.5t-22 -13q-56 0 -107 -55q-53 -62 -82 -143q-31 -95 -31 -172
q0 -34 13 -78q10 -33 28 -54q13 -10 29 -20q5 -3 2 -2q4 0 6 -2q7 0 8 -1q0 1 -2 1q32 -3 62 12q73 37 118 114.5t60 168.5q15 100 -10 164q-6 12 -15 24q-2 3 0 2l-2 2q-1 1 -2 3t-2 3q-3 2 -14 13q-26 20 -59 20q-16 0 -22 13t0 25.5t22 12.5q78 0 125 -67q32 -44 36 -131
q3 -100 -32 -193q-32 -88 -90 -149q-73 -80 -154 -88q-66 -8 -119 63q-37 57 -37 154q0 78 35 178q32 92 86 154q68 79 150 79zM1399 610q3 11 13 16.5t20 2.5q9 -3 14 -12.5t2 -18.5q-3 -19 -10.5 -53t-10.5 -49l-30 30q-4 -1 -1 0q6 3 7 4l10 5q4 3 8 5.5t9.5 5.5t9.5 5
q31 23 49 39q61 57 99 136t46 163q16 191 -94 328q7 2 21.5 6t21.5 6q-4 -26 -8 -41q-13 -59 -37.5 -174.5t-36.5 -173.5q-9 -40 -26.5 -121t-26.5 -121q-1 -10 -11.5 -15.5t-19.5 -2.5q-22 6 -18 30q3 10 8 41q22 96 76 348q8 40 25.5 121t25.5 121q3 14 18.5 18t24.5 -6
q71 -90 94 -190q48 -191 -41 -367q-41 -80 -96 -135q-71 -63 -125 -84q-13 -6 -23.5 6t-7.5 25q3 19 10.5 53t10.5 49z" />
    <glyph glyph-name="A" unicode="A" horiz-adv-x="1730" 
d="M1260 10q4 -12 -4.5 -19.5t-19.5 -5t-15 14.5q-3 11 -10.5 34t-10.5 34q-14 44 -43.5 142t-46.5 150q3 -2 10 -7t10 -7h-245h-279l21 14l-23 -69q-16 -48 -46 -145.5t-46 -145.5q-4 -16 -18 -16h-183h-291q-9 0 -16 8.5t-4 17.5q4 10 20 58q11 30 39.5 108t44.5 121
q21 56 62 168.5t61 169.5q29 80 140 383q21 60 64.5 178.5t64.5 177.5q18 47 50 135.5t46 126.5q7 22 37 103q3 16 20 16h137h299q15 0 21 -16q16 -48 20 -58q62 -175 82 -227q20 -56 61 -168.5t62 -169.5q18 -50 65 -180.5t72 -202.5q21 -60 64.5 -178t64.5 -178
q17 -44 49 -132l48 -132q30 -81 37 -103q3 -9 -4 -17.5t-17 -8.5h-178h-291q-20 0 -20 21.5t20 21.5h178h291q-9 -15 -18 -27q-12 27 -21 57q-15 38 -42 114t-42 114q-21 57 -60.5 169.5t-60.5 168.5q-14 39 -63 174.5t-76 208.5q-21 60 -64 178t-65 178q-46 132 -96 264
q-6 18 -18.5 52t-18.5 51q3 -2 10 -7.5t10 -7.5h-139h-297q3 2 9.5 7.5t9.5 7.5q-3 -9 -10.5 -29t-10.5 -29q-16 -43 -44.5 -121t-39.5 -108q-21 -57 -62 -169.5t-61 -168.5q-22 -63 -68 -190t-69 -191q-78 -215 -131 -356q-15 -44 -46.5 -132.5t-47.5 -132.5
q-11 -32 -39 -102q-14 19 -19 27h183h291q-3 -3 -10.5 -8.5t-10.5 -8.5q4 11 11.5 35t11.5 35q15 49 46 146.5t46 146.5q4 14 18 14h246h278q16 0 19 -14q2 -8 9.5 -32.5t12.5 -37.5q9 -29 40.5 -133t48.5 -160zM1085 694q3 -7 -1.5 -15t-12.5 -11q-17 -3 -24 14
q-39 107 -72 190q-72 197 -101 271h41q-59 -155 -75 -193q-20 -55 -103 -268q-9 15 -18 27h43h305q20 0 20 -20.5t-20 -20.5h-43h-305q-9 0 -16.5 8.5t-4.5 17.5q20 50 74 193q39 99 102 266q6 14 20.5 14.5t20.5 -14.5q11 -32 35 -95t35 -95q24 -62 100 -269z" />
    <glyph glyph-name="B" unicode="B" horiz-adv-x="1452" 
d="M905 23q20 0 20 -20.5t-20 -20.5h-188h-393h-218q-8 0 -14 6t-6 14v16v189v336v403v387v291v117q0 7 6 13.5t14 6.5q59 -2 175 -2h290h273q184 -4 305 -73q81 -51 125 -117q46 -67 59 -156q29 -174 -41 -323q-27 -55 -61 -95q-22 -25 -82 -73q0 8 -4 32q55 -24 74 -36
q57 -32 104 -89q91 -106 107 -264q17 -175 -46 -309q-35 -74 -96 -131t-137 -90q-125 -53 -246 -53q-20 0 -20 20.5t20 20.5q55 0 111 12q186 38 284 162q93 118 93 303q-3 146 -62 252q-43 69 -104 112q-43 30 -103 54q-8 5 -9.5 15.5t5.5 16.5q41 32 54 45q33 29 53 64
q76 118 73 276q-4 105 -34 164q-37 79 -101 125q-114 83 -297 94h-127h-143q-328 0 -492 2q12 9 21 21v-19v-188v-336v-401v-387v-293v-115l-21 21h191h393h215zM555 395q-20 0 -20 20.5t20 20.5h123h88h22h7q1 0 3 1t3 1q8 0 16 4q36 10 61.5 32t32.5 56q19 78 -26 115
q-10 9 -21.5 15.5t-25.5 10.5t-24 6.5t-28 3.5t-25.5 1h-28.5h-25h-152q2 2 5.5 6t7 7.5t7.5 6.5v-2v-284q0 -13 -10 -18t-20 0t-10 18v2v284q0 8 5.5 14.5t14.5 6.5h172h57q99 -8 142 -61q47 -59 26 -140q-18 -76 -94 -108q-40 -19 -80 -19h-78h-145zM551 1044
q-19 0 -19 20.5t19 20.5h8h170h21h2h2q1 0 3 1t3 1q18 3 35 13q23 11 36 30q19 32 19 66q0 35 -16 59q-16 22 -54 33q-27 8 -75 8h-154q5 4 12 12t8 9v-252q0 -20 -20.5 -20t-20.5 20v252q0 7 6.5 13.5t14.5 6.5h43h96q54 0 64 -2q99 -12 125 -78q15 -33 11.5 -75t-24.5 -72
q-38 -56 -112 -66h-49h-154z" />
    <glyph glyph-name="C" unicode="C" horiz-adv-x="1546" 
d="M948 -94q20 0 20 -20.5t-20 -20.5q-255 3 -448 84q-167 70 -275 184q-97 100 -153 240q-58 136 -68 305q-13 201 25 356q45 180 139 305q102 137 252 228q149 88 319 120.5t340 6.5q148 -21 273 -105q102 -68 229 -209q10 -11 0 -28q-47 -55 -74 -88q-33 -39 -97 -116
t-97 -116q-5 -6 -14 -5.5t-15 5.5q-57 57 -76 70q-74 57 -149 82q-75 27 -159.5 22.5t-154.5 -43.5q-70 -38 -118.5 -102t-69.5 -141q-22 -70 -16.5 -148t29 -148.5t72 -130.5t114.5 -94q69 -34 155 -36.5t158 22.5q78 21 141 72q36 29 74 73q6 6 15 6t14 -6q23 -23 63 -69
q35 -38 205 -228q11 -11 2 -24q-1 -2 -9.5 -16t-14.5 -21q-97 -142 -252 -221q-161 -83 -359 -86q-20 0 -20 20.5t20 20.5q26 0 80 4q188 19 334 123q67 45 131 119q36 45 55 77q1 -4 2 -12t2 -12q-48 52 -63 71q-98 106 -205 226h29q-20 -24 -35 -39q-39 -43 -86 -68
q-87 -53 -203 -69q-179 -20 -301 67q-119 90 -164 236q-27 78 -26.5 168t30.5 168q28 78 83 141.5t128 99.5q157 75 328 19q97 -34 162 -88q31 -23 84 -76h-29q13 15 37.5 45t36.5 45q33 38 97 114.5t97 114.5v-28q-123 134 -213 196q-130 87 -268 107q-161 24 -328 -8
q-171 -35 -317.5 -125.5t-239.5 -227.5q-183 -270 -137 -659q16 -160 78 -289q64 -134 170 -227q239 -209 651 -213z" />
    <glyph glyph-name="D" unicode="D" horiz-adv-x="1619" 
d="M78 2q0 -20 -20.5 -20t-20.5 20v18v195v336v403v387v291v115q0 7 6.5 13.5t13.5 6.5h217h361q92 0 139 -4q195 -16 348 -88q157 -71 273 -202q110 -128 166 -304q50 -172 41 -362q-10 -178 -70 -318q-61 -147 -164 -253q-108 -108 -242 -166q-136 -62 -309 -82
q-79 -6 -160 -6h-348h-252q-20 0 -20 20.5t20 20.5h170h379h82q170 0 309 43q146 41 265 131q117 88 190 219q72 127 98 293q28 179 -6 352q-32 179 -131 319q-97 142 -244 226q-153 86 -331 110q-76 10 -185 10h-342h-254q2 2 6.5 6t8 7.5t6.5 7.5v-18v-195v-338v-401v-387
v-291v-115zM659 506q-20 0 -20 20.5t20 20.5q199 0 314 104q64 57 86 125q24 72 12 148q-15 76 -65.5 137t-124.5 96q-69 33 -158 39h-70h-151q1 1 8 9t12 12v-78v-375v-238q-4 4 -10.5 11t-9.5 10h157q20 0 20 -20.5t-20 -20.5h-157q-9 0 -15 6t-6 14v78v375v238q0 8 6 14
t15 6h186q164 0 281 -86q68 -51 107.5 -123.5t39.5 -155.5q0 -81 -38 -152.5t-105 -119.5q-122 -94 -314 -94z" />
    <glyph glyph-name="E" unicode="E" horiz-adv-x="1249" 
d="M78 10q0 -20 -20.5 -20t-20.5 20v15v184v336v401v387v293v115q0 20 20 20h4h207h385h371h166q8 0 14 -5.5t6 -14.5v-62v-307q0 -9 -6 -14.5t-14 -5.5h-64h-368h-242q3 3 10 9.5t11 10.5v-45v-307q-4 4 -11 10.5t-10 9.5h234h280q21 0 21 -20v-6v-295q0 -8 -6 -14.5
t-15 -6.5h-235h-279q9 12 21 21v-35v-305q-4 3 -21 20h64h370h242q8 0 14 -5.5t6 -14.5v-64v-305q0 -9 -6 -14.5t-14 -5.5h-6h-211h-383h-371h-164q-20 0 -20 20.5t20 20.5h4h211h385h369h166l-21 -21v62v307q2 -2 6 -6.5t7.5 -8t7.5 -6.5h-66h-368h-242q-9 0 -14.5 6.5
t-5.5 14.5v35v305q0 20 20 20h234h280l-20 -20v8v293q10 -7 20 -21h-235h-279q-9 0 -14.5 6.5t-5.5 14.5v45v307q0 8 5.5 14.5t14.5 6.5h64h368h242l-21 -21v62v307l21 -21h-4h-209h-385h-371h-164q9 12 21 21v-15v-186v-334v-401v-387v-293v-115z" />
    <glyph glyph-name="F" unicode="F" horiz-adv-x="1251" 
d="M121 10q0 -20 -20.5 -20t-20.5 20v15v184v336v401v387v293v115q0 20 20 20h17h239h392h364h162q8 0 14 -5.5t6 -14.5v-113v-303q0 -7 -6 -13.5t-14 -6.5h-127h-387h-228q4 4 11 10.5t10 9.5v-219q-7 10 -21 20h15h330h258q8 0 14 -5.5t6 -14.5v-117v-301q0 -9 -6 -14.5
t-14 -5.5h-15h-327h-261q4 3 21 20v-70v-368v-240q0 -20 -21 -20h-135h-297q-20 0 -20 20.5t20 20.5h133h299q-10 -14 -20 -21v68v368v242q0 8 6.5 14.5t13.5 6.5h15h330h258l-21 -21v117v301l21 -21h-15h-327h-261q-7 0 -13.5 6.5t-6.5 14.5v219q0 9 6 15t14 6h127h388h227
q-12 -9 -21 -21v115v301l21 -21h-17h-241h-391h-365h-160q9 12 21 21v-15v-186v-334v-401v-387v-293v-115z" />
    <glyph glyph-name="G" unicode="G" horiz-adv-x="1630" 
d="M881 -51q20 0 20 -20.5t-20 -20.5q-203 0 -375 65q-170 64 -293 181q-108 105 -170 241q-64 140 -80 307q-19 187 25 363q43 182 145 319q93 128 227 209q133 80 287 111q186 32 346 10q185 -27 353 -121q124 -68 237 -190q13 -18 0 -31q-33 -27 -88 -74
q-82 -66 -233 -194q-13 -10 -29 0q-67 64 -137 98q-69 37 -150 49q-88 14 -158 0q-76 -15 -140 -59t-105 -109q-80 -131 -70 -305q10 -179 113 -293q104 -114 262 -123q86 -6 172 15q52 13 121 41q-2 -3 -7.5 -9.5t-7.5 -9.5v160q0 7 7 14t14 7q-9 -12 -21 -21v68v307
q0 7 6.5 13.5t14.5 6.5h125h299q9 0 14.5 -6t5.5 -14v-209v-393v-148v-39v-8q0 -13 -18 -24q-124 -92 -313 -148q-189 -57 -379 -57q-20 0 -20 20.5t20 20.5h10q197 3 377 61q175 56 293 144q-2 -3 -5.5 -9.5t-5.5 -9.5v189v393v217l21 -21h-123h-301q10 7 20 21v-70v-305
q0 -20 -20 -20q2 2 6 5.5t7.5 7t6.5 7.5v-160q0 -13 -14 -20q-86 -33 -111 -39q-76 -21 -157 -21q-177 0 -291 103q-121 104 -154 276q-31 186 31 332q30 73 83 132.5t122 94.5q147 69 321 25q84 -19 152 -61q51 -31 113 -86h-29q16 13 45.5 37t44.5 36q27 22 231 195v-31
q-74 83 -157 141q-146 101 -330 146q-158 37 -350 14q-156 -21 -291 -90.5t-231 -185.5q-111 -133 -158.5 -306.5t-34.5 -357.5q9 -157 68.5 -298.5t165.5 -246.5q125 -120 292.5 -179.5t352.5 -59.5z" />
    <glyph glyph-name="H" unicode="H" horiz-adv-x="1560" 
d="M1073 12q0 -20 -20.5 -20t-20.5 20v13v327v258q14 -10 21 -20h-273h-272l20 20v-12v-328v-258q0 -9 -5.5 -15.5t-14.5 -6.5h-158h-295q-8 0 -14 6.5t-6 15.5v13v184v334v401v387v293v117q0 7 6.5 13.5t13.5 6.5h158h295q9 0 14.5 -6t5.5 -14v-53v-363v-246q-10 14 -20 21
h272h273l-21 -21v54v362v246q0 7 6.5 13.5t14.5 6.5h157h295q9 0 15 -6t6 -14v-15v-184v-334v-401v-387v-293v-115q0 -9 -6 -15.5t-15 -6.5h-157h-295q-20 0 -20 21.5t20 21.5h157h295q-10 -14 -20 -21v13v184v334v401v387v293v117q4 -4 10.5 -11t9.5 -10h-157h-295
q10 7 20 21v-53v-363v-246q0 -8 -5.5 -14t-14.5 -6h-273h-272q-8 0 -14.5 6.5t-6.5 13.5v54v362v246l21 -21h-158h-295q12 9 21 21v-15v-184v-334v-401v-387v-293v-115l-21 21h158h295q-9 -12 -21 -21v13v327v258q0 9 6.5 15t14.5 6h272h273q20 0 20 -21v-12v-328v-258z" />
    <glyph glyph-name="I" unicode="I" horiz-adv-x="612" 
d="M82 10q0 -20 -20.5 -20t-20.5 20v15v186v336v401v387v293v115q0 9 6 14.5t14 5.5h203h287q20 0 20 -20v-14v-187v-336v-401v-387v-293v-115q0 -20 -20 -20h-203h-287q-20 0 -20 20.5t20 20.5h203h287q-9 -12 -21 -21v15v186v336v401v387v293v115q4 -3 7.5 -6.5t7.5 -8
t6 -6.5h-203h-287l21 21v-14v-187v-336v-401v-387v-293v-115z" />
    <glyph glyph-name="J" unicode="J" horiz-adv-x="1095" 
d="M506 10q19 0 19 -20.5t-19 -20.5h-4q-161 0 -301 64q-131 64 -221 180q-14 15 0 29q57 66 71 82q103 121 199 229q6 7 16 5.5t15 -9.5q64 -83 129 -103q78 -20 116 15q21 21 29 43q11 32 14 69q2 16 2 101v364v244q4 -5 12 -12t9 -8h-70q-51 1 -153.5 2t-153.5 2
q-8 0 -14 5.5t-6 14.5q0 20 1 60t1 59q0 50 1 150.5t1 150.5q0 9 6 14.5t14 5.5h2h240h393h209q7 0 13.5 -6t6.5 -14v-68v-321v-399v-269q0 -270 -86 -424q-71 -126 -190 -190q-132 -66 -301 -66q-20 0 -20 20.5t20 20.5q187 0 311 78q215 138 223 508q2 63 2 188v373v377
v172q17 -17 21 -20h-2h-240h-393h-209q4 5 12 12t9 8v-119q-1 -50 -2 -150.5t-2 -150.5q-2 2 -6.5 6t-8 7.5t-6.5 7.5q13 0 36 -1t34 -1q51 0 153.5 -1t153.5 -1q9 0 14.5 -6.5t5.5 -14.5v-47v-358v-261q0 -36 -5 -68t-17.5 -65t-38.5 -55t-62 -27q-68 -9 -131 23
q-56 30 -112 104q5 -1 16.5 -2t16.5 -2q-12 -13 -36 -40.5t-36 -41.5q-34 -39 -199 -229v29q88 -114 213 -172q123 -60 285 -60z" />
    <glyph glyph-name="K" unicode="K" horiz-adv-x="1587" 
d="M987 18q6 -12 -1 -22t-17 -10t-17 10q-51 92 -80 143q-14 26 -188 344q-18 33 -52 97.5t-52 97.5h34q-10 -20 -30.5 -58t-30.5 -57q0 2 1 5t1 5v-2v-297v-266q0 -9 -6 -15.5t-14 -6.5h-211h-285q-8 0 -14.5 6.5t-6.5 15.5v17v188v338v401v387v291v115q0 9 6.5 14.5
t14.5 5.5h211h285q8 0 14 -5.5t6 -14.5v-6v-314v-264q-23 8 -39 10q16 22 45 66.5t45 67.5q36 53 108.5 160.5t108.5 160.5q12 18 36.5 55t37.5 56l12 18q7 10 33 10h326h260q13 0 17.5 -11.5t-3.5 -22.5q-22 -26 -31 -39q-53 -66 -198 -250q-50 -62 -242 -307
q-50 -60 -119 -150q1 4 2 12.5t2 12.5q4 -8 7 -11q74 -123 122 -200q56 -90 205 -332q36 -60 105.5 -170.5t87.5 -140.5q10 -16 38.5 -64t45.5 -74q6 -10 0 -21t-17 -11h-6h-311h-264q-20 0 -20 21.5t20 21.5h6h309h266q-9 -18 -18 -33q-4 8 -8 12q-20 34 -61 100.5
t-62 100.5q-34 56 -102.5 166.5t-102.5 165.5q-32 52 -95.5 155.5t-94.5 155.5q-14 22 -42.5 68.5t-43.5 68.5q-7 14 4 25q15 21 30 39q165 210 199 252q100 127 242 305q71 93 118 149q10 -25 15 -35h-15h-325h-260q15 10 18 11q-33 -45 -51 -74q-53 -80 -211 -315
q-45 -63 -131 -195q-9 -12 -24 -8.5t-15 18.5v8v314v262l21 -21h-211h-285q3 4 20 21v-16v-191v-336v-401v-387v-291v-115q-17 17 -20 21h211h285l-21 -21v101v376v88q0 5 10 25q2 4 10 17.5t11 21.5q6 10 17.5 30.5t17.5 30.5q4 9 16 9t18 -9q8 -15 35 -65.5t43 -77.5
q31 -57 94 -171.5t95 -172.5q18 -32 53 -96.5t53 -96.5z" />
    <glyph glyph-name="L" unicode="L" horiz-adv-x="1239" 
d="M59 6q0 -20 -20.5 -20t-20.5 20v17v188v338v401v387v291v115q0 20 21 20h233h281q20 0 20 -20v-62v-295v-401v-352v-152q-1 1 -8 9t-12 12h43h356h248q9 0 15 -6.5t6 -14.5v-186v-289q0 -9 -6 -15.5t-15 -6.5h-12h-232h-389h-366h-162q-20 0 -20 21.5t20 21.5h12h232h389
h366h162q-10 -14 -20 -21v184v291l20 -20h-43h-354h-250q-8 0 -14.5 5.5t-6.5 14.5v64v295v399v352v152q12 -9 21 -21h-234h-280q3 4 20 21v-17v-190v-336v-401v-387v-291v-115z" />
    <glyph glyph-name="M" unicode="M" horiz-adv-x="1992" 
d="M1505 12q0 -20 -20.5 -20t-20.5 20v2v236v395v209q18 -6 39 -12q-13 -26 -36.5 -77.5t-34.5 -74.5q-28 -59 -83.5 -176.5t-82.5 -177.5q-15 -33 -46 -99.5t-46 -99.5q-3 -10 -17 -10h-22h-301q-12 0 -19 10q-5 10 -30 65t-40 85q-16 36 -163 354q-16 34 -47 100.5
t-46 100.5q7 2 20 5t19 5v-2v-234v-395v-209q0 -8 -6 -14t-14 -6h-178h-291q-9 0 -15 6t-6 14v13v180v332v401v389v293v117q0 8 6 14t15 6h12h324h260q11 0 18 -10q0 -2 4 -10q6 -14 109 -242q77 -167 164 -358q15 -30 42.5 -92.5t41.5 -92.5h-35q0 5 4 9q18 41 55 121.5
t56 121.5q33 70 94 205.5t69 153.5q15 30 42.5 92t41.5 92q7 10 19 10h10h322h262q8 0 14 -6.5t6 -13.5v-13v-180v-332v-401v-389v-293v-117q0 -8 -6 -14t-14 -6h-176h-293q-20 0 -20 20.5t20 20.5h176h293q-12 -9 -21 -21v13v180v332v401v389v293v117q9 -12 21 -21h-12
h-322h-260l16 8l-4 -8q-18 -40 -54.5 -120.5t-55.5 -120.5q-35 -80 -164 -359q-14 -30 -42 -92t-42 -92q-5 -10 -17.5 -10t-17.5 10q-4 4 -4 8q-19 40 -56 121t-55 121q-39 87 -164 358q-47 106 -84 184q3 -1 9.5 -4t9.5 -4h-12h-324h-260q17 17 20 21v-13v-180v-332v-401
v-389v-293v-117q-3 4 -20 21h176h293q-12 -9 -21 -21v2v236v393v209q0 14 15.5 18.5t21.5 -8.5q11 -25 34.5 -75t35.5 -74q160 -347 164 -355q62 -136 94 -200q-3 2 -9 5t-9 5h20h303q-3 -2 -9 -5t-9 -5q11 26 34 76t35 75q51 111 166 355q15 34 46 100t46 100
q8 13 23.5 8.5t15.5 -18.5v-2v-236v-395v-209z" />
    <glyph glyph-name="N" unicode="N" horiz-adv-x="1699" 
d="M1231 16q5 -6 3 -14.5t-9 -13.5q-8 -4 -16 -1.5t-13 9.5q-1 1 -3 4t-3 4q-77 99 -139 184q-47 59 -131.5 171.5t-104.5 138.5q-37 49 -111.5 146.5t-111.5 146.5q-17 21 -49 64t-49 65q14 2 38 10v-33v-305v-391v-195q0 -8 -6 -14t-14 -6h-172h-293q-9 0 -14.5 6t-5.5 14
v14v187v336v401v387v293v115q0 20 20 20h275h137q14 0 22 -10q0 -2 2 -2q2 -3 6.5 -9t6.5 -9q87 -111 155 -205q40 -52 120 -157t120 -157q42 -54 118.5 -154t100.5 -132q17 -21 48.5 -63t47.5 -62q-27 -9 -39 -11v50v321v389v191q0 9 6.5 14.5t14.5 5.5h174h291
q20 0 20 -20v-15v-186v-336v-401v-387v-293v-115q0 -8 -5.5 -14t-14.5 -6h-142h-297q-20 0 -20 20.5t20 20.5h142h297q-2 -2 -6 -6.5t-7.5 -8t-7.5 -6.5v14v187v336v401v387v293v115q12 -9 21 -21h-172h-293q4 4 10.5 11t9.5 10v-49v-322v-391v-189q0 -16 -14 -20
q-16 -3 -23 10q-11 11 -16 21q-25 34 -77.5 101t-78.5 101q-40 52 -119.5 157t-119.5 157q-136 181 -219 289q-56 74 -97 125q3 -2 9.5 -5.5t9.5 -5.5h-115h-301q9 12 21 21v-15v-186v-336v-401v-387v-293v-115l-21 21h172h293q-3 -3 -10 -10.5t-10 -10.5v33v305v391v195
q0 14 14 18q11 5 24 -8q1 -2 3.5 -5t3.5 -5q23 -30 69.5 -90.5t69.5 -91.5q105 -140 235 -310q37 -49 111 -146.5t111 -146.5q17 -22 49 -65t49 -64z" />
    <glyph glyph-name="O" unicode="O" horiz-adv-x="1822" 
d="M891 20q13 0 18 -10t0 -20t-18 -10q-197 0 -361 67q-163 66 -284 193q-122 127 -184 297t-62 356q2 187 63 358t183 299q119 125 284 193q168 67 361 67q199 0 360 -67q167 -69 285 -193q122 -128 184 -299.5t62 -357.5q-2 -186 -63 -356.5t-183 -296.5
q-121 -127 -283 -193q-164 -67 -362 -67q-13 0 -18 10t0 20t18 10q294 0 510 156q139 99 224.5 252t107.5 330q23 185 -16.5 364.5t-143.5 321.5q-101 136 -252 221q-154 84 -338 100q-186 16 -361 -34.5t-305 -167.5q-128 -116 -196 -273q-72 -162 -78 -350
q-6 -186 47 -357.5t170 -299.5q113 -125 275 -195q171 -68 356 -68zM879 1303q20 0 20 -20.5t-20 -20.5q-100 0 -179 -52q-78 -52 -120 -137q-35 -71 -40.5 -154.5t16 -159t75 -138.5t129.5 -91q71 -27 151.5 -19.5t145.5 48.5q66 42 107.5 111t52.5 149q12 82 -6 163.5
t-66 145.5q-46 63 -117 98.5t-149 35.5q-20 0 -20 20.5t20 20.5q143 0 251 -97q103 -95 125 -239q14 -87 -1 -173t-60 -155q-45 -70 -113 -114t-149 -54q-83 -9 -162 14t-139 78q-61 54 -95.5 131.5t-39.5 163.5q-10 185 100 313q52 63 126.5 97.5t156.5 34.5z" />
    <glyph glyph-name="P" unicode="P" horiz-adv-x="1372" 
d="M61 4q0 -20 -20.5 -20t-20.5 20v19v190v338v401v387v291v115q0 20 21 20h203h372h89q205 0 346 -73q147 -76 221 -219q71 -134 78 -314q10 -200 -70 -346q-77 -146 -242 -225q-160 -71 -350 -74q-94 -4 -139 -6l20 20v-249v-277q0 -8 -5.5 -14t-14.5 -6h-225
q-94 2 -283 2q-19 0 -19 20.5t19 20.5q151 0 225 -2h283l-21 -21v250v276q0 9 6 15t15 6q13 0 54 1.5t58 2t52.5 3t57.5 5t52 7t56 10.5q185 42 290 153q117 120 136 297q20 169 -28 328t-171 252q-122 95 -313 112q-49 4 -150 4h-354h-248q10 14 20 21v-16v-193v-336v-403
v-387v-291v-115zM618 1346q20 0 20 -20.5t-20 -20.5t-58 -1t-58 -1l20 20q0 -53 2 -78q1 -51 3 -153.5t3 -153.5q-9 11 -20 20q125 5 149 9q81 7 123 55q44 50 37 129q-7 80 -61 117q-52 37 -140 37q-20 0 -20 20.5t20 20.5q104 0 170 -50q33 -26 51.5 -65.5t20.5 -83.5
q3 -91 -41 -146q-42 -53 -125 -71q-21 -4 -46.5 -6.5t-43.5 -3t-49.5 -1.5t-44.5 -1q-8 0 -14.5 6.5t-6.5 13.5q0 53 -2 78q-1 51 -3 153.5t-3 153.5q0 17 21 20q20 0 58 1.5t58 1.5z" />
    <glyph glyph-name="Q" unicode="Q" horiz-adv-x="1937" 
d="M1456 193q11 7 21 0.5t10 -17t-10 -18.5q-97 -62 -197 -95q-120 -41 -260 -51q-188 -11 -364.5 37.5t-313.5 159.5q-136 109 -217 262q-81 161 -100 346q-18 188 27.5 367t156.5 321q108 138 258 221q159 86 344 107q187 23 368.5 -16.5t327.5 -143.5q145 -107 232 -252
q91 -152 116 -334q28 -192 -8 -370q-28 -141 -106 -287q-1 4 -2 12.5t-2 12.5q28 -25 86.5 -75t87.5 -75q12 -12 2 -26q-8 -9 -22.5 -29t-18.5 -25q-30 -41 -92.5 -121.5t-93.5 -121.5q-6 -8 -15.5 -10t-17.5 5q-152 140 -201 183q-13 13 1 27.5t28 2.5q31 -28 200 -184
q-5 -1 -15 -2t-15 -2q11 16 41 55q184 241 186 244q0 -11 4 -27q-27 24 -85.5 75t-88.5 77q-5 5 -5.5 12.5t3.5 12.5q34 64 61 131q35 101 48 178q29 180 -6 360t-134 324q-98 143 -243 229q-148 89 -332 117q-184 26 -364.5 -11t-325.5 -137q-145 -104 -228 -247
q-87 -147 -112 -332q-24 -185 15.5 -363.5t145.5 -320.5q103 -136 258 -218.5t332 -103.5q197 -20 363 21q79 18 157 53q52 23 115 62zM946 1397q20 0 20 -20.5t-20 -20.5q-160 0 -272 -115q-110 -119 -117 -293q-7 -180 84 -309q46 -62 113.5 -102.5t142.5 -49.5
q91 -10 172 17q11 3 78 33v-37q-33 26 -98.5 76t-98.5 75q-19 16 -4 31q1 1 2 3t2 3q70 72 201 211q6 6 14.5 6t14.5 -6q28 -25 82 -72.5t81 -72.5q-7 -1 -18.5 -4.5t-15.5 -4.5q2 7 4 16t4.5 20.5t3.5 17.5q15 70 12 143q-2 82 -30 159.5t-82 135.5q-113 119 -275 119
q-20 0 -20 20.5t20 20.5q160 0 275 -103q60 -53 98 -128t49 -156q15 -97 -2 -189q-2 -17 -9 -48t-9 -40q-3 -10 -14.5 -13t-20.5 5q-20 18 -162 145h29q0 -4 -4 -4q-5 -6 -201 -213q-1 5 -2 16.5t-2 16.5q33 -24 98 -74.5t98 -74.5q9 -7 10 -18.5t-10 -18.5
q-9 -3 -37.5 -15.5t-48.5 -19t-39 -10.5q-114 -23 -215 6q-161 48 -243 194q-85 151 -66 328q20 180 137 295q119 119 291 119z" />
    <glyph glyph-name="R" unicode="R" horiz-adv-x="1550" 
d="M948 -2q7 -12 0.5 -22.5t-17 -10.5t-18.5 10q-1 2 -3 6.5t-3 6.5q-28 46 -83.5 139t-82.5 139q-77 126 -133 223q2 -2 8.5 -5.5t8.5 -4.5h-99q2 2 6 6.5t7.5 8t7.5 6.5v-232v-282q0 -8 -6.5 -14.5t-14.5 -6.5h-180h-291q-9 0 -14.5 6.5t-5.5 14.5v32v215v347v405v383v287
v112q0 8 5.5 14.5t14.5 6.5h23h323h336q105 0 158 -8q192 -24 317 -119q124 -95 181 -244q58 -154 45 -332q-10 -192 -101 -319q-45 -65 -108 -119q-42 -29 -101 -63q1 6 4.5 15.5t4.5 12.5q9 -16 27.5 -46.5t27.5 -45.5q143 -229 201 -325q74 -118 120 -197
q6 -10 0.5 -21.5t-16.5 -11.5h-2h-295h-268q-20 0 -20 21.5t20 21.5h2h295h268q-9 -18 -18 -33q-18 31 -58 93l-198 327q-94 152 -121 197q-10 17 6 29q45 24 63 36q134 90 191 244q54 152 31 344q-20 163 -105 281q-90 126 -252 180q-116 41 -272 41h-96h-379h-234
q17 17 21 20v-32v-213v-348v-404v-385v-285v-114q-18 18 -21 22h178h293q-14 -14 -20 -22v233v281q0 8 5.5 14t14.5 6h86q25 0 31 -10q4 -8 6 -10q28 -47 83 -140.5t83 -140.5q103 -170 133 -221zM516 969q-20 0 -20 20.5t20 20.5h55h84q35 0 70 6q18 4 25 8q4 1 18 8
q20 10 37 27t24 41q11 28 11 65q0 82 -58 117q-46 31 -123 31h-143q7 10 21 20v-39v-305q0 -20 -20.5 -20t-20.5 20v39v305q0 21 20 21h105q37 0 59.5 -1.5t55 -7t57 -19.5t43.5 -36q52 -58 45 -147q-7 -72 -50 -115q-59 -59 -172 -59h-143z" />
    <glyph glyph-name="S" unicode="S" horiz-adv-x="1335" 
d="M696 -39q13 -1 18 -11.5t0 -20.5t-18 -9q-175 0 -329 51q-158 50 -291 150q-62 45 -164 135q-12 12 0 29q68 81 90 106q32 38 95.5 115t95.5 115q10 13 28 0q13 -11 38.5 -33.5t41.5 -36.5t39 -31.5t43 -30.5q165 -113 340 -104q93 4 129 43q19 22 16 57q-6 25 -26 39
q-23 14 -31 17q-14 7 -47 18q-76 26 -164 45q-73 19 -107 28.5t-91.5 30t-100.5 42.5q-177 91 -244 229q-75 155 -45 352q28 178 158 293q127 110 299 146t352 6q190 -28 350 -123q48 -29 170 -129q13 -13 2 -25q-12 -17 -35.5 -51.5t-35.5 -52.5q-15 -21 -174 -244
q-6 -9 -15.5 -10t-17.5 6q-7 6 -24 22t-26.5 24t-24.5 20.5t-29 22t-29 17.5q-72 42 -170 62q-103 22 -178 6q-40 -7 -66 -25l-14 -14q-6 -9 -6 -25q0 -39 18 -55q3 -2 9.5 -6t9.5 -6l24 -12q3 0 6 -3q1 0 4 -1t4 -1q7 -4 21 -8q58 -21 123 -39q122 -30 176 -47
q94 -28 154 -59q153 -73 223 -172q85 -117 92 -287q7 -198 -90 -334q-91 -131 -248 -200q-143 -62 -328 -62q-12 -1 -17 9t0 20.5t17 11.5h23q181 3 311 70q153 73 232 211q79 144 53 331q-20 155 -119 254q-87 85 -242 144q-59 23 -170.5 51.5t-154.5 42.5q-41 13 -92 33
q-37 18 -48 28q-27 24 -30 64q-8 44 12 72q35 46 129 59q91 9 186 -14q100 -24 172 -66q18 -10 38.5 -25.5t30.5 -24.5t36.5 -33t30.5 -28q-20 -4 -31 -4q54 76 72 103q89 123 174 246q1 -4 2 -12.5t2 -12.5q-112 91 -166 123q-155 91 -340 119q-188 29 -354 -13
q-171 -45 -275 -149q-122 -122 -131 -299q-14 -199 76 -330q48 -65 117 -113q71 -50 151 -77q46 -17 97 -32t118.5 -32t98.5 -26q61 -15 122 -43q57 -24 72 -60q16 -37 6 -78q-10 -31 -45 -59q-55 -37 -149 -37q-182 -3 -351 111q-52 35 -167 137h28q-18 -21 -50.5 -60.5
t-37.5 -46.5q-31 -38 -95 -114.5t-95 -114.5v29q84 -77 147 -125q146 -104 287 -150q146 -49 319 -49z" />
    <glyph glyph-name="T" unicode="T" horiz-adv-x="839" 
d="M209 20q0 -20 -20.5 -20t-20.5 20v134v333v404v340v143q9 -11 20 -20h-133h-299q-20 0 -20 20v62v307q0 8 5.5 14t14.5 6h111h326h403h342h145q9 0 15 -6t6 -14v-62v-307q0 -20 -21 -20h-133h-299q14 10 21 20v-133v-334v-403v-340v-144q0 -8 -6 -14t-15 -6h-172h-291
q-20 0 -20 20.5t20 20.5h172h291q-1 -1 -8 -9t-12 -12v134v333v404v340v143q0 8 6.5 14.5t13.5 6.5h133h299q-10 -14 -20 -21v62v307q4 -4 10.5 -11t9.5 -10h-110h-326h-403h-344h-144l21 21v-62v-307q-12 9 -21 21h133h299q8 0 14.5 -6.5t6.5 -14.5v-133v-334v-403v-340
v-144z" />
    <glyph glyph-name="U" unicode="U" horiz-adv-x="1507" 
d="M750 -4q20 0 20 -20.5t-20 -20.5q-139 0 -254 35q-158 48 -263 147q-120 115 -172 285q-41 130 -41 289v69v338v387v187q0 8 6 14t15 6h182h291q8 0 14.5 -6.5t6.5 -13.5v-56v-325v-389v-191q0 -185 81 -256q51 -43 134 -43q85 3 135 41q90 70 90 262v53v324v389v191
q0 8 5.5 14t14.5 6h181h290q8 0 14.5 -6.5t6.5 -13.5v-33v-297v-397v-248q0 -301 -137 -490q-97 -135 -250 -204q-161 -68 -350 -68q-20 0 -20 20.5t20 20.5q134 0 239 31q175 51 283 168q93 101 139 251q35 120 35 265v69v338v387v187q10 -14 20 -21h-180h-291l21 21v-82
v-346v-379v-119q0 -80 -6 -119q-22 -178 -148 -233q-79 -31 -162 -19q-80 14 -127 66q-29 32 -46.5 69.5t-24 89t-7.5 78.5t-1 90v324v389v191q3 -4 20 -21h-182h-291q17 17 20 21v-23v-280v-398v-266q0 -103 13 -182q30 -182 129 -310q85 -115 233 -178q134 -59 314 -59z
" />
    <glyph glyph-name="V" unicode="V" horiz-adv-x="1214" 
d="M360 12q3 -7 -1.5 -15t-12.5 -11q-21 -3 -24 14q-12 30 -21 57q-13 38 -40 114t-40 114q-8 23 -52.5 148.5t-68.5 191.5q-75 211 -133 383q-25 70 -71.5 202t-55.5 156q-16 44 -46.5 132t-45.5 132q-8 22 -37 103q-3 10 3.5 18t15.5 8h243h279q14 0 18 -14
q9 -30 27 -86.5t25 -81.5q18 -61 53.5 -180.5t54.5 -179.5q46 -156 109 -359q8 -28 24.5 -82t24.5 -82h-41q27 86 51 168q19 60 56 180t55 181q58 197 108 358q8 28 24.5 82.5t24.5 81.5q4 14 21 14h231h281q9 0 16 -8t4 -18q-3 -9 -10 -28t-10 -28q-14 -38 -40.5 -113.5
t-39.5 -113.5q-85 -247 -119 -340q-26 -73 -72.5 -207.5t-60.5 -175.5q-25 -70 -71.5 -202t-55.5 -156q-16 -44 -46.5 -132.5t-45.5 -132.5q-6 -17 -18.5 -52t-18.5 -52q-3 -14 -18 -14h-158h-295q-20 0 -20 20.5t20 20.5h156h297q-5 -2 -12.5 -8t-8.5 -7q12 35 21 56
q13 38 39 113.5t40 113.5q85 247 119 340q20 59 133 383q25 70 71.5 202t55.5 156q16 44 46.5 132t45.5 132q6 18 18.5 53t18.5 52q5 -8 19 -27h-232h-280q3 2 9 7.5t9 7.5q-27 -91 -51 -166q-43 -150 -109 -361q-15 -51 -51.5 -172t-56.5 -186q-8 -28 -24.5 -82.5
t-24.5 -81.5q-4 -14 -20 -14t-21 14q-8 27 -24.5 83.5t-24.5 84.5q-70 225 -109 360q-20 65 -56 186t-52 173q-8 27 -25 81.5t-25 80.5q1 -1 8.5 -7t12.5 -8h-242h-280q10 10 20 27q3 -11 11 -30.5t10 -26.5l39 -114t40 -114q22 -63 62.5 -178.5t56.5 -161.5q22 -64 67 -192
t68 -191q25 -70 71.5 -202t55.5 -156l93 -264q24 -70 36 -103z" />
    <glyph glyph-name="W" unicode="W" horiz-adv-x="2351" 
d="M1548 16q4 -12 -5 -19.5t-20.5 -5t-15.5 14.5q-11 36 -53 160q-14 42 -73.5 217.5t-90.5 269.5q-17 48 -49.5 144.5t-48.5 144.5h39q-12 -41 -53 -162q-27 -81 -83 -243.5t-83 -243.5q-17 -48 -50 -143.5t-49 -143.5q-8 -16 -20 -16h-49h-408q-14 0 -18 16q-11 32 -33 95
t-33 94q-55 168 -145 430q-28 85 -87 255t-87 255q-48 144 -146 426q-12 40 -59 178q-3 9 3 17.5t15 8.5h84h410q15 0 18 -16q21 -57 64 -193q27 -83 80.5 -247.5t79.5 -247.5q15 -47 45.5 -141.5t46.5 -141.5h-41q13 35 69 201q28 82 85 245.5t85 245.5q35 106 97 279
q3 16 18 16h41h406q14 0 20 -16q12 -33 34 -99.5t34 -99.5q28 -82 85 -246.5t85 -246.5q18 -50 50 -144.5t46 -134.5h-39q10 33 30.5 97.5t30.5 97.5q18 55 50.5 155t59 183t50.5 157q18 52 50 150.5t42 130.5q3 16 19 16h88h407q10 0 17 -8.5t4 -17.5q-10 -32 -32 -95
t-32 -94q-24 -72 -73 -215t-74 -215q-86 -255 -174 -510q-26 -78 -75 -222t-69 -204q-10 -29 -30.5 -88.5t-30.5 -89.5q-4 -16 -18 -16h-54h-407q-20 0 -20 21.5t20 21.5h51h410q-16 -12 -21 -17q10 32 32 95t32 94q25 71 74 214.5t73 215.5q29 85 86.5 255t85.5 255
q16 48 46.5 135t54.5 157.5t45 133.5q10 29 30.5 88.5t30.5 89.5q3 -4 9 -12.5t9 -12.5h-86h-409q5 2 11.5 8t8.5 7q-10 -33 -30.5 -97.5t-30.5 -97.5q-74 -219 -162 -493q-48 -156 -90 -283q-4 -15 -19 -15t-20 15q-19 50 -70 201q-28 82 -84.5 245.5t-85.5 245.5
q-63 187 -96 279q5 -2 12.5 -8t8.5 -7h-41h-406q3 2 10.5 7.5t10.5 7.5q-12 -34 -35.5 -100.5t-34.5 -100.5q-28 -82 -84.5 -245.5t-83.5 -245.5q-33 -92 -96 -279q-6 -15 -21 -15t-20 15q-7 21 -19.5 60t-23 72.5t-19.5 62.5q-26 82 -79 246.5t-80 246.5q-15 47 -46 141.5
t-47 141.5q3 -2 10.5 -7.5t10.5 -7.5h-84h-410q9 9 21 25q21 -56 63 -188q25 -72 74.5 -216t73.5 -215q76 -226 174 -509q18 -53 67.5 -199t75.5 -227q10 -30 31 -89.5t31 -89.5q-5 5 -21 17h49h408q-3 -3 -9.5 -8.5t-9.5 -8.5q3 9 54 160q27 82 82.5 245t83.5 245
q19 55 54.5 159t43.5 127q4 14 19 14t20 -14q9 -27 27.5 -80t27.5 -79q155 -463 164 -490q19 -54 53 -154.5t45 -132.5z" />
    <glyph glyph-name="X" unicode="X" horiz-adv-x="1609" 
d="M1106 27q7 -11 0 -21t-17.5 -10t-17.5 10q-6 12 -8 14q-12 23 -158 293q-13 24 -55 104t-66 122h35q-1 -2 -4 -7.5t-4 -7.5q-65 -119 -162 -293q-21 -38 -62 -112.5t-61 -112.5q-7 -10 -18 -10h-2h-301h-266q-11 0 -18 11t-1 20q28 43 47 71q27 43 58 92t68.5 107.5
t58.5 91.5q35 55 104 163t104 163l99 153v-20q-8 15 -25.5 44.5t-25.5 45.5q-132 223 -179 305q-26 44 -91.5 156.5t-102.5 173.5q-11 18 -41.5 72.5t-48.5 83.5q-6 10 0 20t18 10h2h303h267q11 0 18 -10q1 -1 2 -3t2 -3q120 -226 148 -279q59 -114 120 -231h-34l4 8
q25 46 75 138.5t74 138.5t70.5 131t54.5 100q7 10 18 10h261h276q11 0 16.5 -9.5t-0.5 -20.5q-17 -33 -45 -80q-31 -58 -90 -163t-78 -140q-150 -269 -188 -336q-14 -27 -43.5 -80t-44.5 -80v20q8 -13 23.5 -36.5t23.5 -36.5q152 -238 186 -291q80 -129 207 -326l99 -153
q6 -9 -0.5 -20t-18.5 -11h-6h-311h-264q-20 0 -20 20.5t20 20.5h6h313h262q-3 -5 -8 -15.5t-8 -15.5q-44 69 -47 74q-181 281 -187 291q-149 231 -207 325q-16 26 -49 77t-49 77q-7 10 0 20q4 7 45 82q19 35 78 140t90 163q32 57 94.5 168t94.5 168q47 86 88 158
q3 -5 9 -15.5t9 -15.5h-262h-275q16 11 17 11q0 -3 -4 -7q-101 -189 -150 -278q-59 -113 -125 -232q-5 -9 -16.5 -9.5t-17.5 9.5q0 2 -5 7q-47 94 -145 278q-82 156 -123 232q9 -3 17 -11h-3h-303h-266q3 8 17 31q9 -14 26.5 -44t26.5 -44q97 -169 178 -305q32 -55 96 -166
t96 -166q36 -58 91 -156q7 -10 0 -20q-8 -14 -24.5 -39.5t-20.5 -32.5q-34 -55 -99 -155t-88 -136q-35 -54 -103.5 -162t-103.5 -163q-16 -26 -49 -77.5t-49 -76.5q-3 5 -9 15.5t-9 15.5h2h301h266q-3 -2 -8 -5t-8 -5q1 3 4 8t4 8q26 48 79 145.5t80 145.5q21 38 62.5 113.5
t62.5 113.5q4 9 16.5 9t18.5 -9q1 -3 4 -8t4 -8q27 -48 79.5 -145.5t78.5 -145.5q93 -171 121 -227z" />
    <glyph glyph-name="Y" unicode="Y" horiz-adv-x="841" 
d="M248 811q7 -11 1 -20.5t-17 -10.5t-19 8v3q-17 26 -50 77.5t-50 77.5q-35 53 -103.5 160t-103.5 160q-34 52 -100.5 156.5t-100.5 156.5q-15 24 -45.5 71t-46.5 70q-6 9 0 20t18 11h2h299q88 -2 267 -2q15 0 18 -10l4 -8q21 -48 64 -144.5t65 -144.5q21 -44 58.5 -127
t50.5 -111q-21 -3 -39 -6q2 2 2 6q87 209 119 283q82 205 100 246q7 14 21 14h278h272q11 0 17 -10.5t0 -20.5q-3 -6 -31.5 -55t-44.5 -76q-31 -53 -92 -159.5t-92 -159.5q-32 -54 -95 -163.5t-94 -164.5q-14 -25 -43 -75.5t-43 -74.5q0 7 2 11q1 -31 2 -94t2 -95
q2 -65 5.5 -196t5.5 -197q0 -69 4 -217q0 -7 -6.5 -13.5t-14.5 -6.5h-170h-293q-7 0 -13.5 6t-6.5 14v190v394v217q0 19 20.5 19t20.5 -19v-193v-393v-215q-3 3 -10.5 10t-10.5 10h170h293l-20 -20q-1 28 -2 84t-2 84q-1 65 -4 196t-4 197q-1 38 -3.5 117.5t-3.5 120.5
q0 5 7 16q2 4 7 12.5t7 12.5q10 19 30 53t27 47q30 53 93 161t94 161q27 48 58.5 102.5t69.5 120t60 102.5q68 120 86 150q3 -5 9 -15.5t9 -15.5h-280h-270q3 2 9 7t9 7q0 -2 -2 -4l-117 -282q-16 -41 -49.5 -123t-50.5 -123q-7 -14 -21 -14q-11 0 -18 10q0 1 -1 3.5t-1 4.5
q-35 74 -131 289q-10 23 -48.5 107t-58.5 130q4 -1 17 -10h-2q-199 0 -299 2h-267q3 5 8.5 15.5t8.5 15.5q18 -27 51 -79.5t51 -78.5q34 -53 102.5 -158.5t102.5 -158.5q34 -52 101.5 -157t101.5 -157q46 -70 90 -141z" />
    <glyph glyph-name="Z" unicode="Z" horiz-adv-x="1380" 
d="M59 8q0 -20 -20.5 -20t-20.5 20v193v176v31q0 4 2 7.5t6 8.5t5 6q40 50 139 180q40 51 120 154t120 154q37 48 111.5 144t111.5 144q18 22 100 129q7 -13 15 -35h-76h-373h-238q-9 0 -14.5 6.5t-5.5 14.5v123v301q0 8 5.5 14t14.5 6h74h305h402h350h149q9 0 15 -6t6 -14
v-184v-166q0 -23 -6 -29q-2 -3 -13 -14q-58 -78 -151 -193q-41 -51 -122 -153.5t-122 -153.5q-143 -181 -225 -287q-87 -109 -100 -125q-2 7 -8 19.5t-7 15.5h121h383h229q21 0 21 -20v-152v-295q0 -9 -6 -15.5t-15 -6.5h-90h-315h-401h-349h-147q-20 0 -20 21.5t20 21.5h92
h313h402h348h147q-3 -4 -20 -21v152v295q17 -17 20 -21h-118h-385h-230q-13 0 -17.5 13t3.5 22q2 3 6 8t6 8q63 78 152 193q91 113 243 307q114 141 228 285q16 20 48.5 62.5t49.5 62.5q-1 -2 -3 -7.5t-3 -7.5v58v307q3 -3 10 -10.5t10 -10.5h-73h-305h-402h-350h-150l21 21
v-123v-301q-3 3 -10.5 10t-10.5 10h76h373h238q14 0 18 -11.5t-4 -22.5q-1 -1 -3 -4.5t-3 -4.5q-25 -32 -72.5 -93t-67.5 -87q-30 -38 -111 -143.5t-126 -161.5q-18 -23 -99.5 -129t-125.5 -162q-66 -86 -101 -129q1 2 3 7.5t3 7.5v-97v-303z" />
    <glyph glyph-name="bracketleft" unicode="[" 
 />
    <glyph glyph-name="backslash" unicode="\" horiz-adv-x="1269" 
d="M221 1673q11 6 21 -1.5t10 -18t-10 -17.5q-22 -11 -65 -33t-64 -34q1 4 3 13t3 13q3 -5 9 -16t9 -16q16 -29 47 -89t47 -90q25 -48 77 -144t77 -144q31 -59 92.5 -174.5t91.5 -173.5q34 -66 98.5 -187.5t90.5 -171.5q27 -52 84 -157.5t84 -157.5q21 -38 60.5 -114
t60.5 -114q6 -12 21.5 -41.5t23.5 -46.5q-11 5 -29 9q102 52 131 69q-4 -18 -8 -29q-16 32 -17 35q-17 30 -48 89.5t-48 88.5q-25 48 -75 144.5t-76 144.5q-30 58 -92.5 173t-92.5 173q-4 7 -190 359q-68 131 -168 317q-19 38 -59.5 114t-59.5 114q-8 15 -23.5 43t-23.5 43
q-6 11 1.5 20.5t18 9.5t17.5 -10q10 -16 16 -35q17 -30 48.5 -89.5t47.5 -88.5q25 -48 76 -144.5t76 -144.5q30 -57 92 -173t92 -173q36 -68 102 -191.5t89 -166.5q83 -159 168 -318q20 -38 60 -113.5t59 -113.5q8 -15 23.5 -43t23.5 -43q8 -19 -9 -29q-2 -1 -131 -67
q-6 -5 -14.5 -3t-11.5 9q-3 6 -9.5 17.5t-9.5 17.5q-15 30 -47 89t-47 89q-25 48 -76 144.5t-77 144.5q-31 59 -92.5 174.5t-92.5 173.5q-14 28 -188 356q-9 17 -168 318q-21 38 -60.5 113.5t-60.5 113.5q-7 14 -22.5 42.5t-22.5 43.5q-10 17 6 29q102 52 131 69z" />
    <glyph glyph-name="bracketright" unicode="]" 
 />
    <glyph glyph-name="asciicircum" unicode="^" 
 />
    <glyph glyph-name="underscore" unicode="_" horiz-adv-x="1269" 
d="M1270 -240q0 -20 -20.5 -20t-20.5 20v148q10 -14 20 -21q-14 -2 -43 -2h-278q-265 0 -398 -2h-356h-154l21 21v-148q-12 9 -21 21h41h279q264 0 397 2h357q102 0 155 2q19 0 19 -20.5t-19 -20.5q-14 -2 -43 -2h-278q-265 0 -398 -2h-356h-154q-9 -1 -14.5 5t-5.5 15v148
q0 17 20 20h41h279q264 0 397 2h357q102 0 155 2q8 0 14.5 -6.5t6.5 -13.5v-148z" />
    <glyph glyph-name="a" unicode="a" 
d="M735 41q7 3 15 -2t10 -12q6 -19 -15 -27q-65 -24 -79 -27q-54 -9 -109 -6q-197 10 -340 123q-134 105 -190 283q-51 161 -10.5 338t161.5 297q119 116 281 151q84 16 164 10q38 0 69 -8q9 -3 26.5 -9t26.5 -9q-12 -12 -24 -21v78q0 8 5.5 14.5t14.5 6.5h127q50 0 150.5 1
t150.5 1q7 0 14 -6.5t7 -14.5v-35v-268v-397v-359v-155q0 -9 -6.5 -15t-14.5 -6h-129h-299q-20 0 -20 21v32q0 20 20.5 20t20.5 -20v-32q-14 10 -21 20h127h301l-20 -20v35v268v395v358v158l20 -20q-86 0 -129 -2h-299q17 17 21 20v-78q0 -9 -9 -16t-18 -4q-62 24 -94 26
q-173 13 -307 -57q-142 -74 -221 -219q-82 -150 -70.5 -329.5t115.5 -315.5q105 -136 280 -182q85 -20 180 -17q41 2 117 33zM621 764q13 1 18 -9t0 -20.5t-18 -11.5q-62 0 -95 -33q-37 -28 -51 -84q-14 -60 0 -110q16 -57 45 -78q30 -23 71 -29.5t77 4.5q44 17 61 37
q23 26 33 68q23 85 -21 157q-43 68 -120 68q-13 1 -18 11.5t0 20.5t18 9q44 0 77 -16q43 -22 56 -41q54 -63 57 -148q3 -84 -45 -147q-45 -59 -133 -66q-95 -4 -152 51q-53 53 -53 148t49 155q55 64 144 64z" />
    <glyph glyph-name="b" unicode="b" horiz-adv-x="1331" 
d="M662 848q20 0 20 -20.5t-20 -20.5q-25 0 -37 -4q-77 -15 -113 -88q-31 -76 -8 -156q23 -79 90 -108q64 -25 129 0q50 18 76 75t16 133q-7 68 -49 107q-44 41 -104 41q-20 0 -20 20.5t20 20.5q85 0 139 -60q46 -52 55 -124q10 -80 -16 -142q-21 -63 -78 -98
q-59 -35 -131 -25q-89 13 -135 80q-44 67 -41 158q3 93 57 149q59 62 150 62zM750 29q20 0 20 -20.5t-20 -20.5q-83 0 -150 20q-67 21 -123 68q5 2 11.5 4.5t13.5 5.5t10 4v-90q0 -8 -5.5 -14t-14.5 -6h-154h-297q-8 0 -14.5 6.5t-6.5 13.5v18v193v338v401v387v291v115
q0 7 6.5 13.5t14.5 6.5h156h295q9 0 14.5 -6t5.5 -14v-31v-348v-252q-9 5 -35 14q21 22 53 39q79 50 158 64q90 15 176 0q164 -31 279 -152q54 -57 96 -139q44 -84 59 -170q16 -86 13 -190q-4 -104 -27 -181q-54 -183 -188 -291q-75 -63 -156 -88q-91 -30 -190 -30
q-20 0 -20 20.5t20 20.5q88 0 180 28q71 22 141 82q124 101 176 275q23 85 23 180q3 92 -15 184q-41 180 -163 293q-120 111 -281 123q-95 6 -176 -23q-37 -12 -70 -32q-40 -24 -57 -41q-10 -9 -23.5 -4t-13.5 18v31v348v252q4 -3 7.5 -6.5t7.5 -8t6 -6.5h-154h-297
q5 4 12 12t8 9v-19v-192v-338v-401v-387v-291v-115l-20 20h156h295q-17 -17 -21 -20v90q0 13 13.5 17.5t23.5 -3.5q93 -75 242 -75z" />
    <glyph glyph-name="c" unicode="c" horiz-adv-x="1077" 
d="M627 -23q13 0 18 -10t0 -20t-18 -10h-17q-199 3 -348 86q-81 43 -131 96q-49 53 -84 117q-67 129 -74 307q-3 204 76 352q83 150 242 233q162 88 327 82q104 -4 164 -22q74 -22 136 -66q76 -51 135 -116q10 -11 53 -66q8 -11 -4 -27q-31 -39 -51 -61q-33 -39 -97.5 -117
t-97.5 -117q-4 -6 -14.5 -6t-14.5 6q-5 6 -15 18.5t-15 18.5q-31 40 -62 62q-79 60 -155 43q-79 -18 -117 -98q-33 -71 -6 -158q13 -37 39 -67.5t61 -43.5q24 -8 47 -8q44 0 84 12q33 10 68 41q2 2 5 6.5t5 6.5q1 1 4 5q0 -1 -2 -3q1 1 3 4t3 4q6 12 18.5 33t18.5 32
q4 9 14.5 10.5t16.5 -6.5q10 -11 31.5 -33.5t31.5 -33.5q122 -135 193 -213q12 -12 2 -25q-19 -39 -41 -71q-46 -65 -107 -111q-145 -106 -325 -106q-13 0 -18 10t0 20t18 10q167 0 305 101q59 46 96 104q8 12 21 35.5t16 28.5q1 -4 2 -12.5t2 -12.5q-33 38 -61 66
q-44 50 -195 215q20 4 33 4q-4 -7 -12.5 -22.5t-12.5 -22.5q-18 -31 -26 -41q-35 -35 -64 -49q-44 -19 -84 -25q-79 -10 -131 23q-74 44 -100.5 134t6.5 169q21 48 47 71q43 37 74 48q80 30 164 -11q27 -11 77 -51q2 -2 11 -10t14 -14q8 -9 23.5 -29t23.5 -29h-29
q30 38 52 62q5 6 194 235q-1 -4 -2 -12t-2 -12l-18 24q-1 2 -5 6.5t-6 7.5q-1 1 -2 2.5t-2 2.5q-60 66 -112 106q-57 44 -113 66q-47 19 -121 30q-174 18 -330 -49q-169 -71 -254 -207q-92 -146 -92 -340q0 -175 64 -303q29 -60 80 -114q46 -51 125 -95q149 -80 344 -80z
" />
    <glyph glyph-name="d" unicode="d" horiz-adv-x="1316" 
d="M455 623q0 20 20.5 20t20.5 -20q0 -25 2 -39q7 -65 49 -107q41 -41 98 -41q87 -3 135 53q44 59 41 144q-7 94 -61 137q-59 46 -135 33q-62 -10 -93 -58q-36 -47 -36 -122q0 -20 -20.5 -20t-20.5 20q0 97 53 159q47 54 124.5 62.5t137.5 -31.5q70 -48 86 -133
q17 -95 -16 -170q-36 -77 -113 -104q-77 -24 -145 0q-62 26 -95 81q-32 52 -32 136zM354 63q7 -3 9 -12t-1 -16q-10 -17 -28 -6q-137 64 -217 182q-90 130 -107 270q-14 91 -8 191q6 99 35 180q64 179 194 278q130 102 297 105q100 3 185 -31q70 -31 127 -82l-35 -14v37v352
v250q0 8 5.5 14t14.5 6h154h297q8 0 14 -6.5t6 -13.5v-18v-193v-338v-401v-387v-291v-115q0 -9 -6 -14.5t-14 -5.5h-156h-295q-20 0 -20 20v90l35 -14q-103 -82 -224 -94q-138 -15 -278 41q-17 7 -14 24q8 21 26 15q133 -54 264 -39q108 12 197 82q9 8 22 3t13 -18v-90
q-12 9 -21 21h154h297l-21 -21v19v190v338v403v387v291v115q9 -12 21 -21h-156h-295l21 21v-37v-352v-250q0 -13 -13 -18t-22 4q-90 77 -190 94q-115 21 -228 -17q-154 -51 -246 -188q-48 -72 -75 -156q-26 -81 -29 -178q-3 -104 10 -186q19 -92 60 -166q45 -82 100 -137
q64 -60 141 -97z" />
    <glyph glyph-name="e" unicode="e" horiz-adv-x="1198" 
d="M799 748q3 -7 -2 -15.5t-13 -11.5q-17 -3 -24 14q-14 32 -23 43q-18 21 -37 31q-41 20 -92 20q-53 -2 -101 -27.5t-67 -70.5q-11 18 -16 31h49h307q19 0 19 -20.5t-19 -20.5h-51h-305q-13 0 -18 10t0 21q23 55 86 86q59 32 120 32q69 0 115 -30q47 -27 72 -92zM399 430
q-7 11 0 21t17.5 10t17.5 -10q34 -58 105 -84q60 -19 133 -13q67 10 112 41q20 12 68 60q3 -6 8 -17.5t8 -17.5h-155h-295q-20 0 -20 20.5t20 20.5h153h297q12 0 18 -13t-3 -22q-6 -6 -19 -18.5t-21 -19.5t-19.5 -16.5t-22.5 -15.5q-61 -37 -135 -43q-80 -9 -152 21
q-75 29 -115 96zM625 16q19 0 19 -20.5t-19 -20.5q-96 0 -181 23q-152 37 -270 149q-107 104 -149 254q-42 154 -13 326q28 154 127 268q108 124 267 179q151 53 329 20q166 -31 289 -139q116 -103 154 -250q20 -78 20 -213v-152q0 -8 -6 -14t-14 -6h-2h-279q7 21 14 35
q1 -2 4.5 -5.5t4.5 -5.5q96 -102 204 -219q12 -16 0 -28q-112 -108 -202 -152q-137 -70 -297 -70q-20 0 -20 20.5t20 20.5q149 0 282 68q78 42 123 82q23 18 64 59v-28q-1 2 -4.5 5t-4.5 5q-108 117 -204 219q-8 9 -2.5 22t18.5 13h281l-21 -21v9v172q0 135 -37 229
q-57 141 -192.5 225t-294.5 90q-170 6 -307 -71q-144 -80 -215 -211t-68 -295q0 -168 68 -293q76 -133 208 -205q133 -74 306 -74z" />
    <glyph glyph-name="f" unicode="f" horiz-adv-x="802" 
d="M145 -2q0 -20 -20.5 -20t-20.5 20v174v393v217q14 -10 21 -20h-145q-8 0 -14.5 6.5t-6.5 13.5v101v303q0 9 6.5 14.5t14.5 5.5h145q-3 -3 -10 -9.5t-11 -10.5v35q0 165 23 245q46 159 166 232q135 83 323 55q64 -8 146 -39q69 -26 119 -65q8 -8 4 -19l-6 -24
q-9 -37 -34.5 -138t-39.5 -155q-3 -11 -12.5 -15t-18.5 2q-4 2 -13 7.5t-13 7.5q-14 9 -56 18q-36 4 -55 2q-1 0 -4.5 -1t-5.5 -1q-1 0 -3 -1t-3 -1l-3 -2q-4 0 -6 -2v-2l-4 -4q-10 -13 -10 -37v-29v-69q-9 11 -20 20h206q21 0 21 -20v-99v-305q0 -8 -6 -14t-15 -6h-206
l20 20v-174v-391v-219q0 -8 -5.5 -14.5t-14.5 -6.5h-158h-295q-19 0 -19 20.5t19 20.5h158h295q-3 -3 -10 -9.5t-11 -10.5v174v393v217q0 9 6.5 15t14.5 6h206q-3 -3 -9.5 -10t-10.5 -11v101v303q10 -7 20 -21h-206q-8 0 -14.5 6.5t-6.5 14.5v78q0 63 23 88q32 34 116 20
q42 -3 70 -20q2 -1 13 -7t16 -10q-4 -2 -29 -12q5 20 6 23q13 49 37 147t37 147q4 -12 4 -20l-6 6l-2 2l1 -2q-2 2 -3 2q-52 38 -131 62q-70 25 -160 28q-182 7 -283 -94q-97 -92 -114 -254q-7 -52 -7 -184q0 -8 -5.5 -14.5t-14.5 -6.5h-145q4 4 10.5 11t9.5 10v-99v-305
q-10 14 -20 21h145q20 0 20 -21v-174v-391v-219z" />
    <glyph glyph-name="g" unicode="g" horiz-adv-x="1296" 
d="M616 -467q20 0 20 -20.5t-20 -20.5q-49 0 -98 6q-171 21 -317 111q-52 32 -162 117q-13 13 -2 24q8 14 24.5 40t24.5 40q80 129 162 258q1 -4 3 -13.5t3 -13.5q-107 78 -172 193q-60 106 -76 231q-23 180 31 328q58 157 176 260q127 108 276 131q97 14 170 4
q62 -9 156 -55q-5 -3 -15.5 -8t-15.5 -8v39q0 20 21 20h153h297q8 0 14.5 -5.5t6.5 -14.5v-33v-293v-399v-265q0 -274 -115 -436q-85 -120 -225 -188q-143 -70 -320 -70q-19 0 -19 20.5t19 20.5q121 0 224 33q150 50 247 158q94 104 125 247q23 96 23 291v348v385v181
q3 -3 9.5 -10t10.5 -11h-155h-295q10 14 20 21v-39q0 -12 -10.5 -18t-19.5 -1q-62 30 -99 39q-49 14 -106 14q-112 -3 -193 -34q-144 -55 -238 -182.5t-112 -282.5q-20 -181 35 -322q62 -159 192 -254q19 -11 9 -28q-8 -14 -25 -39.5t-25 -38.5q-55 -88 -161 -260
q-1 4 -2 12t-2 12q12 -8 20 -14q26 -21 39 -29q8 -8 14 -12l2 -2q2 0 2 -2q-3 2 -1 1l6 -3q69 -54 145 -88q153 -72 321 -72zM352 0q-15 11 -6 27q3 6 12 9t17 -1q123 -93 233 -90q144 0 185 86q14 -14 26 -29q-113 -51 -241.5 -47.5t-241.5 57.5q3 6 10 17.5t10 17.5
q3 -2 9.5 -6t9.5 -6q15 -15 6 -29q-3 -7 -12 -9t-17 3q-4 4 -16 12q-15 12 -6.5 28t26.5 7q99 -48 219 -51q126 -3 224 43q15 6 24.5 -4.5t3.5 -24.5q-47 -102 -211 -106q-133 -3 -264 96zM631 823q20 0 20 -20.5t-20 -20.5q-42 0 -64 -12q-28 -11 -49 -39q-46 -55 -49 -131
q0 -86 43 -137q24 -31 49 -41q23 -10 62 -14q85 0 129 47q51 54 51 133q0 86 -49 141q-22 25 -54 41q-34 12 -69 12q-20 0 -20 20.5t20 20.5q67 0 110 -30q71 -46 93 -123q23 -86 -5 -164q-27 -81 -96 -117q-72 -35 -155 -16q-52 13 -89 54t-51 92.5t-8 103.5q9 84 66 147
q53 53 135 53z" />
    <glyph glyph-name="h" unicode="h" horiz-adv-x="1210" 
d="M776 2q0 -20 -20.5 -20t-20.5 20v148v385v110q0 51 -6 76q-8 41 -20 57l-4 4q0 4 -5 4q-1 1 -2 3.5t-2 3.5q2 -3 0 -1l-4 3q-13 7 -20 8q-15 3 -33 6q-46 0 -76 -12q-35 -12 -59 -43q-17 -20 -25 -58q-4 -19 -4 -92v-354v-248q0 -9 -6 -14.5t-14 -5.5h-111h-301
q-20 0 -20 20v18v195v338v403v387v291v115q0 8 5.5 14t14.5 6h109h303q7 0 13.5 -6.5t6.5 -13.5v-10v-316v-262q-5 3 -15.5 8.5t-15.5 8.5q79 46 189 59q177 17 315 -61q133 -74 195 -220q45 -106 45 -245v-97v-381v-231q0 -9 -6.5 -14.5t-14.5 -5.5h-110h-301
q-20 0 -20 20.5t20 20.5h108h303q-4 -4 -10.5 -11t-9.5 -10v10v297v355q0 67 -2 100q-10 167 -96 274q-96 119 -250 150q-182 37 -334 -45q-10 -6 -20.5 0t-10.5 18v8v318v262q7 -10 21 -20h-111h-301q2 2 6 5.5t7.5 7t6.5 7.5v-20v-195v-338v-403v-387v-289v-115
q-17 17 -20 21h109h303l-21 -21v195v374v74q0 71 25 115q20 33 55 56.5t74 29.5q88 12 131 -21q38 -31 49 -92q8 -43 8 -127v-358v-246z" />
    <glyph glyph-name="i" unicode="i" horiz-adv-x="532" 
d="M489 20q13 0 18 -10t0 -20t-18 -10h-153h-295q-8 0 -14.5 6.5t-6.5 13.5v18v246v393v363v160q0 9 6.5 14.5t14.5 5.5h154h294q8 0 14.5 -5.5t6.5 -14.5v-19v-246v-391v-364v-160q0 -20 -20.5 -20t-20.5 20v18v246v393v363v160q17 -17 20 -21h-153h-295q3 4 20 21v-19
v-246v-391v-364v-160l-20 20h154h294zM471 1513q0 20 20.5 20t20.5 -20q0 -106 -78 -178q-76 -73 -182 -67q-73 4 -132 47.5t-85 111.5q-25 69 -8 142.5t69 122.5q56 51 129 63.5t142 -18.5q65 -29 104 -90t41 -134q0 -20 -20.5 -20t-20.5 20q0 61 -35 112.5t-92 76.5
q-62 26 -128.5 9.5t-109.5 -69.5q-42 -51 -45 -119t35 -124q37 -56 102.5 -79t129.5 -3q63 20 103 74.5t40 121.5z" />
    <glyph glyph-name="j" unicode="j" horiz-adv-x="557" 
d="M31 -451q20 0 20 -20.5t-20 -20.5q-151 0 -287 76q-53 31 -147 109q-5 3 -6.5 11t1.5 13q9 13 27 37.5t27 36.5q97 144 174 250q5 9 13.5 10t16.5 -6q5 -4 14.5 -11t14.5 -11q8 -8 18 -17t22.5 -20t19.5 -17q34 -26 55 -32q15 -3 31 0h6l2 1v1q2 0 2 2q-3 -3 -2 -3
q1 1 2 1q5 5 8 18q4 20 4 33v4v20v256v396v362v158q0 8 6 14t15 6h153h295q8 0 14.5 -6.5t6.5 -13.5v-66v-305v-401v-332v-38v-42t-1 -37.5t-3 -42.5t-5.5 -37.5t-9.5 -40.5q-44 -151 -178 -243q-133 -93 -309 -93q-20 0 -20 20.5t20 20.5q195 0 329 119q117 108 132 256
q4 29 4 86v262v396v360v158q3 -3 10 -10.5t10 -10.5h-154h-294q3 3 10 10.5t10 10.5v-12v-226v-385v-375v-194q0 -50 -18 -76q-13 -17 -35 -22t-43 -0.5t-39 14.5q-13 7 -25.5 16.5t-28 23t-22.5 19.5q-9 8 -27.5 23.5t-27.5 23.5q5 1 16.5 2t16.5 2q-48 -66 -52 -73
q-129 -183 -174 -250q-1 4 -2 12t-2 12q104 -81 135 -100q129 -72 271 -72z" />
    <glyph glyph-name="k" unicode="k" horiz-adv-x="1290" 
d="M907 20q9 -9 5 -19.5t-13.5 -13t-19.5 4.5q-55 52 -109 106q-144 140 -211 207q5 1 15.5 2t15.5 2q-38 -61 -72 -123q0 9 2 11v-191q0 -8 -6 -14t-14 -6h-140h-299q-7 0 -13.5 6t-6.5 14v19v192v338v401v387v291v115q0 9 6 14.5t14 5.5h140h299q8 0 14 -5.5t6 -14.5v-29
v-299v-393v-194q-18 3 -39 10q15 16 23 28q37 47 109.5 141.5t109.5 141.5q5 7 15.5 20.5t15.5 20.5q2 2 5 6t5 6q6 2 18 2h136h299q11 0 17 -10.5t-1 -19.5q-37 -55 -39 -58q-11 -16 -89.5 -131t-119.5 -174q-23 -34 -135 -199q-1 4 -2 12.5t-2 12.5q41 -51 123 -149
q201 -251 248 -306q67 -86 135 -168q8 -9 3 -21.5t-18 -12.5h-147h-297q-20 0 -20 20.5t20 20.5h147h297q-2 -6 -7 -17.5t-7 -17.5q-20 24 -61 74.5t-62 74.5q-183 227 -248 305q-23 28 -68 84.5t-67 83.5q-11 11 -4 25q7 9 20.5 28.5t20.5 28.5q11 16 89.5 131t119.5 174
q23 34 135 199q3 -5 9.5 -15.5t9.5 -15.5h-144h-299q3 2 9.5 5.5t9.5 5.5q-15 -21 -47 -62t-48 -61q-92 -117 -180 -234q-10 -13 -24 -10q-15 4 -15 21v28v299v393v195q1 -1 9 -8t12 -12h-140h-299q4 4 11 10.5t10 9.5v-18v-193v-336v-403v-387v-291v-115q-2 2 -6 6.5
t-7.5 8t-7.5 6.5h140h299l-21 -21v51v99v32q0 15 4 21q20 37 72 121q4 9 15 10.5t18 -6.5q90 -89 108 -107q35 -35 105.5 -103.5t105.5 -103.5z" />
    <glyph glyph-name="l" unicode="l" horiz-adv-x="532" 
d="M492 25q20 0 20 -21.5t-20 -21.5h-156h-295q-9 0 -15 6.5t-6 15.5v16v193v338v401v387v291v117q0 8 6 14t15 6h154h297q8 0 14 -6.5t6 -13.5v-18v-193v-338v-401v-387v-291v-115q0 -20 -20.5 -20t-20.5 20v16v193v338v401v387v291v117q9 -12 21 -21h-156h-295q3 3 9.5 10
t10.5 11v-18v-193v-338v-401v-387v-291v-115q-10 7 -20 21h154h297z" />
    <glyph glyph-name="m" unicode="m" horiz-adv-x="1933" 
d="M1462 -2q0 -19 -20.5 -19t-20.5 19v104v383v136v20q0 43 -8 76q-9 21 -12 26q-3 7 -6 11q-1 1 -4 3l-1 1q1 -1 3 -2q-4 4 -9 4q0 2 -4 2q2 0 0 1l-2 1q-2 0 -6.5 1t-7.5 1q-33 9 -74 -2q-33 -10 -55 -29l-10 -10l-2 -4q-1 -2 -3 -5t-3 -5q-4 -7 -9 -25q-2 -7 -4 -21.5
t-2 -15.5v-8v-37v-356v-250q0 -8 -5.5 -14.5t-14.5 -6.5h-131h-299q-8 0 -14.5 6.5t-6.5 14.5v88v381v143v29q0 33 -2 49q0 7 -4 27q-1 1 -2 4.5t-2 5.5q2 -2 0 4l-6 12l-1 1l1 -3q-2 2 -2 4q-6 6 -19 11q-4 3 -9 5t-11.5 4t-9.5 3q-35 6 -71.5 -5t-57.5 -38
q-6 -7 -10 -14.5t-6.5 -17.5t-4 -17t-2 -19t-0.5 -18v-19.5v-17.5v-350v-252q0 -8 -5.5 -14.5t-14.5 -6.5h-156h-295q-7 0 -14 6.5t-7 14.5v25v251v394v362v158q0 9 6.5 14.5t14.5 5.5h156h295q20 0 20 -20v-37q-5 3 -15.5 9t-15.5 9q97 40 150 48q76 11 160 2
q157 -22 264 -121h-29q135 103 295 121q178 22 326 -50q140 -72 208 -204q58 -116 58 -265v-88v-376v-238q0 -8 -6.5 -14.5t-14.5 -6.5h-155h-295q-20 0 -20 21.5t20 21.5h155h295q-14 -14 -20 -22v37v342v309q0 103 -25 188q-47 148 -164 226q-127 85 -297 82
q-186 0 -331 -115q-17 -12 -29 0q-96 91 -240 111q-85 10 -147 0q-69 -15 -137 -45q-11 -5 -21 0.5t-10 17.5v37q2 -2 6.5 -6t8 -7.5t6.5 -7.5h-156h-295q3 4 20 21v-23v-252v-393v-362v-160q-3 4 -10 11t-10 11h156h295q-3 -4 -10.5 -11t-10.5 -11v127v385v115q0 35 6 69
q19 76 98 105q34 13 76.5 9.5t75.5 -24.5q28 -22 37 -57q8 -33 8 -125v-354v-250q-6 8 -20 22h131h299q-3 -4 -21 -22v141v385v115q0 39 10 68q14 46 58 73q74 47 155 25q48 -14 64 -68q14 -43 14 -135v-354v-250z" />
    <glyph glyph-name="n" unicode="n" horiz-adv-x="1177" 
d="M709 2q0 -20 -20.5 -20t-20.5 20v33v352v172v88q-4 38 -11 62q-2 2 -2 4q-1 1 -2 3t-2 3l-2 4l-2 2q-24 12 -65 4q-30 -7 -50 -27l-6 -6q0 -2 -2 -2q-2 -4 -6 -16q-8 -24 -8 -55v-25v-342v-254q0 -9 -6.5 -15.5t-14.5 -6.5h-153h-295q-8 0 -14.5 6.5t-6.5 15.5v21v249
v394v364v158q0 9 6.5 14.5t14.5 5.5h154h294q8 0 14.5 -5.5t6.5 -14.5v-39q-4 3 -13.5 9t-13.5 9q26 10 29 11q171 55 340 -7q152 -60 231 -188q74 -123 74 -297v-74v-372v-238q0 -9 -6 -15.5t-14 -6.5h-154h-295q-20 0 -20 21.5t20 21.5h152h297l-21 -21v227v375v82
q0 159 -65 270q-76 130 -222 179q-174 59 -333 -7q-10 -3 -18.5 4.5t-8.5 16.5v39q17 -17 20 -21h-153h-295q3 4 20 21v-21v-252v-391v-364v-158q-17 17 -20 21h154h294q-3 -4 -20 -21v61v371v152q0 4 -0.5 24.5t0 28.5t2 23.5t5.5 27.5t11 23q15 23 41.5 38.5t53.5 18.5
q86 13 108 -37q19 -43 19 -133v-346v-252z" />
    <glyph glyph-name="o" unicode="o" horiz-adv-x="1206" 
d="M20 594q0 -19 -20 -19t-20 19q0 129 52.5 249t147.5 206q106 96 244.5 135.5t277.5 13.5q137 -25 252 -107.5t179 -203.5q68 -126 73 -271t-53 -274q-57 -126 -164.5 -217t-240.5 -125q-140 -35 -281 -5t-254 118q-109 88 -171 215t-62 266q0 13 10 18t20 0t10 -18
q0 -189 115 -344q82 -108 205.5 -168t259.5 -59q134 2 257 65t200 172q82 113 103 250.5t-23 269.5q-43 126 -140.5 222t-224.5 137q-130 43 -269 21t-249 -103q-109 -82 -171.5 -204.5t-62.5 -258.5zM592 399q-20 0 -20 20.5t20 20.5q57 0 102 39t51 96q5 59 -29.5 107.5
t-92.5 60.5q-64 12 -120.5 -28t-62.5 -105q-7 -72 39 -118q46 -52 113 -52q20 0 20 -20.5t-20 -20.5q-36 0 -68 13q-68 25 -104 92t-14 141q20 72 84.5 112.5t138.5 26.5q72 -14 118 -75t39 -134q-10 -77 -63 -124q-55 -52 -131 -52z" />
    <glyph glyph-name="p" unicode="p" horiz-adv-x="1318" 
d="M61 -469q0 -20 -20.5 -20t-20.5 20v139v312v395v393v301v119q0 9 6.5 14.5t14.5 5.5h158h295q8 0 14 -6t6 -14v-37q-5 3 -15.5 9t-15.5 9q76 37 103 43q56 14 119 11q127 -3 237 -51q150 -67 244 -197q89 -122 108 -287q17 -180 -37 -321q-56 -150 -180 -252
q-137 -111 -289 -131q-89 -13 -165 -2q-59 12 -140 57q13 5 31 16v-247v-279q0 -7 -6 -13.5t-14 -6.5h-156h-297q-19 0 -19 20t19 20h158h295q-14 -10 -21 -20v250v276q0 12 10 18t21 1q90 -51 164 -56q97 -6 186 21q150 46 262 170q101 113 129 268q32 165 -14 318
q-45 145 -160 245q-123 107 -278 134q-89 14 -160 6q-59 -7 -129 -47q-11 -5 -21 0.5t-10 17.5v37q9 -12 21 -21h-156h-297q5 4 12 12t8 9v-137v-312v-397v-393v-299v-121zM676 854q20 0 20 -20.5t-20 -20.5q-45 0 -84 -20q-65 -37 -90 -112.5t-4 -150.5q22 -75 84 -110
q60 -40 141 -19q76 19 115 84q38 61 28 144q-6 76 -59 129q-58 55 -131 55q-20 0 -20 20.5t20 20.5q67 0 117 -33q59 -39 84 -90q39 -66 33 -153t-58 -144q-57 -64 -135 -76q-93 -14 -156 25q-72 47 -96 119q-27 76 -10 164q16 80 75 133q61 55 146 55z" />
    <glyph glyph-name="q" unicode="q" horiz-adv-x="1318" 
d="M846 -469q0 -20 -20.5 -20t-20.5 20v248v276q5 -3 15.5 -8t15.5 -8q-75 -39 -107 -49q-62 -16 -119 -13q-120 0 -233 52q-150 69 -246 207q-87 122 -106 290q-17 185 38 320q57 149 181 244q131 106 291 127q89 13 165 2q14 -2 27.5 -5t30.5 -10t24.5 -10t28.5 -13
t25 -12q-5 -3 -15.5 -9t-15.5 -9v37q0 8 6.5 14t13.5 6h158h295q8 0 14 -5.5t6 -14.5v-137v-312v-397v-391v-301v-121q0 -8 -6.5 -14.5t-13.5 -6.5h-158q-148 0 -295 3q-13 0 -18 10t0 20t18 10q27 0 79.5 -1t78.5 -1h295q-14 -10 -21 -20v2v137v312v395v393v301v119l21 -21
h-158h-295q12 9 21 21v-37q0 -12 -10 -17t-21 1q-59 28 -78 34q-44 13 -82 13q-96 3 -188 -21q-150 -43 -262 -162q-104 -113 -131 -262q-32 -168 14 -317q44 -149 158 -254q122 -112 276 -139q90 -18 158 -7q49 8 135 54q11 5 21 -1t10 -18v-248v-276zM481 782q9 8 20 4.5
t13.5 -13t-4.5 -19.5q-34 -34 -45 -72q-27 -79 -6 -152q20 -66 86 -110q66 -39 143 -23q71 16 111 82q37 59 30 146q-10 81 -59 133q-56 56 -129 53q-74 0 -131 -57q-9 -8 -20 -4.5t-13.5 13t4.5 19.5q51 51 105 64q74 14 125 -4q70 -20 120 -97q42 -66 39 -153
q-4 -91 -45 -148q-54 -72 -127 -86q-83 -19 -157 19q-75 38 -109 108q-33 71 -20 155t69 142z" />
    <glyph glyph-name="r" unicode="r" horiz-adv-x="874" 
d="M51 2q0 -20 -20.5 -20t-20.5 20v21v249v394v362v160q0 7 6.5 13.5t14.5 6.5h164h292q9 0 15 -6t6 -14q0 -14 1 -39t1 -39l-35 14q60 53 125 70q57 14 127 14q20 0 58 1t57 1q8 0 14 -6t6 -14v-146q0 -49 1 -148t1 -148q0 -9 -6 -15t-14 -6q-20 0 -61 -1t-62 -1
q-68 0 -107 -20q-3 -1 -18 -11q-2 -2 -5.5 -4.5t-6.5 -5.5q-2 -2 -6.5 -6t-6.5 -6q-6 -9 -10 -13q-53 -78 -53 -221v-139v-297q0 -8 -6 -14t-15 -6h-161h-295q-20 0 -20 20.5t20 20.5h164h292q-3 -3 -10 -10.5t-10 -10.5v266v160q0 127 35 207q23 54 63 86q46 38 123 45
q26 2 156 2q-4 -3 -21 -20q0 98 -2 145v297l21 -21q-20 0 -57.5 -1t-55.5 -1q-69 0 -113 -12q-62 -15 -112 -59q-10 -9 -22.5 -4t-12.5 18q0 14 -1 39t-1 39q3 -3 10 -10.5t10 -10.5h-161h-295q5 4 12 12t8 9v-21v-249v-394v-362v-160z" />
    <glyph glyph-name="s" unicode="s" horiz-adv-x="1097" 
d="M571 -31q13 -1 18 -11.5t0 -20.5t-18 -9q-90 0 -168 17q-158 33 -297 133q-51 39 -145 125q-16 12 0 28q50 62 51 64q150 177 195 233q6 7 15.5 6.5t15.5 -6.5q6 -5 35 -31t41 -36t35 -28t42 -30q86 -52 170 -55q49 -4 74 8q1 1 4 3t4 3q2 2 2 0q0 -6 -2 0q0 3 3 -2
q0 -1 1 -2l-4 4q-6 3 -31 13q-52 18 -67 22q-122 30 -168 45q-190 60 -273 181q-48 71 -61.5 165.5t6.5 176.5q19 88 70 153q52 64 125 109q137 80 325 73q198 -6 359 -102q25 -15 48.5 -32.5t61 -48.5t45.5 -38q13 -13 2 -24q-43 -62 -45 -64q-34 -50 -100.5 -144
t-75.5 -106q-6 -8 -15.5 -9t-17.5 5q-60 56 -90 82q-47 39 -135 58q-54 8 -80 6q-39 -4 -57 -15q2 2 5 6.5t5 6.5l-1 1q1 -2 1 -3v-7l-4 7l2 -2q3 -1 15 -7l4 -2l2 -2q12 -4 14 -4q6 -3 39 -14q28 -8 79.5 -21.5t93 -25.5t77.5 -27q161 -70 227 -178q41 -68 53 -154t-6 -163
q-17 -84 -67.5 -154.5t-124.5 -116.5q-129 -80 -312 -80q-13 -1 -18 9t0 20.5t18 11.5q116 0 218 39t169 121q54 63 74 146t6 169q-14 83 -49 136q-30 51 -92 96q-60 42 -129 67q-74 26 -172 50q-74 20 -109 34q-43 16 -47 33q-9 26 4 39t33 16q41 12 86 9q105 -11 178 -56
q19 -11 66 -53q36 -32 53 -49q-11 0 -31 -4q38 54 45 63q33 49 96.5 137t80.5 113q0 -4 1 -12t1 -12q-113 96 -164 123q-165 89 -357 86q-172 0 -305 -93q-70 -53 -104 -118q-40 -75 -43 -164q-7 -198 117 -303q63 -54 147 -86q84 -28 143 -43q111 -27 148 -43q24 -9 31 -15
q14 -11 18 -18q5 -23 -4 -35q-18 -26 -64 -33q-39 -5 -94 2q-84 11 -170 70q-23 16 -46 34.5t-54 46t-45 38.5h31q-30 -33 -54 -64q-33 -39 -97 -116.5t-97 -116.5v28q32 -28 49 -45q60 -51 80 -67q65 -49 141 -84q144 -66 311 -66z" />
    <glyph glyph-name="t" unicode="t" horiz-adv-x="919" 
d="M117 1571q0 20 20.5 20t20.5 -20v-37v-305q0 -9 -6.5 -15t-14.5 -6h-147q3 3 9.5 10t10.5 11v-150v-297q-10 7 -20 21h147q7 0 14 -6.5t7 -14.5v-295v-65q0 -21 2 -31v-12q0 -1 1 -3t1 -3q0 -9 4 -29q4 -23 16 -63q5 -15 13 -35l1 -2h1q0 -4 2 -4q0 -5 4 -9q4 -12 8 -18
q10 -20 20 -35q2 -3 6.5 -9t6.5 -9q2 -2 2 -4v2l2 -2q3 -6 6 -9q5 -6 31 -32q3 -2 9 -7.5t9 -7.5q0 -4 4 -4l2 -2q1 -1 4 -3t4 -3q87 -62 205 -68q150 -13 283 39q44 15 90 47q3 2 9 6.5t9 6.5l2 2q3 2 5 2l6 6q5 4 26 25q18 18 21 22q1 1 2 3t2 3h2q0 4 4 8q9 13 10 17v-21
q-4 8 -13 25t-13 25q-26 51 -76 144t-68 128q6 1 18.5 2t18.5 2q-22 -65 -76 -109q-51 -41 -102 -41q-70 -4 -102 33q-25 29 -21 99v106v182q0 8 6 14.5t15 6.5h14h299l-21 -21v150v297q9 -12 21 -21h-10h-297q-9 0 -15 6t-6 15v37v305q9 -12 21 -21h-154h-295
q-20 0 -20 20.5t20 20.5h152h297q8 0 14 -6.5t6 -13.5v-37v-305q-11 9 -20 20h10h297q7 0 13.5 -6.5t6.5 -13.5v-150v-297q0 -9 -6 -14.5t-14 -5.5h-14h-299l20 20q0 -199 -2 -297q0 -18 2 -26v-6v-3v1q0 -2 1 -5.5t1 -5.5q0 -4 2 -6q-1 0 0 -2q1 -1 2 -4t2 -4l2 -2l2 -2
l4 -4q2 -1 2 -2q1 0 3.5 -1t3.5 -1l4 -2t6 -2t6 -2q15 -3 33 -3q24 0 53 11q42 22 72 67q9 15 18 33q4 8 4 10q1 1 0 -2q5 12 18 15t19 -9q7 -13 20.5 -36.5t20.5 -36.5q51 -101 90 -172q21 -42 33 -62q13 -25 6 -37q-18 -32 -55 -69q-69 -63 -172 -101q-136 -50 -289 -34
q-132 14 -215 73q-131 90 -170 273q-10 51 -10 149v307q9 -11 20 -20h-147q-21 0 -21 20v150v297q0 8 6 14t15 6h147l-20 -20v37v305z" />
    <glyph glyph-name="u" unicode="u" horiz-adv-x="1212" 
d="M524 -8q12 -1 17 -11.5t0 -20.5t-17 -9q-173 0 -291 80q-121 78 -176 219q-39 102 -39 235v101v383v231q0 8 7 14.5t14 6.5h121h301q7 0 13.5 -6.5t6.5 -14.5v-156v-385v-108q0 -51 6 -78q7 -37 21 -55l2 -2v-2q4 0 4 -4q2 0 2 -2q6 -3 8 -5q3 -2 6.5 -2.5t4.5 -1.5
q8 -4 12 -4q24 -4 35 -4q41 0 71 15q37 16 56 45q17 25 20 59q2 13 2 86v356v248q0 8 6.5 14.5t14.5 6.5h120h302q9 0 14.5 -6.5t5.5 -14.5v-35v-268v-397v-359v-155q0 -21 -20 -21h-121h-301q-8 0 -14.5 6t-6.5 15v43q5 -3 15.5 -9.5t15.5 -9.5q-112 -59 -238 -59
q-13 -1 -18 9t0 20.5t18 11.5q114 0 217 53q11 6 21 0.5t10 -16.5v-43l-20 20h120h302q-3 -3 -10.5 -10t-10.5 -10v34v269v395v358v158q4 -5 12 -12t9 -8h-121h-301q11 9 20 20v-201v-374v-74q0 -70 -22 -113q-20 -33 -55 -56.5t-74 -29.5q-92 -9 -132 27q-33 26 -45 96
q-4 26 -4 119v360v246q7 -10 21 -20h-121h-301q2 2 6 5.5t7.5 7t6.5 7.5v-194v-390q0 -11 -0.5 -58t0 -66.5t2.5 -56t6.5 -65.5t12.5 -57q41 -151 153 -233q121 -88 291 -88z" />
    <glyph glyph-name="v" unicode="v" horiz-adv-x="1265" 
d="M467 10q3 -7 -1.5 -14.5t-12.5 -9.5q-17 -6 -25 14q-5 11 -14.5 34t-14.5 34q-108 269 -112 278q-81 206 -150 373q-68 173 -131 325q-9 24 -27.5 70.5t-27.5 69.5q-4 9 3 17.5t17 8.5h131h299q15 0 21 -16q0 -1 3.5 -9.5t4.5 -13.5q25 -59 69 -169.5t58 -145.5
q17 -39 48.5 -117.5t47.5 -117.5h-41l11 22q22 52 64 157.5t63 157.5q15 39 46.5 118t47.5 118q6 16 20 16h131h301q8 0 15.5 -9t3.5 -17q-4 -12 -13.5 -34.5t-13.5 -33.5q-19 -46 -56.5 -139t-55.5 -139q-27 -70 -79 -197.5t-71 -175.5q-21 -54 -65 -163t-66 -163
q-9 -23 -27.5 -69.5t-27.5 -69.5q-8 -16 -21 -16h-65h-308q-20 0 -20 20.5t20 20.5h66h307l-20 -15q12 27 26 68q39 92 113 280q26 62 76.5 185.5t75.5 185.5q77 195 131 326q13 35 55 139q15 -20 20 -25h-133h-299q3 2 10.5 7.5t10.5 7.5q-2 -4 -5.5 -11.5t-5.5 -11.5
q-87 -220 -126 -315q-16 -40 -48 -119t-47 -119q-6 -14 -20.5 -14t-20.5 14q-1 5 -4.5 13.5t-3.5 9.5q-21 53 -63 158.5t-64 158.5q-16 39 -47.5 118t-48.5 118q5 -2 11.5 -8t8.5 -7h-131h-299q3 4 9.5 12.5t9.5 12.5q15 -35 26 -66q13 -31 113 -280q25 -63 76 -187t76 -186
q22 -55 64.5 -163t64.5 -162q24 -55 57 -140z" />
    <glyph glyph-name="w" unicode="w" horiz-adv-x="1820" 
d="M1069 10q3 -12 -6 -19.5t-20.5 -5.5t-14.5 15q-34 141 -72 279q-23 102 -65 262h39v-2q-13 -49 -37 -143t-35 -136q-11 -43 -33 -130t-34 -130q-4 -16 -19 -16h-123h-301q-12 0 -20 16q-4 17 -17 51q-58 181 -90 275q-103 314 -125 379q-19 57 -55.5 168t-54.5 167
q-5 17 -47 146q-3 9 3.5 17.5t16.5 8.5h158h295q17 0 20 -16q42 -148 72 -248q12 -44 37.5 -132t38.5 -132h-39q53 189 71 248q13 44 38 132t38 132q3 16 21 16h100h303q15 0 21 -16q53 -189 71 -248q13 -44 38.5 -132t37.5 -132h-39q42 148 72 248q12 44 37.5 132t38.5 132
q3 16 20 16h158h295q9 0 16 -8.5t4 -17.5q-3 -8 -9 -25.5t-9 -25.5q-15 -46 -44 -137.5t-44 -137.5q-43 -125 -125 -379q-18 -57 -55 -168.5t-56 -167.5q-8 -26 -49 -145q-4 -16 -18 -16h-125h-299q-20 0 -20 21.5t20 21.5h122h302q-16 -12 -21 -17q13 39 16 51
q67 199 91 275q20 64 61.5 189.5t62.5 189.5q55 169 111 336q43 133 47 145q9 -9 21 -25h-160h-293q3 2 9 7.5t9 7.5q-53 -189 -71 -248q-14 -52 -41.5 -146t-34.5 -120q-4 -14 -20 -14t-19 14q-44 149 -72 250q-13 44 -38.5 132t-38.5 132q5 -2 11.5 -8t8.5 -7h-100h-303
q3 2 9 7.5t9 7.5q-42 -148 -72 -248q-63 -228 -75 -266q-4 -14 -19 -14t-20 14q-44 149 -72 250q-14 44 -76 264q3 -2 9.5 -7.5t9.5 -7.5h-160h-293q3 4 9 12.5t9 12.5q18 -48 19 -51q58 -181 90 -273q21 -64 62 -190.5t61 -189.5q16 -49 34.5 -105t41 -124.5t34.5 -106.5
q8 -25 25 -73t25 -73q-16 12 -21 17h123h301q-3 -3 -10 -8.5t-10 -8.5v2q12 46 35 138.5t36 138.5q8 29 31.5 121t36.5 141q3 15 19.5 15t19.5 -15q12 -44 35 -137t36 -142q11 -44 33.5 -131t34.5 -131z" />
    <glyph glyph-name="x" unicode="x" horiz-adv-x="1105" 
d="M745 10q4 -6 2 -14.5t-8 -13.5q-16 -8 -28 8q-2 2 -5.5 6t-5.5 6q-25 36 -54.5 77.5t-65 90.5t-54.5 76h35q-28 -39 -83.5 -118t-82.5 -118q-1 -1 -4 -6t-4.5 -7t-5 -6t-6 -6t-6 -3.5t-7.5 -1.5h-32h-166h-287q-11 0 -17.5 10.5t-0.5 19.5q3 5 26 40t35 54
q36 53 106.5 160t106.5 160q21 31 63.5 95t63.5 95v-20q-13 23 -47 72q-143 222 -205 315q-22 34 -129 199q-6 10 0.5 20t18.5 10h252h182h53h10q9 0 21 -12q18 -29 157 -244h-36q88 129 155 232q1 2 4.5 6.5t5.5 6.5t5.5 5t7 4.5t8.5 1.5h37h170h284q11 0 18 -10t1 -20
q-14 -19 -53 -78q-20 -29 -95.5 -140t-117.5 -171q-21 -33 -65 -97.5t-66 -97.5v20q12 -16 34 -49t33 -49q12 -17 92 -136.5t123 -180.5q21 -32 64 -95.5t65 -95.5q6 -9 0 -19.5t-18 -10.5h-217h-285q-19 0 -19 20t19 20h219h283q-2 -5 -17 -30q-12 16 -34 48.5t-33 49.5
q-22 32 -97.5 145t-117.5 173q-21 31 -64 95t-65 95q-7 10 0 20q8 14 25.5 39t25.5 39q40 58 113 165.5t100 146.5q117 172 133 194q3 -5 8 -15.5t8 -15.5h-208h-285q15 10 16 11q0 -2 -2 -4q-19 -28 -75.5 -111.5t-86.5 -130.5q-7 -9 -17.5 -9t-18.5 9q0 2 -2 4
q-59 93 -158 242q3 -2 9 -5.5t9 -5.5h-213h-284q11 18 16 31q34 -49 47 -72q41 -61 115 -175.5t90 -139.5q107 -165 129 -199q8 -8 0 -20q-10 -15 -31 -45.5t-31 -46.5q-35 -53 -105 -160t-105 -160q-22 -31 -65 -95.5t-64 -96.5q-2 5 -17 30h199h286q-2 -2 -8 -5.5t-8 -4.5
q1 2 4 6.5t4 6.5q29 41 86.5 122.5t85.5 122.5q6 9 17.5 9t17.5 -9q8 -12 10 -14q28 -41 86.5 -122t87.5 -122z" />
    <glyph glyph-name="y" unicode="y" horiz-adv-x="1271" 
d="M207 -477q-8 -21 -25 -15q-8 2 -12.5 10t-1.5 15q10 24 27 64q54 136 139 340q53 129 92 223q0 -2 1 -8t1 -9q-1 2 -3 6.5t-3 6.5q-70 136 -105 206q-30 57 -89 173.5t-89 173.5q-27 55 -83 162.5t-83 162.5q-13 24 -37 72.5t-36 73.5q-5 9 0.5 19.5t17.5 10.5h254h277
q15 0 18 -14v-2q25 -63 104 -266q16 -42 48.5 -126t48.5 -126h-39v2q75 208 94 262q43 115 90 256q7 14 21 14h239h279q10 0 17 -8.5t3 -17.5q-1 -3 -4 -10t-5.5 -13.5t-4.5 -11.5q-13 -34 -40.5 -101.5t-41.5 -101.5q-68 -173 -131 -325q-24 -63 -74.5 -188t-75.5 -187
q-68 -166 -143 -355q-37 -88 -107 -264q-7 -17 -21.5 -52t-21.5 -52q-8 -15 -20 -15h-209h-285q-20 0 -20 20.5t20 20.5h209h285q-3 -3 -9 -8t-9 -8q9 26 14 35l82 205q14 36 40.5 101t48.5 119.5t42 102.5q25 62 74.5 187t74.5 188q83 202 144 356q11 27 106 265
q7 18 21.5 52t21.5 52q5 -8 19 -27h-238h-280q3 2 10 7.5t10 7.5q-28 -75 -94 -262q-16 -43 -46.5 -128t-45.5 -128q-5 -15 -19 -14.5t-20 14.5q-35 90 -105 266q-46 126 -96 252q1 -1 8.5 -7t12.5 -8h-254h-277q11 18 16 31q34 -63 46 -88q30 -57 84.5 -165t66.5 -132
q30 -59 90.5 -178t91.5 -178q109 -213 131 -254q3 -7 9.5 -20.5t9.5 -20.5q5 -8 -4 -31q-3 -8 -9.5 -23.5t-9.5 -23.5q-24 -56 -70.5 -169.5t-70.5 -170.5q-53 -129 -92 -223z" />
    <glyph glyph-name="z" unicode="z" horiz-adv-x="1126" 
d="M61 2q0 -19 -20.5 -19t-20.5 19v152v172q0 25 7 34q11 11 20 23q39 43 116 129t116 129q90 100 167 188q2 -6 7.5 -18t7.5 -18h-78h-305q-8 0 -14.5 6.5t-6.5 13.5v74v305q0 9 6.5 14.5t14.5 5.5h69h334h387h187q20 0 20 -20v-160v-160q0 -14 -6 -20q0 -4 -4 -4
q-16 -20 -25 -29q-40 -44 -119.5 -133t-119.5 -133q-28 -30 -83.5 -91.5t-82.5 -92.5q-2 7 -7.5 19.5t-6.5 14.5h172h292q8 0 14.5 -5.5t6.5 -14.5v-74v-307q0 -7 -6.5 -13.5t-14.5 -6.5h-124h-363h-381h-176q-20 0 -20 20.5t20 20.5h125h360h381h178q-10 -7 -20 -21v76v305
q3 -3 9.5 -10t10.5 -11h-172h-292q-13 0 -18.5 13t3.5 22q28 34 29 35q40 44 119.5 132t119.5 132q27 30 83 92t83 93q-1 -2 -3 -7.5t-3 -7.5v25v301l21 -21h-68h-336h-387h-186q4 4 10.5 11t9.5 10v-72v-307q-10 14 -20 21h78h305q13 0 18 -12t-4 -23q-11 -11 -20 -23
q-39 -43 -116 -129t-116 -129q-28 -32 -84.5 -94t-83.5 -94q2 6 6 14v-37v-305z" />
    <glyph glyph-name="braceleft" unicode="{" 
 />
    <glyph glyph-name="bar" unicode="|" horiz-adv-x="1267" 
d="M698 1786q20 0 20 -20.5t-20 -20.5h-145q9 11 20 20v-26v-207v-344v-406v-383v-288v-115q-14 14 -20 22h145q-6 -8 -20 -22v29v206v344v404v385v289v112q0 20 20.5 20t20.5 -20v-26v-207v-344v-406v-383v-288v-115q0 -8 -6 -14.5t-15 -6.5h-145q-9 0 -15 6.5t-6 14.5v29
v206v344v404v385v289v112q0 9 6 15t15 6h145z" />
    <glyph glyph-name="braceright" unicode="}" 
 />
    <glyph glyph-name="asciitilde" unicode="~" 
 />
    <glyph glyph-name="exclamdown" unicode="&#xa1;" horiz-adv-x="1269" 
d="M799 1755q0 20 20.5 20t20.5 -20v-49v-305q0 -9 -6 -15t-15 -6h-71h-308q-8 0 -14 6t-6 15v47v307q0 8 6.5 14.5t13.5 6.5h74h305q20 0 20 -20.5t-20 -20.5h-71h-308q14 10 21 20v-49v-305q-3 3 -10 9.5t-11 10.5h74h305q-9 -11 -20 -20v47v307zM739 1202q-1 8 6 14.5
t15 6.5q16 0 20 -21q4 -32 4 -53q19 -192 33 -361q4 -43 11.5 -128t11.5 -128v-75v-185v-276q0 -8 -6 -14.5t-15 -6.5h-76h-307q-7 0 -13.5 6.5t-6.5 14.5v67v373v94q0 10 1 21t2.5 24t2.5 21q4 54 15 177.5t16 189.5q3 40 10 119.5t10 119.5q3 21 21 21h266q20 0 20 -20.5
t-20 -20.5h-266l20 20q-1 -8 -2 -26t-2 -27q-5 -61 -15.5 -180.5t-15.5 -180.5q-4 -43 -11 -128t-11 -128v-75v-185v-276q-3 4 -21 22h78h305q-6 -8 -20 -22v67v373v94q0 10 -1 21t-2.5 24t-2.5 21q-16 188 -33 367q-3 40 -10.5 119.5t-10.5 119.5z" />
    <glyph glyph-name="cent" unicode="&#xa2;" horiz-adv-x="1269" 
d="M901 569q7 11 17 11.5t17 -9.5t1 -22q-20 -33 -37 -66q-26 -48 -88 -73q-11 -5 -21 -0.5t-10 16.5v66v307q0 12 10 17.5t21 0.5q57 -31 90 -72q7 -9 22.5 -27.5t22.5 -27.5h-28q8 10 25.5 31t25.5 31q5 6 194 235q0 -4 -1 -12t-1 -12q-6 7 -17.5 21.5t-17.5 21.5l3 -3
l-7 9l-14 14q-3 3 -8 8.5t-10 10t-9 8.5q-26 26 -53 47q-56 46 -106 69q-51 23 -127 37q-6 0 -10.5 6.5t-4.5 12.5v98q3 -3 10.5 -10t10.5 -10h-172l20 20v-94q0 -17 -20 -21q-110 -14 -211.5 -63t-171.5 -127q-116 -128 -135 -313q-23 -181 30 -328q50 -148 162 -232
q130 -100 326 -120q8 0 14 -6t6 -15v-94l-20 20h172q-3 -3 -10.5 -10t-10.5 -10v96q0 17 15 21q75 9 141 43q74 36 115 77q49 46 75 91q5 8 14.5 25.5t14.5 25.5q1 -4 2 -12.5t2 -12.5q-33 38 -61 66q-44 50 -195 215q-8 9 -3.5 20.5t14 13.5t18.5 -6q10 -12 31.5 -34
t31.5 -33q121 -135 193 -213q12 -12 2 -25q-5 -9 -15.5 -28.5t-15.5 -28.5q-36 -53 -84 -98q-109 -101 -268 -127q6 12 14 20v-96q0 -8 -6.5 -14.5t-13.5 -6.5h-172q-9 0 -15 6.5t-6 14.5v94q3 -3 10.5 -10t10.5 -10q-137 13 -256 69.5t-193 157.5q-86 119 -108 278
q-26 197 28 357q34 93 80 155q50 68 121 121q145 105 328 127q-3 -3 -10.5 -10t-10.5 -10v94q0 8 6 14t15 6h172q7 0 13.5 -6.5t6.5 -13.5v-98q-2 2 -14 20q134 -20 252 -117q8 -6 17.5 -14.5t20.5 -19t17 -15.5q35 -35 49 -53q19 -27 33 -43q8 -11 -4 -27q-31 -39 -51 -61
q-45 -56 -195 -233q-4 -6 -14 -6t-14 6q-7 9 -23 27.5t-23 27.5q-37 43 -81 63q5 3 15 9.5t15 9.5v-66v-307l-30 18q31 12 63 48l6 6q2 2 6 10q8 16 35 61zM582 485q12 -16 0 -28q-6 -6 -15 -6t-14 6q-35 41 -49.5 96t-5.5 109q9 50 37 96q28 44 83 69q9 5 20 0t11 -16v-84
v-305q0 -12 -11 -18t-20 -1q-33 19 -65 54q-9 9 -4.5 20t14 13.5t19.5 -5.5q29 -33 57 -45q-5 -3 -15.5 -9t-15.5 -9v84v305q5 -3 15.5 -9t15.5 -9q-48 -23 -70 -60q-23 -36 -32 -82q-13 -95 45 -166z" />
    <glyph glyph-name="sterling" unicode="&#xa3;" horiz-adv-x="1376" 
d="M-70 362q-12 -6 -22 1t-9.5 17t11.5 17q22 15 55 33q52 27 66 37q60 41 98 104q30 53 33 138q10 -14 20 -21h-213q-8 0 -14 6t-6 15v100v305q0 8 6.5 14.5t13.5 6.5h115q-9 -15 -18 -27q-27 147 -3 264q36 176 166 291q122 107 291 139q190 31 338 -18q154 -52 256 -172
q100 -125 125 -285q4 -23 11.5 -71t11.5 -72q2 -8 -2.5 -16.5t-12.5 -8.5q-38 -7 -133 -20q-147 -24 -297 -45q0 13 -4 41h80q7 0 13.5 -6.5t6.5 -14.5v-102v-303q0 -9 -6 -15t-14 -6h-266q3 3 9.5 10t10.5 11q-8 -101 -55 -207q-2 5 -6 14t-6 14q38 -5 106.5 -19.5
t87.5 -18.5q10 -2 31 -6.5t31 -6.5q3 0 9 -1t9 -1h2q2 -2 4 -2h6q11 0 17 -2q4 0 6 2h6q-4 -1 -1 -1q4 1 5 1q47 10 111 39q21 10 64.5 30.5t64.5 30.5q20 10 30 -12q8 -25 26 -73t22 -60q19 -54 54.5 -156t43.5 -124q4 -16 -10 -23q-74 -32 -103 -43q-113 -50 -176 -64
q-148 -35 -291 5q-26 7 -75 22.5t-68 20.5q-11 3 -36 10t-40 10q-34 8 -86 4q-40 -3 -88 -16q-61 -20 -119 -56q-16 -11 -58.5 -38t-66.5 -43q-18 -9 -30 12q-11 30 -33 85t-27 66q-18 45 -53.5 136.5t-54.5 136.5q-3 7 1.5 14.5t12.5 9.5q18 6 25 -14q47 -116 59 -149
q18 -45 55 -136.5t56 -136.5q-5 2 -15.5 6t-15.5 6q16 9 46.5 29t45.5 29q76 51 135 73q103 35 184 27q39 -5 86 -18q25 -7 75.5 -22.5t74.5 -22.5q56 -14 70 -17q96 -18 192 0q70 14 148 47q30 11 84 34.5t65 27.5q-2 -4 -5 -11.5t-5 -11.5q-7 22 -22.5 66t-22.5 67
q-16 47 -50 140.5t-51 140.5q5 -2 15.5 -6t15.5 -6q-97 -47 -158 -74l-17.5 -7t-18.5 -7.5t-17 -6.5t-18.5 -6t-17.5 -4t-19 -2q-13 -2 -37 2q-50 6 -146 27.5t-141 28.5q-10 1 -13 12t1 18q41 96 49 187q0 8 6 14t15 6h266q-4 -4 -11 -10.5t-10 -9.5v100v305q7 -10 21 -20
h-80q-11 0 -17 9.5t-3 19t14 10.5q38 7 133 20q46 7 145.5 22.5t151.5 22.5q-6 -8 -14 -24q-2 10 -5.5 30.5t-5.5 28.5q-19 144 -53 223q-61 145 -184 227q-136 86 -301 89q-180 6 -320 -72q-148 -80 -217 -230q-71 -158 -33 -352q2 -9 -4 -16.5t-16 -7.5h-115q1 1 9 8
t12 12v-102v-303q-1 1 -9 8t-12 12h213q8 0 14.5 -6.5t6.5 -13.5q-4 -98 -37 -156q-42 -70 -107 -117q-32 -22 -71 -41q-9 -5 -29 -16.5t-29 -16.5zM848 1096q0 -9 -6.5 -15t-14.5 -6q-20 0 -20 21q-8 49 -10 78q-10 76 -13 88q-18 82 -77 108q-27 12 -72 8q-39 -4 -60 -22
q-32 -25 -40 -56q-3 -14 -3 -55q4 -52 27 -145q-4 4 -20 16h2h286q20 0 20 -20.5t-20 -20.5h-2h-286q-15 0 -19 15q-17 61 -22 114q-8 50 -6 78q4 57 46 95.5t99 41.5q90 7 143 -55q38 -43 49 -127q3 -24 9.5 -71t9.5 -70z" />
    <glyph glyph-name="currency" unicode="&#xa4;" 
 />
    <glyph glyph-name="yen" unicode="&#xa5;" 
 />
    <glyph glyph-name="brokenbar" unicode="&#xa6;" 
 />
    <glyph glyph-name="section" unicode="&#xa7;" 
 />
    <glyph glyph-name="copyright" unicode="&#xa9;" horiz-adv-x="1968" 
d="M1042 260q20 0 20 -20.5t-20 -20.5h-16q-198 3 -348 84q-88 51 -131 98q-49 53 -84 117q-67 129 -74 305q-3 203 76 355q82 149 240 233q168 86 329 80q84 0 164 -21q74 -22 135 -65q66 -44 135 -117q9 -11 27 -33.5t27 -33.5q7 -14 -4 -25q-8 -10 -26 -30.5t-26 -30.5
q-39 -46 -108.5 -131.5t-85.5 -104.5q-5 -5 -14.5 -5.5t-14.5 5.5t-15.5 18.5t-15.5 18.5q-25 35 -61 63q-81 58 -156 41q-78 -15 -116 -96q-34 -72 -7 -158q13 -38 39.5 -68.5t61.5 -41.5q22 -10 47 -10q46 0 84 14q38 11 65 41q2 2 6.5 6t6.5 6l2 2l2 2l-2 -4l4 8
q25 41 39 68q5 8 14.5 9.5t15.5 -5.5q10 -12 31 -34t31 -34q19 -21 87.5 -97t106.5 -116q11 -14 3 -24q-20 -42 -41 -72q-49 -68 -107 -112q-148 -105 -326 -105q-20 0 -20 20.5t20 20.5q171 0 304 100q55 38 98 105q16 23 37 63q1 -4 2 -12t2 -12q-42 42 -62 65
q-65 74 -194 215q13 0 33 4q-5 -10 -25 -45q-16 -27 -27 -41q-30 -33 -63 -49q-41 -18 -84 -24q-83 -11 -131 20q-74 45 -100.5 135.5t6.5 169.5q23 48 47 72q33 33 73 47q76 29 162 -10q37 -17 80 -51l25 -25q14 -19 47 -57h-29q31 39 51 61q63 78 195 234q-1 -4 -2 -12.5
t-2 -12.5q-3 4 -9.5 12.5t-9.5 12.5q-2 3 -5 8t-5 8q-1 0 -2 1t-2 1q-60 67 -113 107q-61 47 -112 67q-66 24 -121 29q-178 19 -330 -47q-172 -76 -254 -207q-92 -139 -92 -340q0 -175 64 -303q32 -65 79 -115q41 -45 125 -96q142 -78 344 -78zM983 -14q20 0 20 -20.5
t-20 -20.5q-147 0 -288 46.5t-257 135.5q-145 111 -236.5 269t-113.5 339q-23 183 29 363.5t170 322.5q117 141 278.5 227t341.5 99q185 15 362.5 -43.5t313.5 -181.5q137 -122 216.5 -288t86.5 -349q6 -184 -59.5 -358.5t-192.5 -305.5q-128 -132 -297.5 -204t-353.5 -72
q-20 0 -20 20.5t20 20.5q210 0 397 96q155 82 268 218.5t162 303.5q52 179 26 364.5t-126 342.5q-94 149 -242 250t-321 133q-182 35 -362 -7.5t-326 -154.5q-142 -108 -230.5 -266.5t-103.5 -335.5q-17 -181 41 -356t180 -308q118 -127 279 -203q171 -77 358 -77zM983 1683
q13 1 18 -9t0 -20.5t-18 -11.5q-173 0 -332.5 -73t-273.5 -205q-119 -138 -164.5 -319t-7.5 -359q35 -174 143.5 -318t267.5 -227q164 -85 353.5 -88t355.5 76q161 77 275 216t155 310q45 178 6 361t-153 325q-112 139 -271 220q-161 81 -354 81q-13 1 -18 11.5t0 20.5t18 9
q79 0 152 -12q178 -32 328.5 -137.5t240.5 -261.5q95 -162 111.5 -353t-50.5 -366q-63 -168 -191 -296t-296 -191q-174 -68 -366 -52t-353 113q-156 93 -261.5 242.5t-137.5 326.5q-35 189 16 375q51 180 168 318q118 139 286 216.5t353 77.5z" />
    <glyph glyph-name="guillemotleft" unicode="&#xab;" 
 />
    <glyph glyph-name="logicalnot" unicode="&#xac;" 
 />
    <glyph glyph-name="registered" unicode="&#xae;" horiz-adv-x="1970" 
d="M1264 702q-11 -7 -21 0t-10 17.5t10 17.5q68 41 103 99q37 60 43 137q14 169 -66 272q-90 117 -289 117h-108h-303l20 20v-110v-354v-383v-181q-10 14 -20 21h272q-2 -2 -6.5 -6t-8 -7.5t-6.5 -7.5v6v291q0 7 7 14t14 7h35q34 0 41 -10q11 -21 20 -33l78 -132l78 -132
q-11 7 -19 10h25h303q-3 -5 -9 -15.5t-9 -15.5q-4 6 -26.5 42.5t-33.5 55.5q-106 172 -157 258q-4 6 -2 15t8 12q12 8 16 10q12 7 22 0t10 -17.5t-11 -17.5q-2 -2 -8.5 -5t-8.5 -5q1 5 4 14.5t4 14.5q10 -17 30 -49t30 -49q133 -215 158 -258q6 -9 0 -20t-17 -11h-117h-182
q-2 0 -9 -0.5t-11 0t-9.5 1t-9.5 3t-6 6.5q-10 15 -20 35q-9 15 -158 262q3 -2 9 -5t9 -5h-57l20 20v-6v-291q0 -8 -6.5 -14t-13.5 -6h-272q-8 0 -14.5 6.5t-6.5 13.5v111v356v383v178q0 9 6.5 15t14.5 6h305h106q206 0 309 -119q52 -61 73.5 -142t13.5 -165
q-7 -93 -50 -162q-46 -74 -116 -113zM973 954q20 0 20 -20.5t-20 -20.5h-84q-7 0 -14 6.5t-7 14.5v199q0 7 6.5 13.5t14.5 6.5h12h82q102 -8 121 -82q10 -33 2 -70t-35 -59q-42 -29 -98 -29q-20 0 -20 20.5t20 20.5h20q-1 1 2 2h4q2 0 6.5 1t6.5 1q22 6 35 19q8 6 14 18
t6 23q4 42 -14 63q-25 31 -92 31h-72q5 4 12 12t8 9v-199q-2 2 -5.5 6t-7 7.5t-7.5 6.5h84zM1817 1221q8 -19 -9 -29q-6 -4 -14.5 -2t-13.5 10q-79 184 -226 313q-136 121 -312.5 176t-358.5 33q-175 -20 -331.5 -111.5t-260.5 -234.5q-109 -148 -148.5 -330t-1.5 -362
q38 -173 142.5 -319t255.5 -236q160 -96 344 -119t362 33q168 54 303 170t211 272q83 167 88 357.5t-69 361.5q-3 7 2 15t12 10q19 6 27 -15q58 -137 67 -290t-31 -297q-47 -172 -157.5 -315t-265.5 -230q-163 -95 -352.5 -115.5t-368.5 39.5q-169 54 -307 170t-220 273
q-87 168 -99.5 358.5t52.5 368.5q62 167 182.5 300t280.5 207q171 80 363 85t368 -68q164 -68 290.5 -192.5t195.5 -286.5zM1720 559q3 7 12 9t15 -3q15 -8 8 -26q-31 -73 -63 -121q-97 -153 -251.5 -253.5t-332.5 -125.5q-198 -28 -375 29q-180 58 -309 178
q-137 123 -209 295t-65 356q6 182 89.5 347.5t227.5 279.5q145 114 324 155q189 45 374 4q175 -38 322 -148.5t233 -268.5q90 -167 100 -357t-63 -366q-8 -21 -24 -15q-8 2 -13 10t-2 15q70 165 62 349t-94 341q-85 158 -230 265t-319 139q-180 35 -360 -13.5t-316 -169.5
q-132 -114 -205 -278q-75 -173 -66 -361q9 -180 96.5 -340t233.5 -264q152 -108 335.5 -139t361.5 22q169 53 301.5 172.5t201.5 282.5z" />
    <glyph glyph-name="degree" unicode="&#xb0;" horiz-adv-x="532" 
d="M195 1292q79 0 136.5 57.5t57.5 137.5q0 79 -57.5 136.5t-136.5 57.5q-80 0 -137.5 -57.5t-57.5 -136.5t58 -137t137 -58zM195 1622q55 0 95 -40t40 -95t-40 -95t-95 -40q-56 0 -96 40t-40 95t40 95t96 40z" />
    <glyph glyph-name="plusminus" unicode="&#xb1;" 
 />
    <glyph glyph-name="paragraph" unicode="&#xb6;" 
 />
    <glyph glyph-name="periodcentered" unicode="&#xb7;" 
 />
    <glyph glyph-name="guillemotright" unicode="&#xbb;" 
 />
    <glyph glyph-name="questiondown" unicode="&#xbf;" horiz-adv-x="1296" 
d="M872 1780q0 20 20.5 20t20.5 -20v-78v-307q0 -8 -6.5 -14.5t-13.5 -6.5h-70h-307q-7 0 -13.5 6.5t-6.5 14.5v80v305q0 8 6 14t14 6h72h305q20 0 20 -20.5t-20 -20.5h-70h-307q4 3 7.5 6.5t7.5 8t6 6.5v-78v-307q-17 17 -21 20h72h305q-3 -3 -10.5 -10t-10.5 -10v80v305z
M868 1298q0 20 20.5 20t20.5 -20v-61q0 -177 -35 -276q-42 -123 -184 -261q-35 -35 -53 -51q-5 -5 -20 -18.5t-25 -24.5t-17 -22q-29 -42 -34 -74q-5 -36 8 -78q11 -33 33 -51q25 -17 57 -23q36 -5 84 -2q47 8 68 23q27 18 43 47q-1 1 2 6q1 1 2 4t2 4q5 20 6 23
q14 54 18 196q0 9 6 15t15 6h45h305q20 0 20 -21q0 -152 -8 -206q-26 -163 -123 -281q-104 -119 -245 -162q-152 -51 -328 -18q-165 37 -270 139q-118 115 -142 272q-29 195 56 322q49 75 196 217q61 58 90 100q1 2 11 17q0 1 1 3t1 3q2 0 2 2q7 21 10 39q4 21 6 48.5
t2.5 44.5t0 53t-0.5 46q0 8 6 14.5t15 6.5h47h307q20 0 20 -20.5t-20 -20.5h-47h-307l20 20q0 -128 -4 -165q-8 -56 -21 -86q-11 -28 -43 -64q-33 -41 -120 -123q-78 -78 -105 -110q-42 -52 -63 -103q-28 -82 -25 -164q3 -165 96 -280q101 -120 248 -160q164 -43 320 -2
q148 39 245 147q97 112 123 269q8 54 8 202q14 -10 21 -20h-45h-305q9 11 20 20q-1 -16 -2 -48t-2 -48q-2 -38 -6.5 -67t-15 -63t-32 -59.5t-52.5 -39.5q-73 -33 -170 -15q-35 7 -62 25q-29 22 -45 55q-42 88 0 170q18 40 72 90q119 115 160 164q49 59 75 123q29 70 35 137
q8 58 8 215z" />
    <glyph glyph-name="Agrave" unicode="&#xc0;" 
 />
    <glyph glyph-name="Aacute" unicode="&#xc1;" 
 />
    <glyph glyph-name="Acircumflex" unicode="&#xc2;" 
 />
    <glyph glyph-name="Atilde" unicode="&#xc3;" 
 />
    <glyph glyph-name="Adieresis" unicode="&#xc4;" horiz-adv-x="1769" 
d="M1288 4q4 -20 -15.5 -25.5t-25.5 13.5q-4 13 -11 38.5t-11 39.5q-17 52 -46.5 150t-43.5 142q3 -3 10 -8t10 -8h-260h-274q3 3 9 8t9 8q-5 -16 -14 -43.5t-11 -33.5q-39 -132 -90 -293q-8 -15 -20 -15h-195h-289q-9 0 -16 8.5t-4 18.5q5 14 15.5 40t15.5 40
q14 41 43.5 122t44.5 122q55 149 125 346q94 254 139 383q22 59 65 176.5t64 175.5q15 43 46.5 130t47.5 130q6 17 18.5 50t18.5 50q2 6 8 11.5t13 5.5h149h295q16 0 20 -17q5 -13 14.5 -39.5t14.5 -39.5q70 -193 88 -244q60 -160 125 -346q24 -64 70 -191t69 -190
q108 -299 127 -354q15 -39 95 -261q6 -17 18 -50t18 -50q4 -10 -2 -18.5t-16 -8.5h-193h-288q-20 0 -20 20.5t20 20.5h192h289q-11 -11 -20 -26q-5 13 -14.5 40t-14.5 40q-4 10 -88 243q-43 117 -125 347q-24 63 -69.5 190.5t-69.5 191.5q-75 204 -127 355q-33 86 -95 258
q-6 17 -18 50.5t-18 51.5q6 -6 18 -14h-150h-294q12 8 18 14q-5 -14 -14.5 -40t-14.5 -40q-21 -56 -88 -245q-25 -66 -69.5 -189t-57.5 -158q-37 -103 -139 -380q-26 -76 -127 -355q-17 -43 -94 -258q-6 -18 -18.5 -51.5t-18.5 -50.5q-3 6 -11 15t-10 11h195h289l-21 -14
q3 8 8 23.5t9 29t8 25.5q14 43 29 91.5t33.5 107t29.5 92.5q4 14 21 14h258h276q15 0 19 -14q4 -13 12 -38.5t12 -39.5q58 -190 90 -291zM1110 700q6 -16 -14 -24q-20 -3 -27 14q-58 156 -76 203q-77 210 -98 266h39q-14 -34 -39 -102.5t-39 -102.5q-17 -44 -50.5 -132
t-51.5 -132q-18 24 -21 27h49h308q20 0 20 -20.5t-20 -20.5h-50h-307q-9 0 -15.5 7.5t-2.5 16.5q13 35 38.5 103.5t39.5 103.5q15 38 49 126.5t53 135.5q6 15 20.5 15t18.5 -15q23 -59 76 -202q95 -252 100 -267zM795 1898q13 0 18 -10t0 -20t-18 -10h-29h-303
q-8 0 -14.5 5.5t-6.5 14.5v27v305q0 7 6.5 13.5t14.5 6.5h29h303q7 0 13.5 -6t6.5 -14v-29v-303q0 -20 -20.5 -20t-20.5 20v27v305l21 -21h-29h-303q17 17 20 21v-29v-303q-2 2 -6 5.5t-7.5 7t-6.5 7.5h29h303zM1298 1898q13 0 18 -10t0 -20t-18 -10h-28h-303q-21 0 -21 20
v29v303q0 8 6 14t15 6h28h303q8 0 14.5 -6.5t6.5 -13.5v-29v-303q0 -20 -20.5 -20t-20.5 20v29v303q3 -4 20 -21h-28h-303q17 17 20 21v-29v-303q-2 2 -6 5.5t-7.5 7t-6.5 7.5h28h303z" />
    <glyph glyph-name="Aring" unicode="&#xc5;" 
 />
    <glyph glyph-name="AE" unicode="&#xc6;" 
 />
    <glyph glyph-name="Ccedilla" unicode="&#xc7;" horiz-adv-x="1546" 
d="M1284 532q8 9 19.5 6t14 -13.5t-4.5 -20.5l-10 -15q-65 -69 -132 -104q-85 -48 -192 -57q-112 -14 -199 18q-76 30 -135 86q-92 90 -127.5 220.5t-4.5 262.5t124 222q73 69 170 96t197 8q106 -18 198 -82q51 -36 111 -96h-29q15 18 33 39q129 155 235 280v-28
q-92 96 -110 114q-151 138 -312 177q-94 20 -196 20q-100 3 -195 -18q-206 -42 -370 -162q-166 -122 -250 -307q-78 -177 -78 -410q3 -217 65 -373q64 -162 193 -276q147 -127 365 -178q9 -3 13 -11t1 -16q-87 -298 -94 -320q-3 4 -9.5 13.5t-9.5 13.5q16 0 50.5 -1t52.5 -1
q55 0 96 -8q31 -3 53 -19q15 -9 8 -26q-8 -20 -59 -35q-49 -10 -123 -10q-63 2 -184 10l20 20q-5 -49 -14 -147t-14 -147q-2 3 -7.5 9t-7.5 9q143 -25 205 -27q188 -8 299 33q83 31 145.5 96.5t73.5 147.5q13 98 -43 172q-58 75 -160 104q-7 1 -11.5 9t-2.5 16l11.5 34.5
t11.5 33.5q3 14 18 14q208 10 363 115q121 79 202 208q1 -4 2 -12t2 -12q-16 16 -22 24q-123 138 -246 273q-8 9 -3.5 20.5t14 13.5t18.5 -6l24 -24q153 -172 244 -272q11 -11 4 -25q-93 -143 -219 -223q-166 -111 -383 -121q3 3 10.5 8t10.5 8q-14 -40 -21 -67q-6 8 -14 24
q94 -28 145 -82q70 -66 84 -145q13 -80 -16 -156t-90 -131q-125 -112 -340 -119q-103 -6 -222 11q-20 2 -58 9t-48 9q-14 4 -14 21q5 49 14 147t14 147q0 8 6 14.5t15 6.5q117 -8 178 -10q76 0 113 8q3 1 9 2t9 2q2 2 6 2q1 1 4 2q1 1 0.5 1t-2.5 -1q14 7 15 8q1 -5 3 -14
t3 -14q-18 10 -47 14q-41 6 -93 6q-15 0 -46 1t-46 1q-10 0 -16.5 8t-3.5 17v2q12 38 94 319q2 -4 7 -13t7 -13q-168 42 -284 116q-159 103 -250 258q-87 157 -109 344q-28 216 20.5 421t180.5 358q133 150 327.5 231t399.5 78q218 -3 362 -84q74 -40 139.5 -98.5
t141.5 -141.5q14 -14 0 -28q-1 -2 -14 -16.5t-19 -22.5q-37 -44 -115 -138t-120 -143q-5 -6 -14 -6t-15 6q-55 55 -88 78q-79 60 -172 84q-182 44 -319 -57q-102 -76 -142.5 -202.5t-11 -256t120.5 -217.5q61 -58 129 -80q89 -28 198 -12q109 17 183 67q43 28 102 94z" />
    <glyph glyph-name="Egrave" unicode="&#xc8;" 
 />
    <glyph glyph-name="Eacute" unicode="&#xc9;" 
 />
    <glyph glyph-name="Ecircumflex" unicode="&#xca;" 
 />
    <glyph glyph-name="Edieresis" unicode="&#xcb;" 
 />
    <glyph glyph-name="Igrave" unicode="&#xcc;" 
 />
    <glyph glyph-name="Iacute" unicode="&#xcd;" 
 />
    <glyph glyph-name="Icircumflex" unicode="&#xce;" 
 />
    <glyph glyph-name="Idieresis" unicode="&#xcf;" 
 />
    <glyph glyph-name="Eth" unicode="&#xd0;" 
 />
    <glyph glyph-name="Ntilde" unicode="&#xd1;" horiz-adv-x="1728" 
d="M1251 -12q5 -6 3 -15t-9 -14q-15 -9 -28 8q-2 2 -6.5 7.5t-6.5 7.5q-25 33 -74 98t-73 98q-46 59 -129.5 169t-108.5 142q-83 108 -219 289q-16 21 -48.5 64t-49.5 65q11 1 39 11v-44v-313v-391v-193q0 -7 -6.5 -13.5t-14.5 -6.5h-182h-291q-9 0 -14.5 6t-5.5 14v25v205
v342v403v385v289v115q0 8 5.5 14t14.5 6h313h111q5 0 11 -5t10.5 -10.5t10.5 -13.5t7 -10q28 -36 82 -107.5t82 -107.5q40 -52 119.5 -157.5t119.5 -157.5q43 -55 120 -157t97 -128l48 -63t49 -62q-16 -2 -39 -10v62v329v389v189q0 7 6 13.5t14 6.5h183h290q9 0 15 -6t6 -14
v-27v-203v-344v-401v-387v-287v-115q0 -8 -6 -14t-15 -6h-151h-295q-20 0 -20 20.5t20 20.5h149h297q-3 -3 -10 -10.5t-10 -10.5v25v205v342v403v385v289v115q3 -3 10 -10.5t10 -10.5h-182h-291l21 21v-62v-329v-389v-189q0 -14 -15 -18q-11 -5 -24 8q-3 5 -21 29
q-130 171 -163 215q-9 12 -101 132.5t-141 182.5q-20 26 -97 128t-120 157q-16 20 -47 62t-47 63q15 -10 18 -11h-125h-299l21 21v-27v-203v-344v-401v-387v-287v-115l-21 21h182h291q-3 -3 -10 -10.5t-10 -10.5v43v314v391v193q0 14 14 18q14 3 25 -8q2 -3 5 -8.5t5 -8.5
q25 -33 74.5 -97t74.5 -97q129 -173 238 -311q108 -147 219 -291q19 -23 52 -68t44 -59zM440 1886q0 -19 -20.5 -19t-20.5 19q0 55 2 82q15 157 93 242q81 87 215 67q67 -9 157 -59q79 -44 86 -47q48 -25 74 -29h25h6q2 2 8 2q2 2 6 2h-2q2 1 2 2q4 0 8 4q1 1 2 2.5t2 2.5
t3.5 3t3.5 3l2 2q1 1 2 3t2 3q4 4 4 10q4 9 8 23q10 38 10 71q4 21 21 21h170q8 0 14 -6t6 -15q0 -55 -2 -82q-15 -153 -82 -227q-75 -81 -198 -74q-79 5 -179 56q-24 11 -82 45q-52 26 -59 28q-3 1 -13 4t-16 3h-2h-6q-6 3 -12 0q2 1 0 1q-3 -1 -4 -1l-4 -3h-1h-1
q-2 -2 -6 -2q-1 -1 -2.5 -2t-2.5 -2l-2 -2l-8 -8q-2 -2 -2 -4l-4 -4l-6 -12q-8 -15 -10 -27q-11 -44 -13 -76q0 -8 -5.5 -14t-14.5 -6h-172q-20 0 -20 20.5t20 20.5h172l-21 -21q3 44 15 84q19 75 69 94q43 16 113 -16q17 -7 70 -39q54 -30 88 -43q82 -38 157 -33
q51 3 91 27q43 25 65 63q49 84 49 252q1 -1 9 -8t12 -12h-170l20 20q0 -35 -10 -77q-15 -64 -55 -84q-48 -25 -111 -3q-37 14 -97.5 49.5t-114 58t-107.5 22.5q-18 0 -50 -7q-28 -6 -45 -16q-41 -22 -71 -68q-62 -98 -58 -264z" />
    <glyph glyph-name="Ograve" unicode="&#xd2;" 
 />
    <glyph glyph-name="Oacute" unicode="&#xd3;" 
 />
    <glyph glyph-name="Ocircumflex" unicode="&#xd4;" 
 />
    <glyph glyph-name="Otilde" unicode="&#xd5;" 
 />
    <glyph glyph-name="Odieresis" unicode="&#xd6;" horiz-adv-x="1820" 
d="M889 -8q20 0 20 -20.5t-20 -20.5q-197 0 -361 67q-166 67 -284 191q-122 128 -183 298t-61 357t61 358.5t183 299.5q119 122 284 192q174 68 361 68q196 0 362 -68q171 -73 285 -192q121 -128 182.5 -300t61.5 -358t-61 -356.5t-183 -296.5q-120 -126 -285 -193
q-164 -67 -362 -67q-20 0 -20 20.5t20 20.5q293 0 512 155q138 99 223 252.5t107 329.5q23 185 -16.5 364.5t-143.5 321.5q-99 135 -252 221q-156 86 -338 101q-186 16 -360.5 -34.5t-303.5 -168.5q-125 -110 -198 -272q-68 -162 -78 -351q-6 -188 47 -359t170 -298
q118 -131 274 -195q171 -67 357 -67zM879 1274q20 0 20 -20.5t-20 -20.5q-99 0 -181 -51q-80 -55 -120 -140q-35 -70 -40.5 -153t16 -158.5t75 -138t129.5 -90.5q73 -27 153 -20t144 48q66 42 108 111.5t54 149.5t-6.5 162t-65.5 147q-47 62 -117 96.5t-149 36.5
q-20 0 -20 20.5t20 20.5q141 0 251 -96q103 -95 125 -242q13 -87 -2.5 -172.5t-60.5 -153.5q-45 -70 -113 -114t-149 -54q-82 -11 -161 13.5t-140 79.5q-60 54 -94 131.5t-39 162.5q-10 188 98 314q110 128 285 131zM797 1884q20 0 20 -20.5t-20 -20.5h-27h-305
q-7 0 -14 6.5t-7 14.5v28v303q0 9 6.5 15t14.5 6h29h303q20 0 20 -21v-28v-303q0 -20 -20.5 -20t-20.5 20v28v303q4 -3 21 -20h-27h-305l20 20v-28v-303q-2 2 -5.5 6t-7 7.5t-7.5 6.5h29h303zM1300 1884q20 0 20 -20.5t-20 -20.5h-28h-303q-7 0 -14 6.5t-7 14.5v28v303
q0 9 6.5 15t14.5 6h28h303q9 0 15 -6t6 -15v-28v-303q0 -20 -20.5 -20t-20.5 20v28v303l20 -20h-28h-303l20 20v-28v-303q-2 2 -5.5 6t-7 7.5t-7.5 6.5h28h303z" />
    <glyph glyph-name="multiply" unicode="&#xd7;" horiz-adv-x="1337" 
d="M1040 330q8 -9 4.5 -20.5t-13 -14.5t-19.5 4l-109 109q-35 35 -104.5 104t-104.5 104h29q-52 -52 -107 -104q-105 -108 -208 -211q-6 -6 -14.5 -6t-14.5 6l-33 33l-215 215q-6 6 -6 15.5t6 13.5q17 18 105 106q175 175 210 211v-31q-18 18 -54.5 55t-55.5 56
q-68 70 -207 209q-14 14 0 28l33 33q32 33 68 69t80.5 80t68.5 68q15 14 29 0l108 -108l209 -209h-29q17 17 52.5 52t54.5 54l209 209q14 14 28 0q3 -3 10 -9.5t13 -12.5t10 -11l215 -215q14 -14 0 -28q-52 -56 -104 -107q-35 -35 -105.5 -104.5t-105.5 -104.5v29
q10 -10 48 -49.5t60 -59.5q35 -35 104.5 -104t104.5 -104q14 -14 0 -29q-5 -6 -16.5 -17.5t-16.5 -17.5q-110 -107 -217 -217q-9 -9 -19.5 -4.5t-13.5 14.5t5 21l32 32l218 218v-29q-18 17 -54 53t-55 53q-139 139 -209 211q-6 4 -6 13.5t6 15.5q18 18 54 52.5t53 51.5
q70 72 209 211v-28q-5 5 -15.5 15t-15.5 15q-43 42 -121 121t-96 97h28q-17 -17 -51.5 -53t-52.5 -54q-72 -70 -211 -209q-15 -14 -29 0q-47 44 -108 109l-209 209h29l-35 -35l-215 -215v28q52 -56 108 -108l209 -209q6 -6 6 -15.5t-6 -15.5q-17 -18 -53 -52.5t-53 -51.5
q-35 -35 -104.5 -105.5t-104.5 -105.5v29q5 -5 15 -15.5t15 -15.5q37 -36 218 -217h-29q35 37 104 106q72 70 211 209q6 6 14.5 6t14.5 -6q18 -17 54 -53t54 -53z" />
    <glyph glyph-name="Oslash" unicode="&#xd8;" 
 />
    <glyph glyph-name="Ugrave" unicode="&#xd9;" 
 />
    <glyph glyph-name="Uacute" unicode="&#xda;" 
 />
    <glyph glyph-name="Ucircumflex" unicode="&#xdb;" 
 />
    <glyph glyph-name="Udieresis" unicode="&#xdc;" horiz-adv-x="1550" 
d="M770 -53q20 0 20 -20.5t-20 -20.5q-195 0 -344 67q-145 62 -240 179q-107 130 -143 311q-23 106 -23 227v86v350v385v183q0 8 6 14t15 6h201h286q8 0 14.5 -6.5t6.5 -13.5v-115v-362v-373v-111q0 -86 6 -129q27 -164 141 -196q66 -23 141.5 -3.5t112.5 78.5q9 13 16 27.5
t12.5 27t9.5 30.5t6.5 28.5t4.5 32t3 30t1.5 32t0.5 29.5v32v30v338v387v187q0 8 5.5 14t14.5 6h197h288q8 0 14.5 -6.5t6.5 -13.5v-62v-323v-396v-227q0 -319 -152 -514q-99 -133 -254 -199q-155 -67 -354 -67q-19 0 -19 20.5t19 20.5q195 0 342 65q153 68 244 197
q82 118 114 274q19 103 19 293v350v385v183q10 -14 20 -21h-198h-287q3 3 9.5 10t10.5 11v-150v-377v-356q0 -9 0.5 -54.5t0 -62.5t-3 -52t-8.5 -61.5t-15 -52.5q-22 -68 -74 -114q-59 -50 -137 -56q-92 -10 -158 25q-62 30 -94 92q-8 14 -14 29.5t-10.5 27.5t-8 31.5t-6 29
t-4 33t-2.5 30t-1.5 33t-0.5 30v33v30.5v338v387v187q3 -4 20 -21h-200h-287q17 17 20 21v-47v-310v-397v-248q0 -329 158 -516q96 -116 236 -172q139 -57 315 -57zM686 1825q20 0 20 -20.5t-20 -20.5h-29h-303q-8 0 -14 6t-6 14v29v303q0 8 6.5 14.5t13.5 6.5h29h303
q8 0 14.5 -6.5t6.5 -14.5v-29v-303q0 -20 -20.5 -20t-20.5 20v29v303l20 -20h-29h-303q3 3 10.5 10t10.5 10v-29v-303l-21 21h29h303zM1190 1825q20 0 20 -20.5t-20 -20.5h-29h-303q-9 0 -14.5 6t-5.5 14v29v303q0 8 5.5 14.5t14.5 6.5h29h303q7 0 13.5 -6.5t6.5 -14.5v-29
v-303q0 -20 -20.5 -20t-20.5 20v29v303q3 -3 10.5 -10t10.5 -10h-29h-303q3 3 10.5 10t10.5 10v-29v-303l-21 21h29h303z" />
    <glyph glyph-name="Yacute" unicode="&#xdd;" 
 />
    <glyph glyph-name="Thorn" unicode="&#xde;" 
 />
    <glyph glyph-name="germandbls" unicode="&#xdf;" horiz-adv-x="1550" 
d="M954 12q20 0 20 -20.5t-20 -20.5q-139 0 -258 58q-120 54 -211 166q26 9 35 14v-189q0 -8 -5.5 -14t-14.5 -6h-164h-295q-8 0 -14.5 6.5t-6.5 13.5v72v299v402v358v172q0 365 162 537q117 122 292.5 165.5t348.5 8.5q159 -28 273 -133q129 -119 149 -271
q24 -155 -65 -336q-3 -5 -82 -149q-3 -6 -9.5 -18.5t-9.5 -18.5q0 -1 -1 -3t-1 -3q-1 -1 0 3v-1q0 -1 -3 -9.5t-3 -13.5q-2 6 -2 17q0 -2 4 -6q-3 4 -3.5 4t1.5 -2l4 -4q11 -11 17 -15q6 -6 12 -10q5 -2 12 -7.5t8 -6.5q45 -30 54 -35q131 -86 204 -156q120 -116 140 -262
q29 -169 -45 -317q-34 -70 -89.5 -130t-123.5 -100q-137 -80 -310 -80q-20 0 -20 20.5t20 20.5q87 0 176 25q149 47 250 170q100 118 109 280q7 178 -94 299q-35 42 -88 86q-42 35 -136 99q-66 42 -114 80q-1 1 -7 5.5t-8 8.5q-10 10 -10 16q-4 9 6 33q5 14 33 68
q72 132 84 157q81 180 43 322q-38 150 -172 244q-117 87 -283 100q-188 16 -346 -49q-163 -73 -239 -197q-69 -106 -86 -272q-11 -92 -11 -254v-315v-402v-348v-148q-10 14 -20 21h166h293l-21 -21v189q0 12 13.5 18t21.5 -4q85 -106 203 -160q108 -51 237 -51zM801 532
q-7 11 0 21t17.5 10t17.5 -10q41 -76 71 -102q1 0 2 -1t2 -1q-2 1 -3 2q1 -1 1 -2q14 -9 19 -11q18 -7 33 -4q37 3 57 33q8 13 8 31q0 4 -4 16l-2 2l-12 12q-2 2 -7.5 6.5t-7.5 6.5l-2 2q-2 0 -6 4q-8 4 -12 8q-9 7 -20.5 15t-25.5 17t-22 15q-127 93 -133 98
q-90 74 -125 121q-100 134 -76 293q3 23 8.5 45t15 45.5t16.5 40.5t21.5 43.5t21 38.5t24 41.5t22.5 38.5q5 10 15.5 29.5t15.5 29.5q2 3 5.5 11t4.5 10q0 1 1 3t1 3q0 -2 -1 -2q2 3 3 4q1 4 4.5 12.5t4.5 12.5q0 3 1 8t1 8q1 0 2 2v4v6v0l-1 1l-1 1q-6 12 -19 21
q-24 16 -65 16q-46 0 -76 -12q-24 -10 -39 -25v-1l2 1l-4 -4q-1 -1 -2 -4t-2 -4q0 -1 -1 -2t-1 -2v-1v-1q-8 -19 -10 -33q-14 -54 -17 -115q-2 -42 -2 -251v-394v-217q-5 3 -15.5 9.5t-15.5 9.5h3q249 116 260 121q18 11 28 -7q9 -18 28 -51.5t28 -50.5q6 -11 -1 -21
t-17 -10t-17 10q-9 18 -28 52t-28 51q4 -1 13.5 -4t13.5 -4h-2q-172 -82 -260 -121q-9 -5 -20 0t-11 16v60v350v338q0 69 2 104q3 64 15 129q13 44 22 60q10 18 33 34q65 45 156 27q44 -7 65 -31q27 -23 27 -49q-2 -32 -27 -88q-15 -30 -66 -119.5t-71 -140.5
q-33 -87 -27 -168q6 -85 58 -162l12 -18q2 -2 2 -4q2 0 2 -2q1 0 0 2q15 -20 18 -23q15 -17 62 -59q39 -32 106 -84q10 -7 61.5 -42t76.5 -54q40 -30 47 -41q12 -15 14 -37t-6 -39q-16 -43 -55 -62q-47 -19 -80 -8q-30 9 -52 31q-32 30 -73 106z" />
    <glyph glyph-name="agrave" unicode="&#xe0;" horiz-adv-x="1218" 
d="M729 33q7 3 15 -2t10 -13q6 -18 -15 -26q-5 -2 -32 -11.5t-43 -13.5q-31 -8 -97 -8q-198 3 -340 113q-141 107 -194 276q-56 159 -19 338.5t158 298.5q117 121 281 156q83 15 165 12q45 -4 68 -10q27 -6 53 -19q-16 -12 -24 -20v78q0 20 20 20h125q98 2 299 2q9 0 15 -6
t6 -14v-29v-262v-395v-361v-157q0 -8 -6 -14.5t-15 -6.5h-125h-299q-9 0 -14.5 6.5t-5.5 14.5v32q0 20 20.5 20t20.5 -20v-32q-4 3 -21 20h125h299l-20 -20v28v262v396v360v158q3 -3 10 -10.5t10 -10.5h-125q-50 0 -150 -1t-149 -1q9 12 21 21v-78q0 -8 -9.5 -15.5
t-17.5 -3.5q-58 21 -82 25q-25 2 -76 2q-39 0 -79 -6q-87 -14 -150 -47q-148 -74 -225 -213q-84 -150 -74 -330t113 -317q105 -135 276 -181q88 -21 180 -18q48 5 117 33zM614 752q20 0 20 -20.5t-20 -20.5q-56 -4 -90 -31q-39 -36 -51 -82q-13 -60 -2 -111q11 -54 43 -77
q28 -24 68.5 -31.5t74.5 2.5q45 13 64 35q27 34 35 67q23 88 -21 160q-41 65 -121 68q-19 0 -19 20.5t19 20.5q41 -3 76 -17q43 -21 58 -41q52 -61 55 -143q6 -86 -43 -150q-41 -58 -131 -65q-91 -7 -150 49q-55 52 -55 147t51 154q51 63 139 66zM319 1597q-6 4 -14.5 2
t-11.5 -8q-10 -16 6 -28q31 -23 95 -69t95 -69q72 -51 267 -190q19 -11 28 -8q14 2 66 16q36 8 143 35q12 1 15.5 13.5t-4.5 19.5q-116 103 -220 192q-22 20 -67 60.5t-68 60.5q-7 6 -20.5 17.5t-20.5 17.5q-18 18 -30 14q-46 -13 -137.5 -37.5t-137.5 -36.5
q-12 -3 -14 -13.5t5.5 -19t20.5 -5.5h2q45 12 136.5 36t136.5 37q-3 1 -10 2t-11 2q39 -32 107.5 -93t91.5 -81q35 -31 103.5 -91t103.5 -91q1 6 4 17.5t4 17.5q-132 -33 -213 -51q6 -2 16 -2q-1 0 -2 1t-2 1q-41 29 -122.5 89t-122.5 89q-74 51 -218 153z" />
    <glyph glyph-name="aacute" unicode="&#xe1;" horiz-adv-x="1218" 
d="M979 1616q6 5 15 2t12 -10q9 -15 -7 -27q-40 -30 -190 -137q-53 -37 -150 -107t-116 -84q-19 -11 -29 -8q-11 2 -32 7.5t-33 7.5q-79 20 -144 34q-12 3 -15.5 15.5t5.5 19.5q162 144 219 193q23 20 68 60t67 60q1 1 41 35q17 17 31 15q258 -70 272 -74q13 -3 15.5 -14.5
t-5 -20t-20.5 -4.5h-2q-45 12 -136 37t-136 37q4 0 20 4q-39 -32 -107.5 -93t-91.5 -81q-35 -31 -103 -92t-103 -91q-1 6 -4.5 17.5t-4.5 17.5q105 -27 213 -51q-6 -2 -16 -2q2 0 4 2q205 147 246 176q25 18 100.5 72.5t116.5 83.5zM729 55q7 3 15 -1.5t10 -12.5
q6 -19 -15 -27l-75 -24q-31 -8 -97 -8q-199 3 -340 112q-140 107 -194 277q-56 159 -19 338.5t158 298.5q116 119 281 155q87 16 165 13q39 -3 68 -11q31 -7 53 -18q-12 -9 -24 -21v78q0 21 20 21h125q100 2 299 2q9 0 15 -6.5t6 -14.5v-28v-263v-395v-360v-158q0 -8 -6 -14
t-15 -6h-125h-299q-9 0 -14.5 6t-5.5 14v33q0 20 20.5 20t20.5 -20v-33q-4 3 -7.5 6.5t-7.5 8t-6 6.5h125h299q-1 -1 -8 -9t-12 -12v29v262v395v361v157q4 -3 7.5 -6.5t7 -7.5t5.5 -6h-125q-50 0 -150 -1t-149 -1q7 10 21 20v-78q0 -8 -9.5 -15t-17.5 -3q-58 21 -82 25
q-25 2 -76 2q-32 0 -79 -7q-87 -14 -150 -47q-148 -74 -225 -213q-84 -150 -74 -330t113 -317q104 -134 276 -180q88 -21 180 -18q51 5 117 32zM614 774q20 0 20 -20.5t-20 -20.5q-56 -4 -90 -31q-39 -36 -51 -81q-13 -60 -2 -111q11 -55 43 -78q28 -24 68.5 -31.5t74.5 2.5
q45 13 64 35q27 33 35 68q23 88 -21 160q-40 64 -121 67q-19 0 -19 20.5t19 20.5q44 -3 76 -16q43 -21 58 -41q52 -61 55 -144q6 -85 -43 -149q-42 -59 -131 -66q-90 -7 -150 50q-51 49 -55 147q0 95 51 154q50 62 139 65z" />
    <glyph glyph-name="acircumflex" unicode="&#xe2;" horiz-adv-x="1218" 
d="M729 53q7 3 15 -1.5t10 -12.5q6 -19 -15 -27l-75 -24q-31 -8 -97 -8q-199 3 -340 112q-140 107 -194 277q-56 159 -19 338.5t158 298.5q116 119 281 155q87 16 165 13q39 -3 68 -11q31 -7 53 -18q-4 -3 -12 -9.5t-12 -9.5v76q0 21 20 21h125q100 2 299 2q9 0 15 -6.5
t6 -14.5v-28v-263v-395v-360v-158q0 -8 -6 -14t-15 -6h-125h-299q-9 0 -14.5 6t-5.5 14v33q0 20 20.5 20t20.5 -20v-33q-4 3 -21 20h125h299l-20 -20v29v262v395v361v157l20 -20h-125q-50 0 -149.5 -1t-149.5 -1q7 10 21 20v-76q0 -9 -9 -16.5t-18 -3.5q-53 20 -82 24
q-38 3 -76 3q-32 0 -79 -7q-87 -14 -150 -47q-148 -74 -225 -213q-84 -150 -74 -330t113 -317q104 -134 276 -180q92 -22 180 -19q48 5 117 33zM614 772q20 0 20 -20.5t-20 -20.5q-56 -4 -90 -31q-39 -36 -51 -82q-13 -60 -2 -110q11 -55 43 -78q28 -24 68.5 -31.5t74.5 2.5
q45 13 64 35q27 33 35 68q23 88 -21 160q-40 64 -121 67q-19 0 -19 20.5t19 20.5q47 -3 76 -16q42 -21 60 -41q50 -62 53 -144q6 -85 -43 -149q-42 -59 -131 -66q-90 -7 -150 50q-51 49 -55 147q0 95 51 154q50 62 139 65zM729 1354q12 -15 -2.5 -29.5t-28.5 -1.5
q-24 29 -72.5 83.5t-52.5 59.5h29q-25 -29 -67 -75q-7 -8 -21.5 -25t-21.5 -25q-18 -24 -29 -24h-277q-13 0 -18 13.5t4 23.5q66 68 203 213q32 32 98 102l6 6q6 6 25 6h86h82q14 0 22 -6q4 -4 6 -8q17 -16 103 -102q30 -32 64.5 -67.5t76 -78t64.5 -65.5q9 -10 3.5 -23.5
t-18.5 -13.5h-278q-20 0 -20 20.5t20 20.5h278q-1 -3 -4 -10t-5.5 -13.5t-4.5 -11.5q-18 19 -54.5 56.5t-54.5 56.5q-35 35 -103 105.5t-103 105.5l14 -7h-184q3 1 8 3.5t8 3.5q-17 -16 -104 -109q-34 -36 -102.5 -107.5t-102.5 -107.5q-2 7 -8 19.5t-7 15.5h277
q-12 -4 -14 -4q103 117 124 141q5 6 14.5 6t14.5 -6q21 -24 63 -71t64 -70z" />
    <glyph glyph-name="atilde" unicode="&#xe3;" 
 />
    <glyph glyph-name="adieresis" unicode="&#xe4;" 
d="M735 45q7 3 15 -1.5t10 -12.5q6 -18 -15 -25q-66 -26 -79 -29q-35 -6 -109 -6q-197 10 -340 123q-136 109 -188 283q-31 113 -27 225.5t50 221.5t126 188q115 115 281 151q85 16 166 13q37 -3 67 -11q12 -3 53 -18q-4 -3 -12 -10.5t-12 -10.5v78q0 21 20 21q86 0 129 2
h299q9 0 15 -6.5t6 -14.5v-35v-268v-395v-358v-158q0 -8 -6 -14.5t-15 -6.5h-129h-299q-9 0 -14.5 6.5t-5.5 14.5v33q0 20 20.5 20t20.5 -20v-33q-4 3 -21 20h129h299l-20 -20v35v268v395v361v155l20 -20h-129q-49 0 -149 -1t-150 -1q7 10 21 20v-78q0 -9 -9 -15.5t-18 -2.5
q-59 23 -94 25q-171 13 -307 -58q-142 -74 -221 -217q-82 -150 -70.5 -330.5t115.5 -316.5q107 -137 282 -180q83 -23 181 -17q32 2 114 31zM621 770q20 0 20 -20.5t-20 -20.5q-56 0 -95 -33q-37 -34 -49 -84q-15 -54 -2 -110q16 -59 45 -80q71 -48 148 -23q42 11 61 35
q27 33 35 68q20 90 -23 160q-39 67 -120 67q-20 0 -20 20.5t20 20.5q39 0 77 -18q37 -15 58 -39q52 -64 55 -150q3 -84 -43 -145q-23 -30 -59 -47t-74 -19q-96 -7 -152 49q-55 52 -55 148q0 97 51 156q53 65 142 65zM500 1331q20 0 20 -20.5t-20 -20.5h-27h-305
q-8 0 -14.5 6t-6.5 15v28v303q0 8 6.5 14.5t14.5 6.5h29h303q9 0 14.5 -6.5t5.5 -14.5v-28v-303q0 -20 -20.5 -20t-20.5 20v28v303q4 -3 21 -20h-27h-305l20 20v-28v-303l-20 20h29h303zM1004 1331q20 0 20 -20.5t-20 -20.5h-29h-303q-8 0 -14.5 7t-6.5 14v28v303
q0 8 6.5 14.5t14.5 6.5h28h304q9 0 14.5 -6.5t5.5 -14.5v-28v-303q0 -20 -20.5 -20t-20.5 20v28v303q4 -3 21 -20h-29h-303l20 20v-28v-303l-20 20h28h304z" />
    <glyph glyph-name="aring" unicode="&#xe5;" 
 />
    <glyph glyph-name="ae" unicode="&#xe6;" 
 />
    <glyph glyph-name="ccedilla" unicode="&#xe7;" horiz-adv-x="1077" 
d="M811 686q7 10 17 10t17 -9.5t1 -20.5q-4 -7 -12.5 -22.5t-12.5 -22.5q-18 -31 -26 -41q-31 -34 -64 -50q-41 -18 -84 -24q-79 -11 -131 20q-74 45 -100.5 135.5t6.5 169.5q22 49 47 72q33 33 74 47q76 29 162 -10q32 -13 79 -51l25 -25q14 -19 47 -57h-29q23 29 52 61
q84 104 194 234q-1 -4 -2 -12.5t-2 -12.5q-4 6 -12.5 17.5t-12.5 17.5q-4 4 -6 8q-2 3 -2 1.5t2 -3.5q-5 6 -16 18.5t-16 18.5q-74 74 -144 115q-129 70 -297 57q-172 -12 -315 -110q-74 -54 -119 -113q-52 -66 -80 -150q-57 -161 -28 -348q23 -158 110 -266
q98 -124 268 -172q21 -8 15 -27q-12 -38 -34.5 -114.5t-33.5 -114.5q-3 4 -10 12.5t-10 12.5h78q58 -5 73 -7q28 -4 43 -14q16 -13 6 -29q-6 -15 -45 -26q-44 -11 -94 -8l-141 6q9 11 20 20q-9 -82 -20 -223q-9 12 -17 20q78 -16 119 -18q114 -10 203 6q78 17 127 53
q65 49 86 115q23 78 -16 141q-44 68 -127 90q-8 3 -12 10.5t-3 14.5q8 26 10 33q6 16 21 16q164 3 297 105q54 39 94 102q6 10 17.5 31t17.5 31q1 -4 2 -12.5t2 -12.5q-34 34 -61 65q-33 36 -97.5 108t-97.5 108q-8 8 -4 19.5t14 14t19 -5.5q10 -11 30.5 -33t30.5 -34
q33 -36 97.5 -106.5t97.5 -106.5q10 -14 2 -25q-22 -41 -39 -70q-48 -68 -105 -108q-142 -108 -317 -111q2 1 8.5 7t11.5 8q-7 -17 -10 -33q-6 8 -14 24q60 -18 105.5 -56.5t64.5 -94.5q17 -53 6 -107.5t-45 -97.5q-45 -61 -115 -92q-61 -29 -153 -39q-94 -6 -183 6
q-17 2 -94 17q-6 0 -10.5 6t-3.5 12q11 141 20 223q0 8 6.5 15t14.5 6q15 -1 42.5 -2.5t50 -2.5t42.5 -1q39 -3 84 4q2 1 6 2t6 2l8 3l-2 -1q1 0 3.5 1t3.5 1l2 2q3 3 0 0q1 -2 4 -12.5t4 -16.5q-10 8 -35 12h-4h-6q-6 3 -15 3q-7 0 -22 1t-23 1h-69q-9 0 -15.5 8.5
t-3.5 17.5q13 44 37 126.5t31 105.5q7 -18 14 -27q-125 40 -215 113q-75 58 -129 155q-67 129 -74 305q-3 203 76 355q82 149 240 233q160 85 329 82q94 -3 164 -22q74 -22 136 -66q66 -44 135 -117q4 -5 53 -67q8 -13 -4 -25q-8 -10 -25.5 -30.5t-25.5 -30.5
q-33 -39 -97.5 -117t-97.5 -117q-4 -6 -14.5 -6t-14.5 6q-5 6 -15 17.5t-15 17.5q-26 35 -62 64q-79 57 -155 43q-79 -18 -117 -99q-33 -71 -6 -157q13 -38 39 -69t61 -42q23 -10 47 -10q46 0 84 14q40 12 66 41l12 12q1 1 3 5q0 -1 -1 -3q4 4 4 9z" />
    <glyph glyph-name="egrave" unicode="&#xe8;" horiz-adv-x="1196" 
d="M799 756q3 -7 -2 -15.5t-13 -11.5q-19 -3 -26 14q-7 23 -23 43q-17 21 -35 31q-44 21 -94 21q-53 -2 -100 -28t-66 -71q-3 5 -9 15.5t-9 15.5h49h307q20 0 20 -20.5t-20 -20.5h-49h-307q-12 0 -18 10t-1 21q23 55 86 86q61 33 121 33q70 0 117 -31q47 -27 72 -92z
M397 438q-9 17 9 27.5t28 -6.5q34 -57 103 -84q60 -20 135 -13q65 10 112 41q11 7 22.5 17t24.5 23t21 20q2 -6 7 -17.5t7 -17.5h-155h-295q-20 0 -20 20.5t20 20.5h155h295q13 0 18.5 -13t-3.5 -22q-54 -54 -80 -69q-63 -37 -135 -43q-82 -9 -154 20q-75 29 -115 96z
M623 25q20 0 20 -20.5t-20 -20.5q-101 0 -179 22q-155 38 -270 150q-108 103 -151 254q-42 163 -11 325q29 159 127 269q104 122 267 178q148 53 329 20q165 -32 287 -139q113 -98 156 -250q18 -79 18 -213v-151q0 -8 -6.5 -14.5t-13.5 -6.5h-281q2 6 7 17.5t7 17.5
q2 -2 5.5 -5t5.5 -5q34 -37 101 -110t101 -110q14 -14 0 -28q-107 -107 -202 -152q-135 -69 -297 -69q-20 0 -20 20.5t20 20.5q151 0 282 67q71 36 125 82q23 18 64 59v-28q-2 2 -5.5 5t-5.5 5q-34 37 -101 109.5t-101 109.5q-9 9 -4 22t18 13h281q-3 -3 -10.5 -10
t-10.5 -10v8v172q0 141 -37 229q-55 141 -191 225.5t-294 90.5q-171 6 -307 -72q-145 -79 -217 -211q-68 -125 -68 -295q0 -169 70 -293q72 -132 206 -205q135 -73 306 -73zM369 1622q-6 4 -15 1t-12 -9q-9 -14 6 -29q32 -23 95.5 -68t95.5 -67q147 -108 266 -193
q17 -10 29 -8q8 2 21 6t23.5 6.5t20.5 4.5q24 6 72.5 17t72.5 17q11 3 14.5 15t-5.5 20q-37 31 -109.5 96.5t-109.5 96.5q-23 19 -68.5 59t-67.5 60q-7 6 -20.5 18t-20.5 18q-17 17 -30 13q-45 -13 -136.5 -36.5t-136.5 -35.5q-20 -6 -14.5 -26t25.5 -15q0 2 2 2
q160 41 272 72q-9 3 -21 6q72 -63 199 -176q35 -29 103.5 -89.5t103.5 -90.5q1 5 4 16t4 16q-105 -24 -213 -51q11 0 17 -2q-1 1 -2.5 2t-2.5 2q-11 8 -245 176q-42 29 -116 83t-101 73z" />
    <glyph glyph-name="eacute" unicode="&#xe9;" horiz-adv-x="1196" 
d="M799 748q3 -7 -2 -15.5t-13 -11.5q-19 -3 -26 14q-7 23 -23 43q-17 21 -35 31q-41 20 -94 20q-53 -2 -100 -27.5t-66 -70.5q-3 5 -9 15.5t-9 15.5h49h307q20 0 20 -20.5t-20 -20.5h-49h-307q-12 0 -18 10t-1 21q26 57 86 86q59 32 121 32q71 0 117 -30q47 -27 72 -92z
M397 430q-9 17 9 27.5t28 -6.5q34 -57 103 -84q60 -20 135 -13q65 10 112 41q22 14 68 60q2 -6 7 -17.5t7 -17.5h-155h-295q-20 0 -20 20.5t20 20.5h155h295q13 0 18.5 -13t-3.5 -22q-56 -56 -80 -70q-63 -37 -135 -43q-80 -9 -154 21q-75 29 -115 96zM623 16q20 0 20 -20.5
t-20 -20.5q-97 0 -179 23q-156 38 -270 149q-108 103 -151 254q-42 164 -11 326q28 158 127 268q105 124 267 179q148 53 329 20q165 -32 287 -139q113 -98 156 -250q18 -79 18 -213v-152q0 -8 -6 -14t-14 -6h-281q2 6 7 17.5t7 17.5l11 -11q34 -37 101 -109.5t101 -109.5
q14 -14 0 -28q-107 -107 -202 -152q-137 -70 -297 -70q-20 0 -20 20.5t20 20.5q149 0 282 68q71 36 125 82q23 18 64 59v-28q-2 2 -5.5 5t-5.5 5q-34 37 -101 109.5t-101 109.5q-9 9 -4 22t18 13h281l-21 -21v9v172q0 141 -37 229q-55 141 -191 225t-294 90q-173 6 -307 -71
q-145 -79 -217 -211q-68 -125 -68 -295q0 -169 70 -293q72 -132 206 -205q136 -74 306 -74zM987 1610q6 4 15 1t12 -9q9 -14 -6 -29q-173 -124 -191 -137q-53 -37 -150 -107t-116 -84q-17 -10 -29 -8q-12 3 -33 8t-32 8q-24 6 -72 17.5t-72 17.5q-12 3 -15.5 15.5t5.5 19.5
q57 49 219 193q22 19 67 59t68 59q7 6 20.5 18.5t20.5 18.5q16 16 31 12q46 -13 137.5 -36t137.5 -35q19 -6 13 -25.5t-26 -15.5l-2 2q-160 41 -272 72q12 4 20 6q-38 -33 -198 -176q-35 -29 -103.5 -90.5t-103.5 -90.5q-1 5 -4 16.5t-4 16.5q105 -24 213 -51q-11 0 -17 -2
q2 2 4 2q41 29 123 88.5t123 89.5q80 55 217 156z" />
    <glyph glyph-name="ecircumflex" unicode="&#xea;" horiz-adv-x="1155" 
d="M770 745q3 -7 -1.5 -14.5t-12.5 -9.5q-19 -4 -23 14q-13 30 -22 39q-13 19 -35 31q-39 20 -90 20q-50 -2 -96.5 -27t-65.5 -67q-7 14 -16 29h47h297q19 0 19 -19.5t-19 -19.5h-47h-297q-12 0 -17 10t0 19q20 52 82 84q52 30 117 30q64 0 110 -28q50 -28 70 -91zM385 440
q-7 9 -0.5 18.5t16.5 10t17 -9.5q36 -58 100 -80q57 -19 131 -12q61 10 109 39q22 14 65 57q2 -5 6.5 -16.5t6.5 -16.5h-148h-287q-19 0 -19 19.5t19 19.5h150h285q13 0 18 -12t-4 -21q-52 -52 -78 -67q-59 -35 -129 -41q-84 -10 -147 18q-73 29 -111 94zM602 41
q12 0 17 -10t0 -20t-17 -9q-88 0 -174 21q-150 38 -260 145q-106 100 -145 246q-40 148 -11 313q25 148 121 258q109 122 258 172q153 53 318 21q158 -31 278 -136q112 -98 150 -241q18 -76 18 -205v-145q0 -9 -6 -15t-14 -6h-271q10 24 15 33q6 -6 8 -10q93 -99 196 -211
q6 -6 6 -14.5t-6 -12.5q-93 -97 -194 -147q-138 -66 -287 -66q-13 -1 -18 9t0 20t18 10q149 0 272 63q65 35 119 80q18 14 62 58v-27q-6 6 -8 10q-129 137 -197 211q-9 9 -4 21t18 12h271q-9 -9 -21 -18v6v168q0 134 -35 221q-36 91 -111 159.5t-167 104t-191 39.5
q-162 6 -297 -70q-139 -78 -207 -202q-67 -118 -67 -285q3 -167 67 -283q71 -123 201 -198q129 -70 295 -70zM717 1321q8 -9 4 -19.5t-13.5 -13t-19.5 5.5q-21 25 -62.5 71.5t-58.5 66.5h29q-12 -12 -33.5 -36.5t-32.5 -37.5q-7 -8 -20.5 -23.5t-20.5 -23.5q-2 -2 -7.5 -9
t-10.5 -10.5t-10 -3.5h-266q-13 0 -18.5 12t3.5 21q33 35 98.5 103.5t98.5 103.5q15 17 47 49.5t47 48.5l6 6q5 6 25 6h82h78q16 0 22 -6l6 -6q33 -35 98 -100q198 -204 199 -205q9 -9 3.5 -21t-17.5 -12h-271q-19 0 -19 19.5t19 19.5h271q-2 -5 -7.5 -16.5t-7.5 -16.5
q-18 17 -52.5 53t-51.5 54q-1 1 -199 205q12 -6 15 -7h-178l14 7q-17 -17 -50.5 -52.5t-49.5 -52.5q-133 -141 -197 -207q-2 4 -14 33h266q-9 -3 -15 -6q86 99 121 137q5 6 14 6t15 -6q35 -38 121 -137z" />
    <glyph glyph-name="edieresis" unicode="&#xeb;" horiz-adv-x="1179" 
d="M786 760q3 -7 -1.5 -15t-12.5 -10q-16 -6 -24 15q-6 20 -23 41q-16 19 -35 30q-44 21 -92 21q-51 -2 -98 -28t-66 -71q-3 5 -9 15.5t-9 15.5h49h303q19 0 19 -19.5t-19 -19.5h-49h-303q-12 0 -17 10t0 19q23 56 84 86q58 33 119 33q68 -3 113 -31q46 -26 71 -92zM393 449
q-7 11 -0.5 20.5t17 9.5t18.5 -10q35 -59 102 -84q58 -20 132 -10q55 6 110 39q34 20 68 59q2 -5 4.5 -11.5t5.5 -13.5t4 -10h-152h-292q-13 0 -18 10t0 19.5t18 9.5h153h291q13 0 18 -12t-4 -21q-53 -53 -80 -67q-60 -37 -133 -43q-84 -10 -149 18q-77 33 -113 97zM614 41
q19 0 19 -20.5t-19 -20.5q-95 0 -176 20q-154 41 -266 150q-106 100 -149 250q-41 160 -11 321q30 158 125 265q106 122 262 176q150 50 326 18q162 -28 283 -137q112 -95 151 -246q21 -82 21 -209v-149q0 -9 -6.5 -15t-14.5 -6h-2h-274l14 35q2 -4 10 -12
q33 -36 99.5 -107.5t99.5 -107.5q14 -14 0 -29q-96 -96 -199 -149q-139 -68 -293 -68q-20 0 -20 20.5t20 20.5q155 0 279 65q68 37 123 80q10 9 61 60v-29q-2 4 -8 10q-33 36 -100 108t-101 109q-9 9 -3.5 21t18.5 12h276q-8 -6 -20 -18v8v170q0 138 -35 225
q-55 140 -189.5 222t-291.5 87q-168 6 -304 -69q-143 -81 -210 -207q-68 -125 -68 -291q0 -167 68 -289q69 -127 204 -202q130 -72 301 -72zM508 1311q19 0 19 -20.5t-19 -20.5h-29h-299q-8 0 -14 6t-6 14v29v299q0 8 6 14t14 6h29h299q8 0 14 -6t6 -14v-29v-299
q0 -19 -20.5 -19t-20.5 19v29v299q2 -2 6 -6.5t7.5 -8t7.5 -6.5h-29h-299l21 21v-29v-299q-3 4 -6.5 7.5t-8 7.5t-6.5 6h29h299zM1004 1311q13 0 18 -9.5t0 -19.5t-18 -10h-29h-299q-8 0 -13.5 5.5t-5.5 12.5v29v299q0 8 6 14t13 6h29h299q8 0 14 -6t6 -14v-29v-299
q0 -19 -20.5 -19t-20.5 19v29v299l21 -21h-29h-299q5 4 12 12t8 9v-29v-299q-10 14 -20 21h29h299z" />
    <glyph glyph-name="igrave" unicode="&#xec;" horiz-adv-x="761" 
d="M684 23q20 0 20 -20.5t-20 -20.5h-166h-293q-9 0 -14.5 6t-5.5 14v23v249v394v362v160q0 8 5.5 14t14.5 6h164h295q8 0 14.5 -6.5t6.5 -13.5v-23v-249v-394v-362v-160q0 -20 -20.5 -20t-20.5 20v23v249v394v362v160q10 -14 20 -21h-166h-293q2 2 6.5 6t8 7.5t6.5 7.5v-23
v-249v-394v-362v-160l-21 21h164h295zM51 1616q-6 5 -14.5 2t-11.5 -10q-9 -14 6 -29q126 -90 192 -135q147 -105 264 -193q17 -10 29 -8q64 17 66 17q24 6 72.5 17t72.5 17q11 3 14 15t-6 20q-37 32 -109.5 96.5t-109.5 96.5q-23 19 -68 59t-67 59q-13 13 -41 37
q-17 17 -31 13q-160 -41 -272 -72q-20 -6 -15 -26t25 -15q0 2 2 2q45 12 136.5 35.5t136.5 36.5q-9 3 -21 6q72 -63 199 -176q35 -29 103.5 -90.5t103.5 -90.5q1 5 4 16.5t4 16.5q-105 -24 -213 -51q10 0 16 -2l-4 4q-41 28 -246 176q-36 26 -108.5 78t-108.5 78z" />
    <glyph glyph-name="iacute" unicode="&#xed;" horiz-adv-x="645" 
d="M549 12q20 0 20 -20.5t-20 -20.5h-166h-293q-7 0 -13.5 6.5t-6.5 14.5v22v250v393v363v160q0 8 6 14t14 6h164h295q7 0 13.5 -6t6.5 -14v-23v-250v-393v-362v-160q0 -20 -20.5 -20t-20.5 20v22v250v393v363v160q9 -12 21 -21h-166h-293q2 2 6.5 6t8 7.5t6.5 7.5v-23v-250
v-393v-362v-160q-3 3 -10.5 10t-10.5 10h164h295zM711 1606q6 4 14.5 1.5t11.5 -10.5q8 -14 -6 -28q-32 -23 -95 -68t-95 -67q-145 -102 -267 -193q-17 -10 -28 -8q-52 14 -66 16q-25 6 -72.5 17.5t-72.5 17.5q-11 3 -14 15t6 20q37 32 109.5 96.5t109.5 95.5q22 20 67 59.5
t68 59.5q7 6 20.5 18.5t20.5 18.5q16 16 31 12q205 -52 272 -71q20 -6 15 -26t-25 -15q0 2 -2 2q-45 12 -136.5 35.5t-136.5 35.5q2 1 6 2.5t7.5 2.5t7.5 2q-34 -30 -199 -177q-35 -30 -103.5 -90.5t-103.5 -89.5q-1 5 -4 16.5t-4 16.5q105 -24 213 -51q-10 0 -16 -2l4 4
q41 29 246 176q42 29 116 83t101 73z" />
    <glyph glyph-name="icircumflex" unicode="&#xee;" horiz-adv-x="516" 
d="M498 23q19 0 19 -21.5t-19 -21.5h-166h-293q-8 0 -14.5 6.5t-6.5 13.5v25v247v392v360v160q0 7 6.5 13.5t14.5 6.5h164h295q6 0 12 -6.5t6 -13.5v-21v-252v-389v-362v-160q0 -19 -19.5 -19t-19.5 19v25v247v392v360v160q13 -13 21 -19h-166h-293q12 9 22 19v-21v-252
v-389v-362v-160q-11 15 -22 23h164h295zM395 1343q8 -11 4.5 -22.5t-13 -13.5t-19.5 6q-37 42 -125 139h28q-9 -10 -67 -72q-42 -48 -43 -49q-19 -24 -31 -24h-274q-12 0 -17 12.5t4 23.5q131 139 201 211q90 95 98 105l6 6q8 6 27 6h84h82q16 0 22 -6q1 -2 7 -8
q25 -28 102 -105q23 -23 64 -66t75 -78t64 -65q9 -11 4.5 -23.5t-16.5 -12.5h-281q-19 0 -19 20.5t19 20.5h2h279q-15 -30 -17 -35q-12 12 -49.5 50.5t-56.5 59.5q-139 139 -207 211q4 -1 8 -4q3 -1 4 -2h-180q6 2 14 6q-12 -12 -47.5 -49t-56.5 -57q-29 -33 -63 -68.5
t-75.5 -79t-64.5 -67.5q-3 9 -16 35h274q-10 -5 -12 -5q11 12 125 142q4 5 14 5t14 -5q114 -130 125 -142z" />
    <glyph glyph-name="idieresis" unicode="&#xef;" horiz-adv-x="548" 
d="M504 23q19 0 19 -20.5t-19 -20.5h-164h-291q-9 0 -14.5 6t-5.5 14v23v247v390v358v158q0 8 5.5 14t14.5 6h162h293q8 0 14 -6t6 -14v-23v-248v-387v-360v-158q0 -20 -20.5 -20t-20.5 20v23v247v390v358v158q9 -12 21 -21h-164h-291l21 21v-23v-248v-387v-360v-158l-21 21
h162h293zM188 1296q13 0 18 -10t0 -19.5t-18 -9.5h-26h-301q-8 0 -14.5 5t-6.5 14v29v301q0 7 6.5 13.5t14.5 6.5h28h299q9 0 15 -6t6 -14v-29v-301q0 -19 -19.5 -19t-19.5 19v29v301q3 -4 9.5 -11t8.5 -10h-26h-301q17 17 20 21v-29v-301l-20 20h28h299zM688 1296
q13 0 18 -10t0 -19.5t-18 -9.5h-29h-299q-8 0 -14 5t-6 14v29v301q0 8 6 14t14 6h27h301q9 0 15 -6t6 -14v-29v-301q0 -19 -20.5 -19t-20.5 19v29v301q3 -3 10 -10.5t10 -10.5h-29h-299q3 3 9.5 10.5t9.5 10.5v-29v-301q-3 3 -9.5 10t-9.5 10h27h301z" />
    <glyph glyph-name="eth" unicode="&#xf0;" 
 />
    <glyph glyph-name="ntilde" unicode="&#xf1;" horiz-adv-x="1177" 
d="M272 1286q1 -13 -9 -18t-20.5 0t-11.5 18q-4 193 99 262q46 32 110 29q62 -2 162 -59q59 -33 78 -37q10 -4 29 -4h6q1 1 4 2t4 2l-2 -1q3 1 4 1q2 2 4 2q-1 -1 -1 0l5 4q-1 0 0 2l4 4q1 2 3 5t3 5q-1 -1 0 3v3q2 2 2 7q5 15 5 16q4 24 4 37q4 20 20 20h123q9 0 15 -6
t6 -14q4 -189 -91 -254q-48 -31 -102 -31q-73 -2 -174 53q-5 3 -30 17.5t-38 19.5q-12 5 -28 8h1h-3h-7h-6h-2q-3 1 -4 -2l-4 -2l-2 -2q-4 0 -4 -4q-6 -6 -12 -18q-12 -29 -15 -68q0 -20 -20 -20h-125q-20 0 -20 20.5t20 20.5h125q-2 -2 -6 -6.5t-7.5 -8t-7.5 -6.5
q9 106 60 131q13 6 28 6.5t27 -2.5t29 -10t26 -12.5t25 -14.5q101 -61 168 -59q54 0 90 27l4 4q1 0 2 1t2 1l8 8q1 2 4.5 5t4.5 5l2 2l2 4q10 16 22 48q17 55 17 139q3 -4 20 -21h-123q12 9 21 21q-5 -101 -52 -123q-49 -27 -137 22q-8 4 -35.5 20.5t-41 23.5t-36.5 15
t-42 9q-36 3 -58 -4q-26 -7 -43 -21q-14 -9 -33 -32q-19 -31 -26 -49q-19 -64 -19 -144zM709 -2q0 -20 -20.5 -20t-20.5 20v35v350v174v88q-4 39 -11 60q0 1 -1 3t-1 3q-1 1 -2 3t-2 3q0 1 -1 2t-1 2q1 -2 2 -3q-1 1 -2 1l-2 2q-23 14 -65 6q-35 -12 -50 -29q-1 -1 -3 -2
t-3 -2q0 -2 -2 -4q-1 -2 -6 -16q-8 -24 -8 -56v-24v-342v-254q0 -8 -7 -14.5t-14 -6.5h-153h-295q-7 0 -14 6.5t-7 14.5v22v250v394v362v160q0 7 6.5 13.5t14.5 6.5h154h294q8 0 14.5 -6.5t6.5 -13.5v-41q-25 19 -27 20q5 2 14.5 5.5t14.5 5.5q82 26 171.5 24t168.5 -33
q152 -57 231 -188q74 -123 74 -295v-74v-372v-240q0 -8 -6.5 -14.5t-13.5 -6.5h-154h-295q-20 0 -20 20.5t20 20.5h152h297q-4 -3 -21 -20v227v377v82q0 161 -65 270q-78 130 -222 179q-169 57 -333 -7q-10 -4 -18.5 2.5t-8.5 16.5v41q3 -3 10 -10.5t10 -10.5h-153h-295
q3 3 10 10.5t10 10.5v-23v-250v-393v-362v-160l-20 20h154h294l-20 -20v61v373v152q0 92 18 125q29 48 97 59q85 9 106 -39q19 -39 19 -133v-346v-252z" />
    <glyph glyph-name="ograve" unicode="&#xf2;" horiz-adv-x="1206" 
d="M248 1602q-6 4 -15 0.5t-12 -9.5q-8 -14 6 -28q142 -101 191 -138q27 -19 266 -190q17 -10 29 -8q11 3 32.5 8t32.5 8q24 6 72.5 17.5t73.5 17.5q11 3 14 15t-6 20q-82 70 -219 192q-23 19 -68 59t-67 60q-7 6 -20.5 18.5t-20.5 18.5q-16 16 -31 12q-55 -15 -273 -71
q-20 -6 -14.5 -26t25.5 -15l2 2q205 52 272 71q-12 4 -20 6q38 -33 198 -176q35 -29 103.5 -89.5t103.5 -90.5q1 5 4 16.5t4 16.5q-105 -24 -213 -51q11 0 17 -2q-2 2 -4 2q-41 29 -123 89t-123 89q-134 95 -217 156zM20 588q0 -19 -20 -19t-20 19q2 130 54 249.5t148 204.5
q105 96 244 136t279 14q135 -25 249.5 -107.5t180.5 -203.5q67 -126 72 -271t-54 -274q-57 -126 -164.5 -217t-240.5 -125q-138 -35 -279 -5.5t-254 117.5q-110 87 -171.5 214.5t-63.5 267.5q0 13 10 18t20 0t10 -18q3 -193 115 -344q82 -107 206 -168t259 -60
q135 2 257.5 65t201.5 173q80 113 101 250t-23 270q-43 126 -140 222t-223 137q-132 43 -270 21.5t-250 -103.5q-109 -82 -171 -204.5t-63 -258.5zM594 393q-20 0 -20 20.5t20 20.5q58 0 102.5 39t48.5 96q5 60 -28.5 108t-91.5 60q-65 12 -122 -28t-63 -105q-7 -73 39 -119
q45 -51 115 -51q19 0 19 -20.5t-19 -20.5q-33 0 -70 13q-72 27 -102 92q-35 66 -16 141q22 72 86 112t137 27q72 -14 118 -75t39 -134q-10 -77 -61 -125q-57 -51 -131 -51z" />
    <glyph glyph-name="oacute" unicode="&#xf3;" horiz-adv-x="1206" 
d="M20 592q0 -19 -20 -19t-20 19q2 131 54 250.5t148 204.5q105 96 243.5 135.5t279.5 13.5q135 -25 249.5 -107.5t180.5 -203.5q67 -126 72 -271t-54 -274q-57 -126 -164.5 -217t-240.5 -125q-138 -35 -279 -5t-254 118q-110 88 -171.5 214.5t-63.5 266.5q0 13 10 18t20 0
t10 -18q3 -193 115 -344q82 -107 206 -168t259 -60q135 2 257.5 65t201.5 173q80 113 101 250t-23 270q-43 126 -140 222t-223 137q-132 43 -270 21.5t-250 -103.5q-109 -82 -171 -204.5t-63 -258.5zM594 397q-20 0 -20 20.5t20 20.5q58 0 102.5 39t48.5 96q5 60 -28.5 108
t-91.5 60q-65 12 -122 -28t-63 -105q-7 -73 39 -119q45 -51 115 -51q19 0 19 -20.5t-19 -20.5q-33 0 -70 13q-72 27 -102 92q-35 66 -16 141q22 72 86 112t137 27q72 -14 118 -75t39 -134q-6 -72 -61 -124q-58 -52 -131 -52zM866 1610q6 4 15 1t14 -9q6 -15 -8 -29
q-173 -124 -191 -137q-53 -37 -150 -107t-116 -84q-17 -10 -29 -8q-54 14 -65 16q-24 6 -71.5 17.5t-71.5 17.5q-11 3 -14.5 15t3.5 20q37 31 109.5 96t109.5 97q23 20 68 59.5t68 58.5q7 6 20.5 18.5t20.5 18.5q16 16 30 12q46 -13 137.5 -36t137.5 -35q19 -6 13 -25.5
t-26 -15.5v2q-113 28 -274 72q3 1 10 3t10 3q-38 -33 -198 -176q-35 -29 -103.5 -90.5t-103.5 -90.5q-1 5 -4 16.5t-4 16.5q81 -18 213 -51q-11 0 -17 -2q2 2 4 2q222 160 248 178q82 58 215 156z" />
    <glyph glyph-name="ocircumflex" unicode="&#xf4;" horiz-adv-x="1206" 
d="M20 588q0 -19 -20 -19t-20 19q2 130 54 249.5t148 204.5q106 96 244.5 136t278.5 14q135 -25 249.5 -107.5t180.5 -203.5q67 -126 72 -271t-54 -274q-57 -126 -164.5 -217t-240.5 -125q-138 -35 -279 -5.5t-254 117.5q-110 87 -171.5 214.5t-63.5 267.5q0 13 10 18t20 0
t10 -18q3 -193 115 -344q82 -107 206 -168t259 -60q136 2 258.5 65t200.5 173q80 113 101 250t-23 270q-43 126 -140 222t-223 137q-132 43 -270 21.5t-250 -103.5q-109 -82 -171 -204.5t-63 -258.5zM594 393q-20 0 -20 20.5t20 20.5q58 0 102.5 39t48.5 96q5 60 -28.5 108
t-91.5 60q-65 12 -122 -28t-63 -105q-7 -73 39 -119q48 -51 115 -51q19 0 19 -20.5t-19 -20.5q-33 0 -70 13q-72 27 -102 92q-35 66 -16 141q22 72 86 112t137 27q72 -14 118 -75t39 -134q-6 -73 -61 -125q-57 -51 -131 -51zM731 1335q8 -9 3.5 -20.5t-14.5 -13.5t-20 6
q-20 24 -62.5 71t-62.5 70h29q-31 -33 -67 -76q-7 -8 -21.5 -23.5t-21.5 -23.5q-15 -25 -29 -25h-277q-13 0 -18 13t4 22q137 145 203 213q17 18 49.5 53t48.5 52l6 6q8 6 25 6h86h82q14 0 22 -6q2 -4 6 -8q18 -18 52 -53t51 -52q34 -35 102.5 -105.5t102.5 -105.5
q9 -9 3.5 -22t-18.5 -13h-278q-20 0 -20 20.5t20 20.5h278q-2 -6 -7 -17t-7 -17q-92 91 -109 110q-35 36 -103 106.5t-103 106.5q6 -2 14 -6h-184q3 1 8 3t8 3q-70 -74 -104 -108q-34 -36 -102.5 -107.5t-102.5 -107.5q-2 6 -7.5 17t-7.5 17h277q-6 -2 -14 -6
q121 139 124 142q5 6 14.5 6t14.5 -6q21 -24 63 -71.5t64 -70.5z" />
    <glyph glyph-name="otilde" unicode="&#xf5;" 
 />
    <glyph glyph-name="odieresis" unicode="&#xf6;" horiz-adv-x="1206" 
d="M20 596q-1 -13 -11.5 -18t-20 0t-8.5 18q3 129 59 247t154 201q107 94 247 130.5t279 7.5q135 -28 247 -114t173 -210q65 -128 67 -272.5t-61 -272.5q-60 -124 -170 -212t-244 -119q-140 -31 -280.5 2.5t-249.5 124.5q-107 89 -165.5 218t-55.5 269q0 13 10 18t20 0
t10 -18q-6 -192 105 -346q78 -111 200 -176t257 -66q136 -2 260 57t205 166q84 110 109 248.5t-15 270.5q-40 128 -134.5 227t-220.5 143q-130 46 -268.5 28t-251.5 -97q-112 -76 -177.5 -197.5t-68.5 -257.5zM588 385q-20 0 -20 20.5t20 20.5q57 -2 103 36t52 95
q7 64 -26 111q-30 46 -90 59q-70 16 -123 -22q-58 -41 -64 -105q-10 -70 35 -121q44 -50 113 -53q12 -1 17 -11.5t0 -20.5t-17 -9q-38 0 -70 14q-68 28 -101.5 97t-10.5 139q23 73 88.5 111.5t138.5 21.5q71 -15 115.5 -76.5t35.5 -134.5q-10 -76 -65 -125q-60 -50 -131 -47
zM518 1311q20 0 20 -20.5t-20 -20.5h-26h-306q-8 0 -14 5.5t-6 14.5v29v303q0 8 6 14t14 6h29h303q9 0 15 -6t6 -14v-29v-303q0 -20 -20.5 -20t-20.5 20v29v303l20 -20h-26h-306q4 3 21 20v-29v-303q-2 2 -6 6.5t-7.5 8t-7.5 6.5h29h303zM1022 1311q20 0 20 -20.5t-20 -20.5
h-29h-303q-8 0 -14 6t-6 14v29v303q0 8 6 14t14 6h29h303q9 0 14.5 -6t5.5 -14v-29v-303q0 -20 -20.5 -20t-20.5 20v29v303q4 -3 21 -20h-29h-303q4 3 21 20v-29v-303q-2 2 -6 6.5t-7.5 8t-7.5 6.5h29h303z" />
    <glyph glyph-name="divide" unicode="&#xf7;" horiz-adv-x="1452" 
d="M1391 756q20 0 20 -20.5t-20 -20.5h-54h-286h-400h-354h-154q-7 0 -13.5 6.5t-6.5 13.5v45v305q0 9 6 15t14 6h54h286h400h354h154q8 0 14 -6t6 -15v-45v-305q0 -20 -20.5 -20t-20.5 20v45v305q1 -1 9 -8t12 -12h-54h-286h-400h-354h-154q4 4 11 10.5t10 9.5v-45v-305
q-2 2 -6 6.5t-7.5 8t-7.5 6.5h54h286h400h354h154zM559 1413q0 -20 -20.5 -20t-20.5 20q0 85 56.5 152.5t140.5 79.5q73 11 140 -20t103 -95q35 -64 28 -138.5t-54 -131.5q-48 -55 -120 -74t-140 8q-69 26 -111.5 86t-42.5 133q0 20 20.5 20t20.5 -20q0 -93 76 -153
q52 -40 121.5 -39t120.5 43t66 108.5t-15 126.5q-31 61 -92.5 90.5t-126.5 12.5q-66 -15 -108 -68t-42 -121zM557 422q0 -20 -20.5 -20t-20.5 20q0 85 56 152t139 79q74 12 141 -19t102 -95q37 -65 30 -139.5t-54 -131.5q-47 -54 -119.5 -72.5t-140.5 7.5q-69 26 -111.5 86
t-42.5 133q0 20 20.5 20t20.5 -20q0 -44 20.5 -85t55.5 -69q52 -40 121 -39t118 43q53 43 68.5 109.5t-14.5 126.5q-31 60 -92 89.5t-127 14.5q-66 -17 -108 -70t-42 -120z" />
    <glyph glyph-name="oslash" unicode="&#xf8;" 
 />
    <glyph glyph-name="ugrave" unicode="&#xf9;" horiz-adv-x="1212" 
d="M332 1616q-6 4 -15 1t-12 -9q-10 -17 6 -29q173 -124 191 -137q53 -37 150 -107t116 -84q17 -10 29 -8q11 3 32.5 8.5t32.5 8.5q24 6 73 17t73 17q11 3 14 15t-6 20q-57 49 -219 193q-23 19 -68 59t-67 59q-26 22 -41 64q-18 18 -31 14q-42 -25 -93.5 -45t-85.5 -30
t-94 -25q-20 -6 -14.5 -26t25.5 -15h2q45 13 136 37t136 37q-12 4 -20 6q38 -33 198 -176q40 -33 110.5 -97t96.5 -86q1 7 4 19l4 16q-32 -7 -103 -24.5t-110 -26.5q3 0 8.5 -1t8.5 -1q-2 2 -4 2q-41 29 -123 89t-123 89q-134 95 -217 156zM524 -8q20 0 20 -20.5t-20 -20.5
q-167 0 -291 82q-122 81 -176 219q-39 100 -39 233v101v383v231q0 9 6.5 15t14.5 6h121h301q20 0 20 -21v-156v-382v-111q0 -51 6 -76q8 -40 21 -57h2q0 -2 2 -2q0 -4 4 -4q0 -2 2 -2q6 -6 8 -7t4.5 -2t4.5 -2q2 0 14 -4q10 -2 33 -2q44 0 73 15q38 19 56 45q13 23 20 59
q2 25 2 84v356v248q0 9 6 15t15 6h118h302q20 0 20 -21v-35v-268v-395v-359v-157q0 -8 -5.5 -14.5t-14.5 -6.5h-119h-301q-9 0 -15 6.5t-6 14.5v43q5 -3 15.5 -9.5t15.5 -9.5q-112 -59 -240 -59q-20 0 -20 20.5t20 20.5q118 0 219 55q9 5 20 -0.5t11 -17.5v-43l-20 20h118
h302q-3 -3 -10 -9.5t-11 -10.5v34v269v397v358v156q14 -10 21 -20h-119h-301q9 11 20 20v-201v-372v-74q0 -68 -24 -115q-20 -34 -55.5 -56.5t-73.5 -27.5q-87 -12 -132 25q-35 30 -43 96q-6 41 -6 119v360v246q1 -1 9 -8t12 -12h-121h-301l20 20v-194v-388q0 -12 -0.5 -59
t0 -66.5t2.5 -56.5t6.5 -66t12.5 -57q44 -149 153 -231q123 -90 291 -90z" />
    <glyph glyph-name="uacute" unicode="&#xfa;" horiz-adv-x="1214" 
d="M524 -12q20 0 20 -20.5t-20 -20.5q-167 0 -291 82q-122 81 -176 219q-39 100 -39 233v101v383v231q0 9 6.5 15t14.5 6h121h301q20 0 20 -21v-156v-383v-110q0 -51 6 -76q8 -40 21 -57h2q0 -2 2 -2q0 -4 4 -4q0 -2 2 -2q6 -6 8 -7t4.5 -2t4.5 -2q2 0 14 -4q10 -2 33 -2
q46 0 73 14q37 18 56 46q13 23 20 59q2 25 2 84v356v248q0 9 6 15t15 6h118h304q8 0 14 -6t6 -15v-35v-268v-395v-359v-157q0 -8 -6.5 -14.5t-13.5 -6.5h-121h-301q-9 0 -15 6.5t-6 14.5v43q5 -3 15.5 -9.5t15.5 -9.5q-112 -59 -240 -59q-20 0 -20 20.5t20 20.5
q118 0 219 55q9 5 20 -0.5t11 -17.5v-43l-20 20h118h304q-14 -10 -21 -20v34v269v397v358v156q3 -3 10 -9.5t11 -10.5h-121h-301q9 11 20 20v-201v-372v-74q0 -68 -24 -115q-20 -34 -55.5 -56.5t-73.5 -27.5q-87 -12 -132 25q-35 30 -43 96q-6 41 -6 119v360v246
q14 -10 21 -20h-121h-301l20 20v-195v-387q0 -12 -0.5 -59t0 -66.5t2.5 -56.5t6.5 -66t12.5 -57q44 -149 153 -231q123 -90 291 -90zM991 1616q6 4 15 1t14 -9q8 -13 -8 -29q-173 -124 -191 -137q-44 -31 -133 -95t-133 -96q-14 -11 -29 -8q-1 0 -65 17q-24 6 -72 17t-72 17
q-11 3 -14 15.5t4 19.5q57 49 219 193q22 19 68 58.5t68 59.5q7 6 20 18.5t20 18.5q17 17 31 13q46 -12 137.5 -36t137.5 -36q19 -6 13 -25.5t-26 -15.5v2q-113 28 -274 72q3 1 10 3t10 3q-33 -30 -99 -88t-99 -88q-35 -29 -103.5 -90t-103.5 -91q-1 5 -4 16.5t-4 16.5
q81 -18 213 -51q-11 0 -17 -2q2 2 4 2q222 160 248 178q82 58 215 156z" />
    <glyph glyph-name="ucircumflex" unicode="&#xfb;" horiz-adv-x="1169" 
d="M504 25q13 0 18 -9.5t0 -19.5t-18 -10q-163 0 -281 80q-121 79 -168 213q-37 89 -37 225v98v369v223q0 8 6 14t13 6h115h290q9 0 15 -6t6 -14v-152v-370v-105q0 -50 6 -75q9 -39 20 -54v-2q3 0 3 -2l4 -4q2 0 2 -2l8 -4l8 -4q2 -1 6 -2t6 -2q12 -2 35 -2q40 -3 70 12
q37 19 53 45q15 27 21 57q2 13 2 82v346v238q0 8 5.5 14t14.5 6h115h291q7 0 12.5 -6t5.5 -14v-35v-258v-383v-346v-152q0 -8 -5.5 -14t-12.5 -6h-115h-291q-9 0 -14.5 6t-5.5 14v41q20 -12 30 -16q-109 -59 -233 -59q-19 0 -19 19.5t19 19.5q119 3 213 53q9 6 18.5 0.5
t9.5 -17.5v-41q-9 9 -18 21h115h291l-21 -21v33v260v381v348v152q17 -17 21 -20h-115h-291q3 3 9 10t9 10v-195v-360v-72q0 -68 -22 -108q-18 -33 -52.5 -55.5t-72.5 -28.5q-88 -8 -127 24q-35 30 -43 95q-4 26 -4 114v348v238q3 -3 9 -10t9 -10h-114h-291l20 20v-188v-373
q0 -11 -0.5 -57t0 -65t2.5 -55t6.5 -64.5t12.5 -55.5q38 -144 147 -223q114 -85 279 -88zM711 1337q8 -9 3.5 -19.5t-14 -12.5t-18.5 6q-18 19 -38.5 41.5t-45.5 50.5t-39 43h29q-11 -12 -32.5 -36.5t-33.5 -37.5q-6 -6 -13 -14t-15 -18t-13 -15l-7.5 -7.5t-11 -9
t-11.5 -3.5h-265q-13 0 -18 11.5t4 20.5q64 66 197 207q19 19 51.5 55t42.5 46l6 6q6 6 25 6h81h80q15 0 21 -6q1 -1 4 -4.5t4 -4.5q34 -34 96 -100q29 -31 62.5 -65.5t74 -75.5t62.5 -64q9 -9 4 -20.5t-18 -11.5h-269q-13 0 -18 9t0 18t18 9h269q-2 -5 -6.5 -15t-6.5 -15
q-54 52 -106 106q-34 34 -99.5 102.5t-99.5 102.5q9 -3 15 -6h-179q6 3 15 6q-60 -60 -99 -104q-35 -36 -100.5 -105t-97.5 -102q-9 15 -15 30h265q-2 -1 -6.5 -2t-6.5 -2q21 23 60.5 69.5t60.5 68.5q6 6 15.5 6t13.5 -6q20 -23 61 -69.5t62 -68.5z" />
    <glyph glyph-name="udieresis" unicode="&#xfc;" horiz-adv-x="1224" 
d="M535 -4q20 0 20 -20.5t-20 -20.5q-170 0 -291 80q-125 81 -178 217q-37 96 -41 233v103q0 64 -1 191t-1 190q-3 117 -3 231q0 9 6 15t15 6q20 0 59.5 1t59.5 1q50 0 150.5 1t150.5 1q9 0 14.5 -6.5t5.5 -14.5q2 -51 2 -155q1 -64 2 -192.5t2 -192.5v-109q0 -47 7 -78
q8 -36 22 -55l2 -2l4 -4l2 -2q1 -1 4 -3t4 -3q3 -1 5.5 -2.5t3.5 -2.5q6 0 14 -4q12 -2 35 -2q38 0 72 15q38 19 55 47q14 26 20 59q0 4 0.5 13t0.5 17.5t-1 14.5v39q0 60 -1 178t-1 178q0 42 -1 124.5t-1 123.5q0 9 6.5 15t14.5 6q79 0 120 2q202 0 302 2q7 0 13.5 -6.5
t6.5 -14.5v-34q0 -45 1 -135t1 -134q0 -67 1 -199t1 -198q1 -60 2 -179t2 -179v-156q0 -21 -20 -21q-80 0 -119 -2q-201 0 -301 -2q-9 0 -15 6.5t-6 14.5v43q5 -3 15.5 -9.5t15.5 -9.5q-116 -61 -239 -61q-20 0 -20 20.5t20 20.5q115 0 217 57q11 5 21 -0.5t11 -17.5v-43
l-20 20q20 0 60 1t59 1q201 0 301 2q-17 -17 -21 -20v35q0 178 -2 268q0 66 -1 197.5t-1 197.5q-1 59 -2 179.5t-2 179.5v157q7 -10 21 -20q-20 0 -60 -1t-61 -1q-50 0 -150.5 -1t-150.5 -1l20 20q0 -34 1 -100t1 -100q0 -62 1 -187t1 -188q0 -49 2 -74q0 -66 -24 -113
q-19 -33 -53.5 -56.5t-73.5 -29.5q-86 -12 -133 25q-35 30 -43 96q-7 46 -7 119q-1 60 -2 180t-2 180q0 164 -2 246q4 -3 21 -20q-80 0 -119 -2q-201 0 -301 -2q9 11 20 20v-192q1 -65 2.5 -195t2.5 -195v-49v-54t1 -49t3.5 -54t6.5 -48t11 -51q45 -151 156 -229
q117 -88 291 -88zM524 1321q20 0 20 -20.5t-20 -20.5h-28h-303q-8 0 -14.5 6.5t-6.5 13.5v29v303q0 9 6.5 15t14.5 6h28h303q9 0 15 -6t6 -15v-28v-304q0 -20 -20.5 -20t-20.5 20v29v303l20 -20h-28h-303l20 20v-28v-304q-3 3 -10 10.5t-10 10.5h28h303zM1028 1321
q20 0 20 -20.5t-20 -20.5h-29h-303q-8 0 -14 6t-6 14v29v303q0 9 6 15t14 6h29h303q8 0 14.5 -6t6.5 -15v-28v-304q0 -20 -20.5 -20t-20.5 20v29v303l20 -20h-29h-303q4 5 12 12t9 8v-28v-304q-3 4 -6.5 7.5t-8 7.5t-6.5 6h29h303z" />
    <glyph glyph-name="yacute" unicode="&#xfd;" 
 />
    <glyph glyph-name="thorn" unicode="&#xfe;" 
 />
    <glyph glyph-name="ydieresis" unicode="&#xff;" 
 />
    <glyph glyph-name="Amacron" unicode="&#x100;" 
 />
    <glyph glyph-name="amacron" unicode="&#x101;" 
 />
    <glyph glyph-name="Abreve" unicode="&#x102;" 
 />
    <glyph glyph-name="abreve" unicode="&#x103;" 
 />
    <glyph glyph-name="Aogonek" unicode="&#x104;" 
 />
    <glyph glyph-name="aogonek" unicode="&#x105;" 
 />
    <glyph glyph-name="Cacute" unicode="&#x106;" 
d="M948 -94q20 0 20 -20.5t-20 -20.5q-255 3 -448 84q-167 70 -275 184q-97 100 -153 240q-58 136 -68 305q-13 201 25 356q45 180 139 305q102 137 252 228q149 88 319 120.5t340 6.5q148 -21 273 -105q102 -68 229 -209q10 -11 0 -28q-47 -55 -74 -88q-33 -39 -97 -116
t-97 -116q-5 -6 -14 -5.5t-15 5.5q-57 57 -76 70q-74 57 -149 82q-75 27 -159.5 22.5t-154.5 -43.5q-70 -38 -118.5 -102t-69.5 -141q-22 -70 -16.5 -148t29 -148.5t72 -130.5t114.5 -94q69 -34 155 -36.5t158 22.5q78 21 141 72q36 29 74 73q6 6 15 6t14 -6q23 -23 63 -69
q35 -38 205 -228q11 -11 2 -24q-1 -2 -9.5 -16t-14.5 -21q-97 -142 -252 -221q-161 -83 -359 -86q-20 0 -20 20.5t20 20.5q26 0 80 4q188 19 334 123q67 45 131 119q36 45 55 77q1 -4 2 -12t2 -12q-48 52 -63 71q-98 106 -205 226h29q-20 -24 -35 -39q-39 -43 -86 -68
q-87 -53 -203 -69q-179 -20 -301 67q-119 90 -164 236q-27 78 -26.5 168t30.5 168q28 78 83 141.5t128 99.5q157 75 328 19q97 -34 162 -88q31 -23 84 -76h-29q13 15 37.5 45t36.5 45q33 38 97 114.5t97 114.5v-28q-123 134 -213 196q-130 87 -268 107q-161 24 -328 -8
q-171 -35 -317.5 -125.5t-239.5 -227.5q-183 -270 -137 -659q16 -160 78 -289q64 -134 170 -227q239 -209 651 -213z" />
    <glyph glyph-name="cacute" unicode="&#x107;" 
d="M627 -23q13 0 18 -10t0 -20t-18 -10h-17q-199 3 -348 86q-81 43 -131 96q-49 53 -84 117q-67 129 -74 307q-3 204 76 352q83 150 242 233q162 88 327 82q104 -4 164 -22q74 -22 136 -66q76 -51 135 -116q10 -11 53 -66q8 -11 -4 -27q-31 -39 -51 -61q-33 -39 -97.5 -117
t-97.5 -117q-4 -6 -14.5 -6t-14.5 6q-5 6 -15 18.5t-15 18.5q-31 40 -62 62q-79 60 -155 43q-79 -18 -117 -98q-33 -71 -6 -158q13 -37 39 -67.5t61 -43.5q24 -8 47 -8q44 0 84 12q33 10 68 41q2 2 5 6.5t5 6.5q1 1 4 5q0 -1 -2 -3q1 1 3 4t3 4q6 12 18.5 33t18.5 32
q4 9 14.5 10.5t16.5 -6.5q10 -11 31.5 -33.5t31.5 -33.5q122 -135 193 -213q12 -12 2 -25q-19 -39 -41 -71q-46 -65 -107 -111q-145 -106 -325 -106q-13 0 -18 10t0 20t18 10q167 0 305 101q59 46 96 104q8 12 21 35.5t16 28.5q1 -4 2 -12.5t2 -12.5q-33 38 -61 66
q-44 50 -195 215q20 4 33 4q-4 -7 -12.5 -22.5t-12.5 -22.5q-18 -31 -26 -41q-35 -35 -64 -49q-44 -19 -84 -25q-79 -10 -131 23q-74 44 -100.5 134t6.5 169q21 48 47 71q43 37 74 48q80 30 164 -11q27 -11 77 -51q2 -2 11 -10t14 -14q8 -9 23.5 -29t23.5 -29h-29
q30 38 52 62q5 6 194 235q-1 -4 -2 -12t-2 -12l-18 24q-1 2 -5 6.5t-6 7.5q-1 1 -2 2.5t-2 2.5q-60 66 -112 106q-57 44 -113 66q-47 19 -121 30q-174 18 -330 -49q-169 -71 -254 -207q-92 -146 -92 -340q0 -175 64 -303q29 -60 80 -114q46 -51 125 -95q149 -80 344 -80z
" />
    <glyph glyph-name="Ccaron" unicode="&#x10c;" 
 />
    <glyph glyph-name="ccaron" unicode="&#x10d;" 
 />
    <glyph glyph-name="Dcaron" unicode="&#x10e;" 
 />
    <glyph glyph-name="dcaron" unicode="&#x10f;" 
 />
    <glyph glyph-name="Dcroat" unicode="&#x110;" 
 />
    <glyph glyph-name="dcroat" unicode="&#x111;" 
d="M455 623q0 20 20.5 20t20.5 -20q0 -25 2 -39q7 -65 49 -107q41 -41 98 -41q87 -3 135 53q44 59 41 144q-7 94 -61 137q-59 46 -135 33q-62 -10 -93 -58q-36 -47 -36 -122q0 -20 -20.5 -20t-20.5 20q0 97 53 159q47 54 124.5 62.5t137.5 -31.5q70 -48 86 -133
q17 -95 -16 -170q-36 -77 -113 -104q-77 -24 -145 0q-62 26 -95 81q-32 52 -32 136zM354 63q7 -3 9 -12t-1 -16q-10 -17 -28 -6q-137 64 -217 182q-90 130 -107 270q-14 91 -8 191q6 99 35 180q64 179 194 278q130 102 297 105q100 3 185 -31q70 -31 127 -82l-35 -14v37v352
v250q0 8 5.5 14t14.5 6h154h297q8 0 14 -6.5t6 -13.5v-18v-193v-338v-401v-387v-291v-115q0 -9 -6 -14.5t-14 -5.5h-156h-295q-20 0 -20 20v90l35 -14q-103 -82 -224 -94q-138 -15 -278 41q-17 7 -14 24q8 21 26 15q133 -54 264 -39q108 12 197 82q9 8 22 3t13 -18v-90
q-12 9 -21 21h154h297l-21 -21v19v190v338v403v387v291v115q9 -12 21 -21h-156h-295l21 21v-37v-352v-250q0 -13 -13 -18t-22 4q-90 77 -190 94q-115 21 -228 -17q-154 -51 -246 -188q-48 -72 -75 -156q-26 -81 -29 -178q-3 -104 10 -186q19 -92 60 -166q45 -82 100 -137
q64 -60 141 -97z" />
    <glyph glyph-name="Emacron" unicode="&#x112;" 
 />
    <glyph glyph-name="emacron" unicode="&#x113;" 
 />
    <glyph glyph-name="Edotaccent" unicode="&#x116;" 
d="M78 10q0 -20 -20.5 -20t-20.5 20v15v184v336v401v387v293v115q0 20 20 20h4h207h385h371h166q8 0 14 -5.5t6 -14.5v-62v-307q0 -9 -6 -14.5t-14 -5.5h-64h-368h-242q3 3 10 9.5t11 10.5v-45v-307q-4 4 -11 10.5t-10 9.5h234h280q21 0 21 -20v-6v-295q0 -8 -6 -14.5
t-15 -6.5h-235h-279q9 12 21 21v-35v-305q-4 3 -21 20h64h370h242q8 0 14 -5.5t6 -14.5v-64v-305q0 -9 -6 -14.5t-14 -5.5h-6h-211h-383h-371h-164q-20 0 -20 20.5t20 20.5h4h211h385h369h166l-21 -21v62v307q2 -2 6 -6.5t7.5 -8t7.5 -6.5h-66h-368h-242q-9 0 -14.5 6.5
t-5.5 14.5v35v305q0 20 20 20h234h280l-20 -20v8v293q10 -7 20 -21h-235h-279q-9 0 -14.5 6.5t-5.5 14.5v45v307q0 8 5.5 14.5t14.5 6.5h64h368h242l-21 -21v62v307l21 -21h-4h-209h-385h-371h-164q9 12 21 21v-15v-186v-334v-401v-387v-293v-115z" />
    <glyph glyph-name="edotaccent" unicode="&#x117;" 
d="M799 748q3 -7 -2 -15.5t-13 -11.5q-17 -3 -24 14q-14 32 -23 43q-18 21 -37 31q-41 20 -92 20q-53 -2 -101 -27.5t-67 -70.5q-11 18 -16 31h49h307q19 0 19 -20.5t-19 -20.5h-51h-305q-13 0 -18 10t0 21q23 55 86 86q59 32 120 32q69 0 115 -30q47 -27 72 -92zM399 430
q-7 11 0 21t17.5 10t17.5 -10q34 -58 105 -84q60 -19 133 -13q67 10 112 41q20 12 68 60q3 -6 8 -17.5t8 -17.5h-155h-295q-20 0 -20 20.5t20 20.5h153h297q12 0 18 -13t-3 -22q-6 -6 -19 -18.5t-21 -19.5t-19.5 -16.5t-22.5 -15.5q-61 -37 -135 -43q-80 -9 -152 21
q-75 29 -115 96zM625 16q19 0 19 -20.5t-19 -20.5q-96 0 -181 23q-152 37 -270 149q-107 104 -149 254q-42 154 -13 326q28 154 127 268q108 124 267 179q151 53 329 20q166 -31 289 -139q116 -103 154 -250q20 -78 20 -213v-152q0 -8 -6 -14t-14 -6h-2h-279q7 21 14 35
q1 -2 4.5 -5.5t4.5 -5.5q96 -102 204 -219q12 -16 0 -28q-112 -108 -202 -152q-137 -70 -297 -70q-20 0 -20 20.5t20 20.5q149 0 282 68q78 42 123 82q23 18 64 59v-28q-1 2 -4.5 5t-4.5 5q-108 117 -204 219q-8 9 -2.5 22t18.5 13h281l-21 -21v9v172q0 135 -37 229
q-57 141 -192.5 225t-294.5 90q-170 6 -307 -71q-144 -80 -215 -211t-68 -295q0 -168 68 -293q76 -133 208 -205q133 -74 306 -74z" />
    <glyph glyph-name="Eogonek" unicode="&#x118;" 
 />
    <glyph glyph-name="eogonek" unicode="&#x119;" 
 />
    <glyph glyph-name="Ecaron" unicode="&#x11a;" 
 />
    <glyph glyph-name="ecaron" unicode="&#x11b;" 
 />
    <glyph glyph-name="Gcommaaccent" unicode="&#x122;" 
 />
    <glyph glyph-name="gcommaaccent" unicode="&#x123;" 
 />
    <glyph glyph-name="Imacron" unicode="&#x12a;" 
 />
    <glyph glyph-name="imacron" unicode="&#x12b;" 
 />
    <glyph glyph-name="Iogonek" unicode="&#x12e;" 
 />
    <glyph glyph-name="iogonek" unicode="&#x12f;" 
 />
    <glyph glyph-name="Kcommaaccent" unicode="&#x136;" 
 />
    <glyph glyph-name="kcommaaccent" unicode="&#x137;" 
 />
    <glyph glyph-name="Lacute" unicode="&#x139;" 
d="M59 6q0 -20 -20.5 -20t-20.5 20v17v188v338v401v387v291v115q0 20 21 20h233h281q20 0 20 -20v-62v-295v-401v-352v-152q-1 1 -8 9t-12 12h43h356h248q9 0 15 -6.5t6 -14.5v-186v-289q0 -9 -6 -15.5t-15 -6.5h-12h-232h-389h-366h-162q-20 0 -20 21.5t20 21.5h12h232h389
h366h162q-10 -14 -20 -21v184v291l20 -20h-43h-354h-250q-8 0 -14.5 5.5t-6.5 14.5v64v295v399v352v152q12 -9 21 -21h-234h-280q3 4 20 21v-17v-190v-336v-401v-387v-291v-115z" />
    <glyph glyph-name="lacute" unicode="&#x13a;" 
d="M492 25q20 0 20 -21.5t-20 -21.5h-156h-295q-9 0 -15 6.5t-6 15.5v16v193v338v401v387v291v117q0 8 6 14t15 6h154h297q8 0 14 -6.5t6 -13.5v-18v-193v-338v-401v-387v-291v-115q0 -20 -20.5 -20t-20.5 20v16v193v338v401v387v291v117q9 -12 21 -21h-156h-295q3 3 9.5 10
t10.5 11v-18v-193v-338v-401v-387v-291v-115q-10 7 -20 21h154h297z" />
    <glyph glyph-name="Lcommaaccent" unicode="&#x13b;" 
 />
    <glyph glyph-name="lcommaaccent" unicode="&#x13c;" 
 />
    <glyph glyph-name="Lcaron" unicode="&#x13d;" 
 />
    <glyph glyph-name="lcaron" unicode="&#x13e;" 
 />
    <glyph glyph-name="Lslash" unicode="&#x141;" 
 />
    <glyph glyph-name="lslash" unicode="&#x142;" 
 />
    <glyph glyph-name="Nacute" unicode="&#x143;" 
d="M1231 16q5 -6 3 -14.5t-9 -13.5q-8 -4 -16 -1.5t-13 9.5q-1 1 -3 4t-3 4q-77 99 -139 184q-47 59 -131.5 171.5t-104.5 138.5q-37 49 -111.5 146.5t-111.5 146.5q-17 21 -49 64t-49 65q14 2 38 10v-33v-305v-391v-195q0 -8 -6 -14t-14 -6h-172h-293q-9 0 -14.5 6t-5.5 14
v14v187v336v401v387v293v115q0 20 20 20h275h137q14 0 22 -10q0 -2 2 -2q2 -3 6.5 -9t6.5 -9q87 -111 155 -205q40 -52 120 -157t120 -157q42 -54 118.5 -154t100.5 -132q17 -21 48.5 -63t47.5 -62q-27 -9 -39 -11v50v321v389v191q0 9 6.5 14.5t14.5 5.5h174h291
q20 0 20 -20v-15v-186v-336v-401v-387v-293v-115q0 -8 -5.5 -14t-14.5 -6h-142h-297q-20 0 -20 20.5t20 20.5h142h297q-2 -2 -6 -6.5t-7.5 -8t-7.5 -6.5v14v187v336v401v387v293v115q12 -9 21 -21h-172h-293q4 4 10.5 11t9.5 10v-49v-322v-391v-189q0 -16 -14 -20
q-16 -3 -23 10q-11 11 -16 21q-25 34 -77.5 101t-78.5 101q-40 52 -119.5 157t-119.5 157q-136 181 -219 289q-56 74 -97 125q3 -2 9.5 -5.5t9.5 -5.5h-115h-301q9 12 21 21v-15v-186v-336v-401v-387v-293v-115l-21 21h172h293q-3 -3 -10 -10.5t-10 -10.5v33v305v391v195
q0 14 14 18q11 5 24 -8q1 -2 3.5 -5t3.5 -5q23 -30 69.5 -90.5t69.5 -91.5q105 -140 235 -310q37 -49 111 -146.5t111 -146.5q17 -22 49 -65t49 -64z" />
    <glyph glyph-name="nacute" unicode="&#x144;" 
d="M709 2q0 -20 -20.5 -20t-20.5 20v33v352v172v88q-4 38 -11 62q-2 2 -2 4q-1 1 -2 3t-2 3l-2 4l-2 2q-24 12 -65 4q-30 -7 -50 -27l-6 -6q0 -2 -2 -2q-2 -4 -6 -16q-8 -24 -8 -55v-25v-342v-254q0 -9 -6.5 -15.5t-14.5 -6.5h-153h-295q-8 0 -14.5 6.5t-6.5 15.5v21v249
v394v364v158q0 9 6.5 14.5t14.5 5.5h154h294q8 0 14.5 -5.5t6.5 -14.5v-39q-4 3 -13.5 9t-13.5 9q26 10 29 11q171 55 340 -7q152 -60 231 -188q74 -123 74 -297v-74v-372v-238q0 -9 -6 -15.5t-14 -6.5h-154h-295q-20 0 -20 21.5t20 21.5h152h297l-21 -21v227v375v82
q0 159 -65 270q-76 130 -222 179q-174 59 -333 -7q-10 -3 -18.5 4.5t-8.5 16.5v39q17 -17 20 -21h-153h-295q3 4 20 21v-21v-252v-391v-364v-158q-17 17 -20 21h154h294q-3 -4 -20 -21v61v371v152q0 4 -0.5 24.5t0 28.5t2 23.5t5.5 27.5t11 23q15 23 41.5 38.5t53.5 18.5
q86 13 108 -37q19 -43 19 -133v-346v-252z" />
    <glyph glyph-name="Ncommaaccent" unicode="&#x145;" 
 />
    <glyph glyph-name="ncommaaccent" unicode="&#x146;" 
 />
    <glyph glyph-name="Ncaron" unicode="&#x147;" 
 />
    <glyph glyph-name="ncaron" unicode="&#x148;" 
 />
    <glyph glyph-name="Eng" unicode="&#x14a;" 
 />
    <glyph glyph-name="eng" unicode="&#x14b;" 
 />
    <glyph glyph-name="Omacron" unicode="&#x14c;" 
 />
    <glyph glyph-name="omacron" unicode="&#x14d;" 
 />
    <glyph glyph-name="Ohungarumlaut" unicode="&#x150;" 
 />
    <glyph glyph-name="ohungarumlaut" unicode="&#x151;" 
 />
    <glyph glyph-name="OE" unicode="&#x152;" 
 />
    <glyph glyph-name="oe" unicode="&#x153;" 
 />
    <glyph glyph-name="Racute" unicode="&#x154;" 
d="M948 -2q7 -12 0.5 -22.5t-17 -10.5t-18.5 10q-1 2 -3 6.5t-3 6.5q-28 46 -83.5 139t-82.5 139q-77 126 -133 223q2 -2 8.5 -5.5t8.5 -4.5h-99q2 2 6 6.5t7.5 8t7.5 6.5v-232v-282q0 -8 -6.5 -14.5t-14.5 -6.5h-180h-291q-9 0 -14.5 6.5t-5.5 14.5v32v215v347v405v383v287
v112q0 8 5.5 14.5t14.5 6.5h23h323h336q105 0 158 -8q192 -24 317 -119q124 -95 181 -244q58 -154 45 -332q-10 -192 -101 -319q-45 -65 -108 -119q-42 -29 -101 -63q1 6 4.5 15.5t4.5 12.5q9 -16 27.5 -46.5t27.5 -45.5q143 -229 201 -325q74 -118 120 -197
q6 -10 0.5 -21.5t-16.5 -11.5h-2h-295h-268q-20 0 -20 21.5t20 21.5h2h295h268q-9 -18 -18 -33q-18 31 -58 93l-198 327q-94 152 -121 197q-10 17 6 29q45 24 63 36q134 90 191 244q54 152 31 344q-20 163 -105 281q-90 126 -252 180q-116 41 -272 41h-96h-379h-234
q17 17 21 20v-32v-213v-348v-404v-385v-285v-114q-18 18 -21 22h178h293q-14 -14 -20 -22v233v281q0 8 5.5 14t14.5 6h86q25 0 31 -10q4 -8 6 -10q28 -47 83 -140.5t83 -140.5q103 -170 133 -221zM516 969q-20 0 -20 20.5t20 20.5h55h84q35 0 70 6q18 4 25 8q4 1 18 8
q20 10 37 27t24 41q11 28 11 65q0 82 -58 117q-46 31 -123 31h-143q7 10 21 20v-39v-305q0 -20 -20.5 -20t-20.5 20v39v305q0 21 20 21h105q37 0 59.5 -1.5t55 -7t57 -19.5t43.5 -36q52 -58 45 -147q-7 -72 -50 -115q-59 -59 -172 -59h-143z" />
    <glyph glyph-name="racute" unicode="&#x155;" 
d="M51 2q0 -20 -20.5 -20t-20.5 20v21v249v394v362v160q0 7 6.5 13.5t14.5 6.5h164h292q9 0 15 -6t6 -14q0 -14 1 -39t1 -39l-35 14q60 53 125 70q57 14 127 14q20 0 58 1t57 1q8 0 14 -6t6 -14v-146q0 -49 1 -148t1 -148q0 -9 -6 -15t-14 -6q-20 0 -61 -1t-62 -1
q-68 0 -107 -20q-3 -1 -18 -11q-2 -2 -5.5 -4.5t-6.5 -5.5q-2 -2 -6.5 -6t-6.5 -6q-6 -9 -10 -13q-53 -78 -53 -221v-139v-297q0 -8 -6 -14t-15 -6h-161h-295q-20 0 -20 20.5t20 20.5h164h292q-3 -3 -10 -10.5t-10 -10.5v266v160q0 127 35 207q23 54 63 86q46 38 123 45
q26 2 156 2q-4 -3 -21 -20q0 98 -2 145v297l21 -21q-20 0 -57.5 -1t-55.5 -1q-69 0 -113 -12q-62 -15 -112 -59q-10 -9 -22.5 -4t-12.5 18q0 14 -1 39t-1 39q3 -3 10 -10.5t10 -10.5h-161h-295q5 4 12 12t8 9v-21v-249v-394v-362v-160z" />
    <glyph glyph-name="Rcommaaccent" unicode="&#x156;" 
 />
    <glyph glyph-name="rcommaaccent" unicode="&#x157;" 
 />
    <glyph glyph-name="Rcaron" unicode="&#x158;" 
 />
    <glyph glyph-name="rcaron" unicode="&#x159;" 
 />
    <glyph glyph-name="Sacute" unicode="&#x15a;" 
d="M696 -39q13 -1 18 -11.5t0 -20.5t-18 -9q-175 0 -329 51q-158 50 -291 150q-62 45 -164 135q-12 12 0 29q68 81 90 106q32 38 95.5 115t95.5 115q10 13 28 0q13 -11 38.5 -33.5t41.5 -36.5t39 -31.5t43 -30.5q165 -113 340 -104q93 4 129 43q19 22 16 57q-6 25 -26 39
q-23 14 -31 17q-14 7 -47 18q-76 26 -164 45q-73 19 -107 28.5t-91.5 30t-100.5 42.5q-177 91 -244 229q-75 155 -45 352q28 178 158 293q127 110 299 146t352 6q190 -28 350 -123q48 -29 170 -129q13 -13 2 -25q-12 -17 -35.5 -51.5t-35.5 -52.5q-15 -21 -174 -244
q-6 -9 -15.5 -10t-17.5 6q-7 6 -24 22t-26.5 24t-24.5 20.5t-29 22t-29 17.5q-72 42 -170 62q-103 22 -178 6q-40 -7 -66 -25l-14 -14q-6 -9 -6 -25q0 -39 18 -55q3 -2 9.5 -6t9.5 -6l24 -12q3 0 6 -3q1 0 4 -1t4 -1q7 -4 21 -8q58 -21 123 -39q122 -30 176 -47
q94 -28 154 -59q153 -73 223 -172q85 -117 92 -287q7 -198 -90 -334q-91 -131 -248 -200q-143 -62 -328 -62q-12 -1 -17 9t0 20.5t17 11.5h23q181 3 311 70q153 73 232 211q79 144 53 331q-20 155 -119 254q-87 85 -242 144q-59 23 -170.5 51.5t-154.5 42.5q-41 13 -92 33
q-37 18 -48 28q-27 24 -30 64q-8 44 12 72q35 46 129 59q91 9 186 -14q100 -24 172 -66q18 -10 38.5 -25.5t30.5 -24.5t36.5 -33t30.5 -28q-20 -4 -31 -4q54 76 72 103q89 123 174 246q1 -4 2 -12.5t2 -12.5q-112 91 -166 123q-155 91 -340 119q-188 29 -354 -13
q-171 -45 -275 -149q-122 -122 -131 -299q-14 -199 76 -330q48 -65 117 -113q71 -50 151 -77q46 -17 97 -32t118.5 -32t98.5 -26q61 -15 122 -43q57 -24 72 -60q16 -37 6 -78q-10 -31 -45 -59q-55 -37 -149 -37q-182 -3 -351 111q-52 35 -167 137h28q-18 -21 -50.5 -60.5
t-37.5 -46.5q-31 -38 -95 -114.5t-95 -114.5v29q84 -77 147 -125q146 -104 287 -150q146 -49 319 -49z" />
    <glyph glyph-name="sacute" unicode="&#x15b;" 
d="M571 -31q13 -1 18 -11.5t0 -20.5t-18 -9q-90 0 -168 17q-158 33 -297 133q-51 39 -145 125q-16 12 0 28q50 62 51 64q150 177 195 233q6 7 15.5 6.5t15.5 -6.5q6 -5 35 -31t41 -36t35 -28t42 -30q86 -52 170 -55q49 -4 74 8q1 1 4 3t4 3q2 2 2 0q0 -6 -2 0q0 3 3 -2
q0 -1 1 -2l-4 4q-6 3 -31 13q-52 18 -67 22q-122 30 -168 45q-190 60 -273 181q-48 71 -61.5 165.5t6.5 176.5q19 88 70 153q52 64 125 109q137 80 325 73q198 -6 359 -102q25 -15 48.5 -32.5t61 -48.5t45.5 -38q13 -13 2 -24q-43 -62 -45 -64q-34 -50 -100.5 -144
t-75.5 -106q-6 -8 -15.5 -9t-17.5 5q-60 56 -90 82q-47 39 -135 58q-54 8 -80 6q-39 -4 -57 -15q2 2 5 6.5t5 6.5l-1 1q1 -2 1 -3v-7l-4 7l2 -2q3 -1 15 -7l4 -2l2 -2q12 -4 14 -4q6 -3 39 -14q28 -8 79.5 -21.5t93 -25.5t77.5 -27q161 -70 227 -178q41 -68 53 -154t-6 -163
q-17 -84 -67.5 -154.5t-124.5 -116.5q-129 -80 -312 -80q-13 -1 -18 9t0 20.5t18 11.5q116 0 218 39t169 121q54 63 74 146t6 169q-14 83 -49 136q-30 51 -92 96q-60 42 -129 67q-74 26 -172 50q-74 20 -109 34q-43 16 -47 33q-9 26 4 39t33 16q41 12 86 9q105 -11 178 -56
q19 -11 66 -53q36 -32 53 -49q-11 0 -31 -4q38 54 45 63q33 49 96.5 137t80.5 113q0 -4 1 -12t1 -12q-113 96 -164 123q-165 89 -357 86q-172 0 -305 -93q-70 -53 -104 -118q-40 -75 -43 -164q-7 -198 117 -303q63 -54 147 -86q84 -28 143 -43q111 -27 148 -43q24 -9 31 -15
q14 -11 18 -18q5 -23 -4 -35q-18 -26 -64 -33q-39 -5 -94 2q-84 11 -170 70q-23 16 -46 34.5t-54 46t-45 38.5h31q-30 -33 -54 -64q-33 -39 -97 -116.5t-97 -116.5v28q32 -28 49 -45q60 -51 80 -67q65 -49 141 -84q144 -66 311 -66z" />
    <glyph glyph-name="Scedilla" unicode="&#x15e;" 
d="M696 -39q13 -1 18 -11.5t0 -20.5t-18 -9q-175 0 -329 51q-158 50 -291 150q-62 45 -164 135q-12 12 0 29q68 81 90 106q32 38 95.5 115t95.5 115q10 13 28 0q13 -11 38.5 -33.5t41.5 -36.5t39 -31.5t43 -30.5q165 -113 340 -104q93 4 129 43q19 22 16 57q-6 25 -26 39
q-23 14 -31 17q-14 7 -47 18q-76 26 -164 45q-73 19 -107 28.5t-91.5 30t-100.5 42.5q-177 91 -244 229q-75 155 -45 352q28 178 158 293q127 110 299 146t352 6q190 -28 350 -123q48 -29 170 -129q13 -13 2 -25q-12 -17 -35.5 -51.5t-35.5 -52.5q-15 -21 -174 -244
q-6 -9 -15.5 -10t-17.5 6q-7 6 -24 22t-26.5 24t-24.5 20.5t-29 22t-29 17.5q-72 42 -170 62q-103 22 -178 6q-40 -7 -66 -25l-14 -14q-6 -9 -6 -25q0 -39 18 -55q3 -2 9.5 -6t9.5 -6l24 -12q3 0 6 -3q1 0 4 -1t4 -1q7 -4 21 -8q58 -21 123 -39q122 -30 176 -47
q94 -28 154 -59q153 -73 223 -172q85 -117 92 -287q7 -198 -90 -334q-91 -131 -248 -200q-143 -62 -328 -62q-12 -1 -17 9t0 20.5t17 11.5h23q181 3 311 70q153 73 232 211q79 144 53 331q-20 155 -119 254q-87 85 -242 144q-59 23 -170.5 51.5t-154.5 42.5q-41 13 -92 33
q-37 18 -48 28q-27 24 -30 64q-8 44 12 72q35 46 129 59q91 9 186 -14q100 -24 172 -66q18 -10 38.5 -25.5t30.5 -24.5t36.5 -33t30.5 -28q-20 -4 -31 -4q54 76 72 103q89 123 174 246q1 -4 2 -12.5t2 -12.5q-112 91 -166 123q-155 91 -340 119q-188 29 -354 -13
q-171 -45 -275 -149q-122 -122 -131 -299q-14 -199 76 -330q48 -65 117 -113q71 -50 151 -77q46 -17 97 -32t118.5 -32t98.5 -26q61 -15 122 -43q57 -24 72 -60q16 -37 6 -78q-10 -31 -45 -59q-55 -37 -149 -37q-182 -3 -351 111q-52 35 -167 137h28q-18 -21 -50.5 -60.5
t-37.5 -46.5q-31 -38 -95 -114.5t-95 -114.5v29q84 -77 147 -125q146 -104 287 -150q146 -49 319 -49z" />
    <glyph glyph-name="scedilla" unicode="&#x15f;" 
d="M571 -31q13 -1 18 -11.5t0 -20.5t-18 -9q-90 0 -168 17q-158 33 -297 133q-51 39 -145 125q-16 12 0 28q50 62 51 64q150 177 195 233q6 7 15.5 6.5t15.5 -6.5q6 -5 35 -31t41 -36t35 -28t42 -30q86 -52 170 -55q49 -4 74 8q1 1 4 3t4 3q2 2 2 0q0 -6 -2 0q0 3 3 -2
q0 -1 1 -2l-4 4q-6 3 -31 13q-52 18 -67 22q-122 30 -168 45q-190 60 -273 181q-48 71 -61.5 165.5t6.5 176.5q19 88 70 153q52 64 125 109q137 80 325 73q198 -6 359 -102q25 -15 48.5 -32.5t61 -48.5t45.5 -38q13 -13 2 -24q-43 -62 -45 -64q-34 -50 -100.5 -144
t-75.5 -106q-6 -8 -15.5 -9t-17.5 5q-60 56 -90 82q-47 39 -135 58q-54 8 -80 6q-39 -4 -57 -15q2 2 5 6.5t5 6.5l-1 1q1 -2 1 -3v-7l-4 7l2 -2q3 -1 15 -7l4 -2l2 -2q12 -4 14 -4q6 -3 39 -14q28 -8 79.5 -21.5t93 -25.5t77.5 -27q161 -70 227 -178q41 -68 53 -154t-6 -163
q-17 -84 -67.5 -154.5t-124.5 -116.5q-129 -80 -312 -80q-13 -1 -18 9t0 20.5t18 11.5q116 0 218 39t169 121q54 63 74 146t6 169q-14 83 -49 136q-30 51 -92 96q-60 42 -129 67q-74 26 -172 50q-74 20 -109 34q-43 16 -47 33q-9 26 4 39t33 16q41 12 86 9q105 -11 178 -56
q19 -11 66 -53q36 -32 53 -49q-11 0 -31 -4q38 54 45 63q33 49 96.5 137t80.5 113q0 -4 1 -12t1 -12q-113 96 -164 123q-165 89 -357 86q-172 0 -305 -93q-70 -53 -104 -118q-40 -75 -43 -164q-7 -198 117 -303q63 -54 147 -86q84 -28 143 -43q111 -27 148 -43q24 -9 31 -15
q14 -11 18 -18q5 -23 -4 -35q-18 -26 -64 -33q-39 -5 -94 2q-84 11 -170 70q-23 16 -46 34.5t-54 46t-45 38.5h31q-30 -33 -54 -64q-33 -39 -97 -116.5t-97 -116.5v28q32 -28 49 -45q60 -51 80 -67q65 -49 141 -84q144 -66 311 -66z" />
    <glyph glyph-name="Scaron" unicode="&#x160;" 
 />
    <glyph glyph-name="scaron" unicode="&#x161;" 
 />
    <glyph glyph-name="uni0162" unicode="&#x162;" 
d="M209 20q0 -20 -20.5 -20t-20.5 20v134v333v404v340v143q9 -11 20 -20h-133h-299q-20 0 -20 20v62v307q0 8 5.5 14t14.5 6h111h326h403h342h145q9 0 15 -6t6 -14v-62v-307q0 -20 -21 -20h-133h-299q14 10 21 20v-133v-334v-403v-340v-144q0 -8 -6 -14t-15 -6h-172h-291
q-20 0 -20 20.5t20 20.5h172h291q-1 -1 -8 -9t-12 -12v134v333v404v340v143q0 8 6.5 14.5t13.5 6.5h133h299q-10 -14 -20 -21v62v307q4 -4 10.5 -11t9.5 -10h-110h-326h-403h-344h-144l21 21v-62v-307q-12 9 -21 21h133h299q8 0 14.5 -6.5t6.5 -14.5v-133v-334v-403v-340
v-144z" />
    <glyph glyph-name="uni0163" unicode="&#x163;" 
d="M117 1571q0 20 20.5 20t20.5 -20v-37v-305q0 -9 -6.5 -15t-14.5 -6h-147q3 3 9.5 10t10.5 11v-150v-297q-10 7 -20 21h147q7 0 14 -6.5t7 -14.5v-295v-65q0 -21 2 -31v-12q0 -1 1 -3t1 -3q0 -9 4 -29q4 -23 16 -63q5 -15 13 -35l1 -2h1q0 -4 2 -4q0 -5 4 -9q4 -12 8 -18
q10 -20 20 -35q2 -3 6.5 -9t6.5 -9q2 -2 2 -4v2l2 -2q3 -6 6 -9q5 -6 31 -32q3 -2 9 -7.5t9 -7.5q0 -4 4 -4l2 -2q1 -1 4 -3t4 -3q87 -62 205 -68q150 -13 283 39q44 15 90 47q3 2 9 6.5t9 6.5l2 2q3 2 5 2l6 6q5 4 26 25q18 18 21 22q1 1 2 3t2 3h2q0 4 4 8q9 13 10 17v-21
q-4 8 -13 25t-13 25q-26 51 -76 144t-68 128q6 1 18.5 2t18.5 2q-22 -65 -76 -109q-51 -41 -102 -41q-70 -4 -102 33q-25 29 -21 99v106v182q0 8 6 14.5t15 6.5h14h299l-21 -21v150v297q9 -12 21 -21h-10h-297q-9 0 -15 6t-6 15v37v305q9 -12 21 -21h-154h-295
q-20 0 -20 20.5t20 20.5h152h297q8 0 14 -6.5t6 -13.5v-37v-305q-11 9 -20 20h10h297q7 0 13.5 -6.5t6.5 -13.5v-150v-297q0 -9 -6 -14.5t-14 -5.5h-14h-299l20 20q0 -199 -2 -297q0 -18 2 -26v-6v-3v1q0 -2 1 -5.5t1 -5.5q0 -4 2 -6q-1 0 0 -2q1 -1 2 -4t2 -4l2 -2l2 -2
l4 -4q2 -1 2 -2q1 0 3.5 -1t3.5 -1l4 -2t6 -2t6 -2q15 -3 33 -3q24 0 53 11q42 22 72 67q9 15 18 33q4 8 4 10q1 1 0 -2q5 12 18 15t19 -9q7 -13 20.5 -36.5t20.5 -36.5q51 -101 90 -172q21 -42 33 -62q13 -25 6 -37q-18 -32 -55 -69q-69 -63 -172 -101q-136 -50 -289 -34
q-132 14 -215 73q-131 90 -170 273q-10 51 -10 149v307q9 -11 20 -20h-147q-21 0 -21 20v150v297q0 8 6 14t15 6h147l-20 -20v37v305z" />
    <glyph glyph-name="Tcaron" unicode="&#x164;" 
 />
    <glyph glyph-name="tcaron" unicode="&#x165;" 
 />
    <glyph glyph-name="Tbar" unicode="&#x166;" 
d="M209 20q0 -20 -20.5 -20t-20.5 20v134v333v404v340v143q9 -11 20 -20h-133h-299q-20 0 -20 20v62v307q0 8 5.5 14t14.5 6h111h326h403h342h145q9 0 15 -6t6 -14v-62v-307q0 -20 -21 -20h-133h-299q14 10 21 20v-133v-334v-403v-340v-144q0 -8 -6 -14t-15 -6h-172h-291
q-20 0 -20 20.5t20 20.5h172h291q-1 -1 -8 -9t-12 -12v134v333v404v340v143q0 8 6.5 14.5t13.5 6.5h133h299q-10 -14 -20 -21v62v307q4 -4 10.5 -11t9.5 -10h-110h-326h-403h-344h-144l21 21v-62v-307q-12 9 -21 21h133h299q8 0 14.5 -6.5t6.5 -14.5v-133v-334v-403v-340
v-144z" />
    <glyph glyph-name="tbar" unicode="&#x167;" 
d="M117 1571q0 20 20.5 20t20.5 -20v-37v-305q0 -9 -6.5 -15t-14.5 -6h-147q3 3 9.5 10t10.5 11v-150v-297q-10 7 -20 21h147q7 0 14 -6.5t7 -14.5v-295v-65q0 -21 2 -31v-12q0 -1 1 -3t1 -3q0 -9 4 -29q4 -23 16 -63q5 -15 13 -35l1 -2h1q0 -4 2 -4q0 -5 4 -9q4 -12 8 -18
q10 -20 20 -35q2 -3 6.5 -9t6.5 -9q2 -2 2 -4v2l2 -2q3 -6 6 -9q5 -6 31 -32q3 -2 9 -7.5t9 -7.5q0 -4 4 -4l2 -2q1 -1 4 -3t4 -3q87 -62 205 -68q150 -13 283 39q44 15 90 47q3 2 9 6.5t9 6.5l2 2q3 2 5 2l6 6q5 4 26 25q18 18 21 22q1 1 2 3t2 3h2q0 4 4 8q9 13 10 17v-21
q-4 8 -13 25t-13 25q-26 51 -76 144t-68 128q6 1 18.5 2t18.5 2q-22 -65 -76 -109q-51 -41 -102 -41q-70 -4 -102 33q-25 29 -21 99v106v182q0 8 6 14.5t15 6.5h14h299l-21 -21v150v297q9 -12 21 -21h-10h-297q-9 0 -15 6t-6 15v37v305q9 -12 21 -21h-154h-295
q-20 0 -20 20.5t20 20.5h152h297q8 0 14 -6.5t6 -13.5v-37v-305q-11 9 -20 20h10h297q7 0 13.5 -6.5t6.5 -13.5v-150v-297q0 -9 -6 -14.5t-14 -5.5h-14h-299l20 20q0 -199 -2 -297q0 -18 2 -26v-6v-3v1q0 -2 1 -5.5t1 -5.5q0 -4 2 -6q-1 0 0 -2q1 -1 2 -4t2 -4l2 -2l2 -2
l4 -4q2 -1 2 -2q1 0 3.5 -1t3.5 -1l4 -2t6 -2t6 -2q15 -3 33 -3q24 0 53 11q42 22 72 67q9 15 18 33q4 8 4 10q1 1 0 -2q5 12 18 15t19 -9q7 -13 20.5 -36.5t20.5 -36.5q51 -101 90 -172q21 -42 33 -62q13 -25 6 -37q-18 -32 -55 -69q-69 -63 -172 -101q-136 -50 -289 -34
q-132 14 -215 73q-131 90 -170 273q-10 51 -10 149v307q9 -11 20 -20h-147q-21 0 -21 20v150v297q0 8 6 14t15 6h147l-20 -20v37v305z" />
    <glyph glyph-name="Umacron" unicode="&#x16a;" 
 />
    <glyph glyph-name="umacron" unicode="&#x16b;" 
 />
    <glyph glyph-name="Uring" unicode="&#x16e;" 
d="M750 -4q20 0 20 -20.5t-20 -20.5q-139 0 -254 35q-158 48 -263 147q-120 115 -172 285q-41 130 -41 289v69v338v387v187q0 8 6 14t15 6h182h291q8 0 14.5 -6.5t6.5 -13.5v-56v-325v-389v-191q0 -185 81 -256q51 -43 134 -43q85 3 135 41q90 70 90 262v53v324v389v191
q0 8 5.5 14t14.5 6h181h290q8 0 14.5 -6.5t6.5 -13.5v-33v-297v-397v-248q0 -301 -137 -490q-97 -135 -250 -204q-161 -68 -350 -68q-20 0 -20 20.5t20 20.5q134 0 239 31q175 51 283 168q93 101 139 251q35 120 35 265v69v338v387v187q10 -14 20 -21h-180h-291l21 21v-82
v-346v-379v-119q0 -80 -6 -119q-22 -178 -148 -233q-79 -31 -162 -19q-80 14 -127 66q-29 32 -46.5 69.5t-24 89t-7.5 78.5t-1 90v324v389v191q3 -4 20 -21h-182h-291q17 17 20 21v-23v-280v-398v-266q0 -103 13 -182q30 -182 129 -310q85 -115 233 -178q134 -59 314 -59z
" />
    <glyph glyph-name="uring" unicode="&#x16f;" 
d="M524 -8q12 -1 17 -11.5t0 -20.5t-17 -9q-173 0 -291 80q-121 78 -176 219q-39 102 -39 235v101v383v231q0 8 7 14.5t14 6.5h121h301q7 0 13.5 -6.5t6.5 -14.5v-156v-385v-108q0 -51 6 -78q7 -37 21 -55l2 -2v-2q4 0 4 -4q2 0 2 -2q6 -3 8 -5q3 -2 6.5 -2.5t4.5 -1.5
q8 -4 12 -4q24 -4 35 -4q41 0 71 15q37 16 56 45q17 25 20 59q2 13 2 86v356v248q0 8 6.5 14.5t14.5 6.5h120h302q9 0 14.5 -6.5t5.5 -14.5v-35v-268v-397v-359v-155q0 -21 -20 -21h-121h-301q-8 0 -14.5 6t-6.5 15v43q5 -3 15.5 -9.5t15.5 -9.5q-112 -59 -238 -59
q-13 -1 -18 9t0 20.5t18 11.5q114 0 217 53q11 6 21 0.5t10 -16.5v-43l-20 20h120h302q-3 -3 -10.5 -10t-10.5 -10v34v269v395v358v158q4 -5 12 -12t9 -8h-121h-301q11 9 20 20v-201v-374v-74q0 -70 -22 -113q-20 -33 -55 -56.5t-74 -29.5q-92 -9 -132 27q-33 26 -45 96
q-4 26 -4 119v360v246q7 -10 21 -20h-121h-301q2 2 6 5.5t7.5 7t6.5 7.5v-194v-390q0 -11 -0.5 -58t0 -66.5t2.5 -56t6.5 -65.5t12.5 -57q41 -151 153 -233q121 -88 291 -88z" />
    <glyph glyph-name="Uhungarumlaut" unicode="&#x170;" 
 />
    <glyph glyph-name="uhungarumlaut" unicode="&#x171;" 
 />
    <glyph glyph-name="Uogonek" unicode="&#x172;" 
 />
    <glyph glyph-name="uogonek" unicode="&#x173;" 
 />
    <glyph glyph-name="Wcircumflex" unicode="&#x174;" 
 />
    <glyph glyph-name="wcircumflex" unicode="&#x175;" 
 />
    <glyph glyph-name="Ycircumflex" unicode="&#x176;" 
 />
    <glyph glyph-name="ycircumflex" unicode="&#x177;" 
 />
    <glyph glyph-name="Ydieresis" unicode="&#x178;" 
 />
    <glyph glyph-name="Zacute" unicode="&#x179;" 
d="M59 8q0 -20 -20.5 -20t-20.5 20v193v176v31q0 4 2 7.5t6 8.5t5 6q40 50 139 180q40 51 120 154t120 154q37 48 111.5 144t111.5 144q18 22 100 129q7 -13 15 -35h-76h-373h-238q-9 0 -14.5 6.5t-5.5 14.5v123v301q0 8 5.5 14t14.5 6h74h305h402h350h149q9 0 15 -6t6 -14
v-184v-166q0 -23 -6 -29q-2 -3 -13 -14q-58 -78 -151 -193q-41 -51 -122 -153.5t-122 -153.5q-143 -181 -225 -287q-87 -109 -100 -125q-2 7 -8 19.5t-7 15.5h121h383h229q21 0 21 -20v-152v-295q0 -9 -6 -15.5t-15 -6.5h-90h-315h-401h-349h-147q-20 0 -20 21.5t20 21.5h92
h313h402h348h147q-3 -4 -20 -21v152v295q17 -17 20 -21h-118h-385h-230q-13 0 -17.5 13t3.5 22q2 3 6 8t6 8q63 78 152 193q91 113 243 307q114 141 228 285q16 20 48.5 62.5t49.5 62.5q-1 -2 -3 -7.5t-3 -7.5v58v307q3 -3 10 -10.5t10 -10.5h-73h-305h-402h-350h-150l21 21
v-123v-301q-3 3 -10.5 10t-10.5 10h76h373h238q14 0 18 -11.5t-4 -22.5q-1 -1 -3 -4.5t-3 -4.5q-25 -32 -72.5 -93t-67.5 -87q-30 -38 -111 -143.5t-126 -161.5q-18 -23 -99.5 -129t-125.5 -162q-66 -86 -101 -129q1 2 3 7.5t3 7.5v-97v-303z" />
    <glyph glyph-name="zacute" unicode="&#x17a;" 
d="M61 2q0 -19 -20.5 -19t-20.5 19v152v172q0 25 7 34q11 11 20 23q39 43 116 129t116 129q90 100 167 188q2 -6 7.5 -18t7.5 -18h-78h-305q-8 0 -14.5 6.5t-6.5 13.5v74v305q0 9 6.5 14.5t14.5 5.5h69h334h387h187q20 0 20 -20v-160v-160q0 -14 -6 -20q0 -4 -4 -4
q-16 -20 -25 -29q-40 -44 -119.5 -133t-119.5 -133q-28 -30 -83.5 -91.5t-82.5 -92.5q-2 7 -7.5 19.5t-6.5 14.5h172h292q8 0 14.5 -5.5t6.5 -14.5v-74v-307q0 -7 -6.5 -13.5t-14.5 -6.5h-124h-363h-381h-176q-20 0 -20 20.5t20 20.5h125h360h381h178q-10 -7 -20 -21v76v305
q3 -3 9.5 -10t10.5 -11h-172h-292q-13 0 -18.5 13t3.5 22q28 34 29 35q40 44 119.5 132t119.5 132q27 30 83 92t83 93q-1 -2 -3 -7.5t-3 -7.5v25v301l21 -21h-68h-336h-387h-186q4 4 10.5 11t9.5 10v-72v-307q-10 14 -20 21h78h305q13 0 18 -12t-4 -23q-11 -11 -20 -23
q-39 -43 -116 -129t-116 -129q-28 -32 -84.5 -94t-83.5 -94q2 6 6 14v-37v-305z" />
    <glyph glyph-name="Zdotaccent" unicode="&#x17b;" 
d="M59 8q0 -20 -20.5 -20t-20.5 20v193v176v31q0 4 2 7.5t6 8.5t5 6q40 50 139 180q40 51 120 154t120 154q37 48 111.5 144t111.5 144q18 22 100 129q7 -13 15 -35h-76h-373h-238q-9 0 -14.5 6.5t-5.5 14.5v123v301q0 8 5.5 14t14.5 6h74h305h402h350h149q9 0 15 -6t6 -14
v-184v-166q0 -23 -6 -29q-2 -3 -13 -14q-58 -78 -151 -193q-41 -51 -122 -153.5t-122 -153.5q-143 -181 -225 -287q-87 -109 -100 -125q-2 7 -8 19.5t-7 15.5h121h383h229q21 0 21 -20v-152v-295q0 -9 -6 -15.5t-15 -6.5h-90h-315h-401h-349h-147q-20 0 -20 21.5t20 21.5h92
h313h402h348h147q-3 -4 -20 -21v152v295q17 -17 20 -21h-118h-385h-230q-13 0 -17.5 13t3.5 22q2 3 6 8t6 8q63 78 152 193q91 113 243 307q114 141 228 285q16 20 48.5 62.5t49.5 62.5q-1 -2 -3 -7.5t-3 -7.5v58v307q3 -3 10 -10.5t10 -10.5h-73h-305h-402h-350h-150l21 21
v-123v-301q-3 3 -10.5 10t-10.5 10h76h373h238q14 0 18 -11.5t-4 -22.5q-1 -1 -3 -4.5t-3 -4.5q-25 -32 -72.5 -93t-67.5 -87q-30 -38 -111 -143.5t-126 -161.5q-18 -23 -99.5 -129t-125.5 -162q-66 -86 -101 -129q1 2 3 7.5t3 7.5v-97v-303z" />
    <glyph glyph-name="zdotaccent" unicode="&#x17c;" 
d="M61 2q0 -19 -20.5 -19t-20.5 19v152v172q0 25 7 34q11 11 20 23q39 43 116 129t116 129q90 100 167 188q2 -6 7.5 -18t7.5 -18h-78h-305q-8 0 -14.5 6.5t-6.5 13.5v74v305q0 9 6.5 14.5t14.5 5.5h69h334h387h187q20 0 20 -20v-160v-160q0 -14 -6 -20q0 -4 -4 -4
q-16 -20 -25 -29q-40 -44 -119.5 -133t-119.5 -133q-28 -30 -83.5 -91.5t-82.5 -92.5q-2 7 -7.5 19.5t-6.5 14.5h172h292q8 0 14.5 -5.5t6.5 -14.5v-74v-307q0 -7 -6.5 -13.5t-14.5 -6.5h-124h-363h-381h-176q-20 0 -20 20.5t20 20.5h125h360h381h178q-10 -7 -20 -21v76v305
q3 -3 9.5 -10t10.5 -11h-172h-292q-13 0 -18.5 13t3.5 22q28 34 29 35q40 44 119.5 132t119.5 132q27 30 83 92t83 93q-1 -2 -3 -7.5t-3 -7.5v25v301l21 -21h-68h-336h-387h-186q4 4 10.5 11t9.5 10v-72v-307q-10 14 -20 21h78h305q13 0 18 -12t-4 -23q-11 -11 -20 -23
q-39 -43 -116 -129t-116 -129q-28 -32 -84.5 -94t-83.5 -94q2 6 6 14v-37v-305z" />
    <glyph glyph-name="Zcaron" unicode="&#x17d;" 
 />
    <glyph glyph-name="zcaron" unicode="&#x17e;" 
 />
    <glyph glyph-name="gravecomb" unicode="&#x300;" horiz-adv-x="0" 
 />
    <glyph glyph-name="acutecomb" unicode="&#x301;" horiz-adv-x="0" 
 />
    <glyph glyph-name="uni0302" unicode="&#x302;" horiz-adv-x="0" 
 />
    <glyph glyph-name="tildecomb" unicode="&#x303;" horiz-adv-x="0" 
 />
    <glyph glyph-name="uni0304" unicode="&#x304;" horiz-adv-x="0" 
 />
    <glyph glyph-name="uni0306" unicode="&#x306;" horiz-adv-x="0" 
 />
    <glyph glyph-name="uni0307" unicode="&#x307;" horiz-adv-x="0" 
 />
    <glyph glyph-name="uni0308" unicode="&#x308;" horiz-adv-x="0" 
 />
    <glyph glyph-name="uni030A" unicode="&#x30a;" horiz-adv-x="0" 
 />
    <glyph glyph-name="uni030B" unicode="&#x30b;" horiz-adv-x="0" 
 />
    <glyph glyph-name="uni030C" unicode="&#x30c;" horiz-adv-x="0" 
 />
    <glyph glyph-name="uni0312" unicode="&#x312;" horiz-adv-x="0" 
 />
    <glyph glyph-name="uni0326" unicode="&#x326;" horiz-adv-x="0" 
 />
    <glyph glyph-name="uni0327" unicode="&#x327;" horiz-adv-x="0" 
 />
    <glyph glyph-name="uni0328" unicode="&#x328;" horiz-adv-x="0" 
 />
    <glyph glyph-name="uni0335" unicode="&#x335;" horiz-adv-x="0" 
 />
    <glyph glyph-name="uni0337" unicode="&#x337;" horiz-adv-x="0" 
 />
    <glyph glyph-name="uni0338" unicode="&#x338;" horiz-adv-x="0" 
 />
    <glyph glyph-name="Wgrave" unicode="&#x1e80;" 
 />
    <glyph glyph-name="wgrave" unicode="&#x1e81;" 
 />
    <glyph glyph-name="Wacute" unicode="&#x1e82;" 
 />
    <glyph glyph-name="wacute" unicode="&#x1e83;" 
 />
    <glyph glyph-name="Wdieresis" unicode="&#x1e84;" 
 />
    <glyph glyph-name="wdieresis" unicode="&#x1e85;" 
 />
    <glyph glyph-name="Ygrave" unicode="&#x1ef2;" 
 />
    <glyph glyph-name="ygrave" unicode="&#x1ef3;" 
 />
    <glyph glyph-name="endash" unicode="&#x2013;" horiz-adv-x="1269" 
d="M1126 498q0 -20 -20.5 -20t-20.5 20v147q4 -5 12 -12t9 -8q-10 -2 -33 -2h-303q-129 -2 -391 -2h-195q1 1 9 8t12 12v-147q-1 1 -9 8t-12 12h33h303q131 2 391 2q132 0 195 2q20 0 20 -20.5t-20 -20.5q-10 -2 -33 -2h-303q-129 -2 -391 -2h-195q-7 -1 -13.5 5.5
t-6.5 15.5v147q0 7 6 13t14 8h33h303q131 2 391 2q132 0 195 2q9 0 14.5 -6.5t5.5 -14.5v-147z" />
    <glyph glyph-name="emdash" unicode="&#x2014;" horiz-adv-x="1269" 
d="M1133 518q0 -20 -20.5 -20t-20.5 20v148q3 -4 20 -21q-10 -2 -33 -2h-303q-129 -2 -391 -2h-195q2 2 6.5 6t8 7.5t6.5 7.5v-148q-2 2 -6.5 6t-8 7.5t-6.5 7.5h33h303q131 2 392 2q131 0 194 2q20 0 20 -20.5t-20 -20.5q-10 -2 -33 -2h-303q-129 -2 -391 -2h-195
q-8 -2 -14 4.5t-6 15.5v148q0 16 20 20h33h303q131 2 392 2q131 0 194 2q9 0 15 -6t6 -14v-148z" />
    <glyph glyph-name="quoteleft" unicode="&#x2018;" horiz-adv-x="1271" 
d="M848 1706q20 8 29 -8q3 -6 0.5 -15t-9.5 -12q-24 -12 -59 -26q-26 -11 -39 -29q-14 -14 -18 -47q-12 12 -21 24h88q21 0 21 -20v-10v-293q0 -9 -6 -15t-15 -6h-10h-295q-8 0 -14 6t-6 15v223q0 145 49 231q37 66 108 109q39 22 86 41q20 10 29 -6q19 -28 56 -84.5
t55 -85.5q7 -11 0 -21t-18 -10t-19 10q-19 29 -54.5 85.5t-54.5 84.5q7 -4 29 -8q-92 -38 -135 -76q-73 -70 -86 -182q-4 -37 -4 -170v-141q-3 3 -10 9.5t-11 10.5h10h295q-3 -4 -6.5 -7.5t-7.5 -7t-6 -5.5v8v295q17 -17 20 -21h-88q-10 0 -16 8.5t-4 18.5q12 46 28 66
q18 21 47 34q10 4 31 13.5t31 13.5z" />
    <glyph glyph-name="quoteright" unicode="&#x2019;" horiz-adv-x="1271" 
d="M424 1421q-19 -8 -29 9q-3 6 -1 14.5t9 11.5q30 15 60 27q27 12 39 28q14 14 18 48q9 -9 21 -25h-88q-21 0 -21 20v9v295q0 20 21 20h10h295q8 0 14 -5.5t6 -14.5v-224q0 -147 -49 -231q-37 -66 -108 -109q-39 -22 -86 -41q-19 -10 -29 7q-18 28 -55 85t-56 85
q-7 11 0 20.5t18 9.5t19 -10q19 -29 54.5 -85.5t54.5 -84.5q-7 4 -29 8q92 38 135 76q73 70 86 182q4 37 4 170v142l21 -21h-10h-295q3 4 20 21v-9v-295q-17 17 -20 21h88q10 0 16 -8.5t4 -18.5q-11 -43 -29 -65q-20 -23 -47 -35q-10 -4 -30.5 -13.5t-30.5 -13.5z" />
    <glyph glyph-name="quotesinglbase" unicode="&#x201a;" horiz-adv-x="1271" 
d="M197 -131q-20 -8 -29 8q-3 6 -1 15t9 12q20 10 60 26q25 11 38 29q16 15 19 47q8 -8 20 -24h-88q-20 0 -20 20v8v295q0 21 20 21h11h294q8 0 14.5 -6t6.5 -15v-223q0 -148 -49 -232q-40 -68 -111 -108q-38 -22 -86 -41q-16 -10 -26 6q-18 29 -55 85.5t-56 84.5
q-7 11 0 21t18 10t19 -10q41 -67 108 -170q-12 5 -28 8q92 38 135 76q73 70 86 182q4 37 4 170v141l20 -20h-10h-295q7 10 21 20v-8v-295q-12 9 -21 21h88q10 0 16.5 -9t4.5 -18q-12 -44 -29 -66q-18 -21 -47 -34q-10 -4 -30.5 -13.5t-30.5 -13.5z" />
    <glyph glyph-name="quotedblleft" unicode="&#x201c;" horiz-adv-x="1374" 
d="M647 1706q19 11 29 -6q3 -6 1 -16t-9 -13q-40 -16 -60 -26q-26 -11 -39 -27q-14 -17 -18 -49q-6 6 -21 26h88q9 0 15 -6t6 -14v-10v-295q0 -8 -6 -14.5t-15 -6.5h-10h-295q-7 0 -13.5 6.5t-6.5 14.5v223q0 147 49 231q40 70 109 111q39 22 86 41q19 6 28 -8
q18 -27 55 -83.5t56 -84.5q7 -11 0 -21t-18 -10t-19 10q-70 110 -109 168q4 -1 29 -6q-5 -3 -27.5 -13t-31 -14.5t-25 -13.5t-28.5 -17.5t-23 -19.5q-73 -67 -86 -180q-4 -38 -4 -172v-141q-17 17 -21 20h11h294l-20 -20v10v295q5 -4 12 -12t8 -9h-88q-10 0 -16 8t-4 17
q11 46 29 66q18 24 47 34q26 13 61 27zM1051 1702q16 10 26 -6q5 -6 3 -16t-9 -13q-25 -10 -59 -27q-27 -12 -39 -26q-14 -16 -21 -49q-3 4 -9 13t-9 13h88q8 0 14 -6.5t6 -13.5v-10v-295q0 -8 -6.5 -14.5t-13.5 -6.5h-10h-295q-7 0 -14 6.5t-7 14.5v223q0 151 47 231
q39 68 111 111q39 22 86 41q20 8 29 -8q20 -30 108 -168q8 -11 1.5 -21t-17.5 -10t-19 10q-18 28 -54 84.5t-54 83.5q4 -1 13.5 -3t13.5 -3q-8 -4 -34 -16t-38 -18.5t-30.5 -18.5t-31.5 -25q-73 -67 -86 -182q-4 -37 -4 -170v-141l-20 20h10h295q-3 -3 -10.5 -10t-10.5 -10
v10v295q3 -4 6.5 -7.5t8 -7.5t6.5 -6h-88q-10 0 -16.5 8t-4.5 17q6 39 29 65q16 21 47 35q22 11 62 27z" />
    <glyph glyph-name="quotedblright" unicode="&#x201d;" horiz-adv-x="1374" 
d="M729 1419q-19 -11 -29 6q-3 6 -0.5 16t9.5 13q45 20 59 27q27 12 39 26q14 17 18 49q6 -6 21 -26h-88q-9 0 -15 6t-6 14v11v294q0 8 6 14.5t15 6.5h8h295q9 0 14.5 -6.5t5.5 -14.5v-223q0 -151 -47 -231q-41 -71 -110 -111q-38 -22 -86 -41q-18 -7 -27 8q-18 27 -55 83.5
t-56 84.5q-7 11 0 21t18 10t19 -10q70 -110 109 -168q-5 1 -14.5 3t-14.5 3q5 3 27.5 13t31 14.5t25 13.5t28.5 17.5t23 19.5q73 67 86 180q3 26 3.5 53.5t-0.5 65.5t-1 53v141q4 -3 21 -20h-8h-295l20 20v-10v-295q-4 4 -10.5 11t-9.5 10h88q10 0 16 -8t4 -17
q-11 -46 -28 -65q-16 -21 -47 -35q-22 -11 -62 -27zM326 1423q-18 -11 -29 7q-3 7 -1 16t9 12q30 12 60 27q25 11 38 26q15 18 19 50q10 -9 20 -27h-88q-9 0 -14.5 6t-5.5 14v11v295q0 8 5.5 14t14.5 6h11h294q8 0 14.5 -6.5t6.5 -13.5v-224q0 -151 -49 -231
q-38 -68 -109 -111q-39 -22 -86 -41q-19 -6 -28 9q-19 28 -56 84.5t-55 83.5q-7 11 0 20.5t18 9.5t19 -10q19 -27 54 -83.5t54 -84.5q-20 5 -26 8q96 41 133 76q73 67 86 182q4 37 4 170v142q1 -1 8 -9t12 -12h-10h-295l21 21v-11v-295q-3 4 -6.5 7.5t-8 7.5t-6.5 6h88
q10 0 16.5 -8t4.5 -17q-11 -44 -29 -65q-16 -21 -47 -35q-26 -13 -61 -27z" />
    <glyph glyph-name="quotedblbase" unicode="&#x201e;" horiz-adv-x="1271" 
d="M197 -131q-20 -8 -29 8q-3 6 -1 15t9 12q20 10 60 26q25 11 38 29q16 15 19 47q8 -8 20 -24h-88q-20 0 -20 20v8v295q0 21 20 21h11h294q8 0 14.5 -6t6.5 -15v-223q0 -148 -49 -232q-40 -68 -111 -108q-38 -22 -86 -41q-16 -10 -26 6q-18 29 -55 85.5t-56 84.5
q-7 11 0 21t18 10t19 -10q41 -67 108 -170q-12 5 -28 8q92 38 135 76q73 70 86 182q4 37 4 170v141l20 -20h-10h-295q7 10 21 20v-8v-295q-12 9 -21 21h88q10 0 16.5 -9t4.5 -18q-12 -44 -29 -66q-18 -21 -47 -34q-10 -4 -30.5 -13.5t-30.5 -13.5zM197 -131q-20 -8 -29 8
q-3 6 -1 15t9 12q20 10 60 26q25 11 38 29q16 15 19 47q8 -8 20 -24h-88q-20 0 -20 20v8v295q0 21 20 21h11h294q8 0 14.5 -6t6.5 -15v-223q0 -148 -49 -232q-40 -68 -111 -108q-38 -22 -86 -41q-16 -10 -26 6q-18 29 -55 85.5t-56 84.5q-7 11 0 21t18 10t19 -10
q41 -67 108 -170q-12 5 -28 8q92 38 135 76q73 70 86 182q4 37 4 170v141l20 -20h-10h-295q7 10 21 20v-8v-295q-12 9 -21 21h88q10 0 16.5 -9t4.5 -18q-12 -44 -29 -66q-18 -21 -47 -34q-10 -4 -30.5 -13.5t-30.5 -13.5z" />
    <glyph glyph-name="dagger" unicode="&#x2020;" 
 />
    <glyph glyph-name="daggerdbl" unicode="&#x2021;" 
 />
    <glyph glyph-name="bullet" unicode="&#x2022;" horiz-adv-x="1269" 
d="M451 764q-1 -13 -11.5 -18t-20.5 0t-9 18q0 78 49 133q48 56 121.5 68.5t138.5 -25.5q62 -37 88 -108.5t0 -139.5q-28 -69 -92 -105.5t-137 -23.5q-72 12 -120 69.5t-48 131.5q-1 13 9 18t20.5 0t11.5 -18v-6q2 -66 51.5 -113.5t115.5 -44.5t113.5 51.5t46.5 114.5
q-2 66 -50 114t-114 48q-67 0 -115 -48t-48 -116z" />
    <glyph glyph-name="ellipsis" unicode="&#x2026;" 
 />
    <glyph glyph-name="perthousand" unicode="&#x2030;" 
 />
    <glyph glyph-name="guilsinglleft" unicode="&#x2039;" 
 />
    <glyph glyph-name="guilsinglright" unicode="&#x203a;" 
 />
    <glyph glyph-name="fraction" unicode="&#x2044;" horiz-adv-x="1265" 
d="M1317 1843q18 -7 9 -25q-11 -18 -30 -10q-22 12 -66 33.5t-65 32.5q24 6 29 8q-2 -2 -2 -4q-39 -73 -66 -131q-25 -48 -73 -144.5t-72 -144.5q-63 -131 -195 -393q-129 -257 -219 -440q-37 -73 -109.5 -220t-109.5 -219q0 -1 -188 -379q-20 -39 -42 -83t-49 -98.5
t-42 -84.5q-8 -17 -25 -50t-25 -50q-4 7 -8 29q87 -45 131 -68q-4 -1 -13 -3t-13 -3v2q11 22 33.5 66t33.5 67q82 168 144 289q33 66 97 195.5t97 195.5q37 73 110.5 220.5t110.5 221.5q36 72 109 218.5t109 218.5q157 316 188 378q11 23 59 119.5t74 147.5q12 25 51 102
q6 10 16 10t17.5 -9.5t1.5 -20.5q0 -1 -1 -2.5t-1 -2.5q-27 -58 -66 -131q-23 -48 -71 -144l-72 -144q-33 -66 -98 -197.5t-98 -196.5q-108 -222 -220 -440q-36 -72 -108.5 -218.5t-108.5 -219.5q-127 -251 -190 -379q-22 -44 -66 -133t-65 -133q-18 -33 -51 -101
q-9 -16 -29 -8q-73 39 -131 66q-15 9 -8 28l2 2q42 82 65 134q24 48 72.5 144t73.5 144q95 197 194 391q75 148 219 443q37 73 109.5 218t109.5 218q41 85 189 379l133 266q8 18 24.5 52t24.5 51q10 17 29 6q58 -27 131 -66z" />
    <glyph glyph-name="Euro" unicode="&#x20ac;" horiz-adv-x="1331" 
d="M649 -66q19 0 19 -20t-19 -20q-216 0 -395 86q-161 79 -262 206q-110 136 -162 320q1 -1 8 -6.5t12 -7.5h-178q-8 0 -14 5.5t-6 14.5v43v305q0 8 6.5 14.5t13.5 6.5h135q-3 -3 -10 -10.5t-10 -10.5v27q10 -7 20 -21h-129q-9 0 -14.5 6.5t-5.5 14.5v43v305q0 20 20 20h177
q-3 -2 -9.5 -7t-9.5 -7q77 264 275 412q117 87 276 127q179 42 354 24q198 -22 357 -114q24 -14 48 -30t58 -40t47 -33q8 -6 9 -15.5t-5 -17.5q-9 -12 -28.5 -35.5t-28.5 -35.5q-92 -120 -186 -240q-3 -4 -12 -5.5t-13 1.5q-15 10 -44 30.5t-44 30.5q-83 52 -160 66
q-77 16 -174 6q-83 -11 -137 -41q-70 -37 -111 -106q-3 5 -8 15t-8 15h31h348h252q20 0 20 -20v-43v-305q0 -8 -5.5 -14.5t-14.5 -6.5h-94h-379h-236l21 21v-27q-4 3 -7.5 6.5t-7.5 8t-6 6.5h92h377h236q7 0 13.5 -6.5t6.5 -14.5v-43v-305q0 -9 -6 -14.5t-14 -5.5h-33h-350
h-252l18 30q40 -71 99 -119q62 -46 131 -61q78 -20 170 -10q79 6 147 41q47 24 146 102q15 9 28 -8q9 -12 27.5 -37.5t27.5 -38.5q29 -41 90 -123t91 -123q10 -13 -8 -26q-7 -5 -20.5 -15.5t-20.5 -15.5q-15 -9 -40.5 -27t-35.5 -24q-62 -39 -156 -80q-160 -63 -338 -63
q-13 0 -18 10t0 20t18 10q57 0 119 9q168 21 317 108q24 14 47.5 29.5t61 41.5t45.5 32q-1 -4 -6 -29q-11 16 -32 44.5t-23 31.5q-144 193 -181 245q4 -1 13.5 -4t13.5 -4q-10 -7 -37 -27.5t-41.5 -30.5t-37.5 -24.5t-44 -23.5q-75 -35 -162.5 -43t-169.5 12q-85 23 -149 72
q-63 49 -107 129q-6 9 0 19.5t17 10.5h35h348h252q-3 -3 -10.5 -10t-10.5 -10v43v305q3 -3 10.5 -10t10.5 -10h-92h-379h-234q-9 0 -15 6t-5 14v27q3 20 20 20h96h379h234q-3 -3 -10 -9.5t-11 -10.5v43v305q12 -9 21 -21h-31h-348h-252q-12 0 -18 11t0 20q40 69 98 107
q50 33 113 49q183 44 342 -21q18 -8 35.5 -17t37.5 -21.5t31.5 -20t35.5 -24t32 -21.5q-4 -1 -12.5 -2t-12.5 -2q9 13 27.5 36t27.5 35q126 160 187 240q4 -20 4 -33q-14 10 -43 31t-43 31q-99 70 -213 108q-171 59 -371 43q-176 -10 -309 -75q-138 -63 -234 -179
q-94 -117 -141 -278q-3 -17 -20 -17h-177q9 12 21 21v-43v-305q-4 4 -11 10.5t-10 9.5h129q9 0 15.5 -5.5t5.5 -14.5v-27q0 -7 -6.5 -13.5t-14.5 -6.5h-135q4 3 21 20v-43v-305q-17 17 -21 20h178q16 0 19 -14q58 -202 178 -334q111 -123 268 -186q158 -64 334 -64z" />
    </font>
</defs>
</svg>
